Lemonada-BoldItalic.ufo
<glyph name="exclam" format="2">
  <advance width="420"/>
  <unicode hex="0021"/>
  <outline>
    <contour>
      <point x="189" y="279" type="curve" smooth="yes"/>
      <point x="217" y="279"/>
      <point x="262" y="292"/>
      <point x="291" y="317" type="curve"/>
      <point x="327" y="386"/>
      <point x="410" y="570"/>
      <point x="410" y="672" type="curve" smooth="yes"/>
      <point x="410" y="732"/>
      <point x="381" y="775"/>
      <point x="302" y="775" type="curve" smooth="yes"/>
      <point x="234" y="775"/>
      <point x="172" y="753"/>
      <point x="128" y="708" type="curve"/>
      <point x="147" y="690"/>
      <point x="153" y="656"/>
      <point x="153" y="631" type="curve" smooth="yes"/>
      <point x="153" y="566"/>
      <point x="119" y="411"/>
      <point x="119" y="364" type="curve" smooth="yes"/>
      <point x="119" y="314"/>
      <point x="134" y="279"/>
    </contour>
    <component base="period" xOffset="10"/>
  </outline>
</glyph>
<glyph name="quotedbl" format="2">
  <advance width="473"/>
  <unicode hex="0022"/>
  <outline>
    <contour>
      <point x="364" y="446" type="curve" smooth="yes"/>
      <point x="391" y="446"/>
      <point x="426" y="453"/>
      <point x="456" y="467" type="curve"/>
      <point x="451" y="481"/>
      <point x="449" y="495"/>
      <point x="449" y="510" type="curve" smooth="yes"/>
      <point x="449" y="587"/>
      <point x="501" y="664"/>
      <point x="501" y="730" type="curve" smooth="yes"/>
      <point x="501" y="759"/>
      <point x="487" y="780"/>
      <point x="442" y="780" type="curve" smooth="yes"/>
      <point x="415" y="780"/>
      <point x="380" y="773"/>
      <point x="350" y="759" type="curve"/>
      <point x="355" y="745"/>
      <point x="357" y="731"/>
      <point x="357" y="716" type="curve" smooth="yes"/>
      <point x="357" y="637"/>
      <point x="305" y="560"/>
      <point x="305" y="496" type="curve" smooth="yes"/>
      <point x="305" y="467"/>
      <point x="319" y="446"/>
    </contour>
    <contour>
      <point x="134" y="446" type="curve" smooth="yes"/>
      <point x="161" y="446"/>
      <point x="196" y="453"/>
      <point x="226" y="467" type="curve"/>
      <point x="221" y="481"/>
      <point x="219" y="495"/>
      <point x="219" y="510" type="curve" smooth="yes"/>
      <point x="219" y="587"/>
      <point x="271" y="664"/>
      <point x="271" y="730" type="curve" smooth="yes"/>
      <point x="271" y="759"/>
      <point x="257" y="780"/>
      <point x="212" y="780" type="curve" smooth="yes"/>
      <point x="185" y="780"/>
      <point x="150" y="773"/>
      <point x="120" y="759" type="curve"/>
      <point x="125" y="745"/>
      <point x="127" y="731"/>
      <point x="127" y="716" type="curve" smooth="yes"/>
      <point x="127" y="637"/>
      <point x="75" y="560"/>
      <point x="75" y="496" type="curve" smooth="yes"/>
      <point x="75" y="467"/>
      <point x="89" y="446"/>
    </contour>
  </outline>
</glyph>
<glyph name="dollar" format="2">
  <advance width="697"/>
  <unicode hex="0024"/>
  <outline>
    <contour>
      <point x="317" y="-24" type="curve" smooth="yes"/>
      <point x="457" y="-24"/>
      <point x="641" y="43"/>
      <point x="641" y="199" type="curve" smooth="yes"/>
      <point x="641" y="425"/>
      <point x="302" y="386"/>
      <point x="302" y="490" type="curve" smooth="yes"/>
      <point x="302" y="534"/>
      <point x="357" y="564"/>
      <point x="421" y="571" type="curve"/>
      <point x="451" y="500"/>
      <point x="506" y="466"/>
      <point x="566" y="466" type="curve" smooth="yes"/>
      <point x="628" y="466"/>
      <point x="684" y="505"/>
      <point x="684" y="574" type="curve" smooth="yes"/>
      <point x="684" y="649"/>
      <point x="592" y="702"/>
      <point x="440" y="702" type="curve" smooth="yes"/>
      <point x="252" y="702"/>
      <point x="86" y="629"/>
      <point x="86" y="464" type="curve" smooth="yes"/>
      <point x="86" y="231"/>
      <point x="425" y="261"/>
      <point x="425" y="162" type="curve" smooth="yes"/>
      <point x="425" y="112"/>
      <point x="370" y="91"/>
      <point x="307" y="91" type="curve" smooth="yes"/>
      <point x="205" y="91"/>
      <point x="142" y="143"/>
      <point x="94" y="212" type="curve"/>
      <point x="64" y="185"/>
      <point x="47" y="143"/>
      <point x="47" y="108" type="curve" smooth="yes"/>
      <point x="47" y="31"/>
      <point x="121" y="-24"/>
    </contour>
    <contour>
      <point x="278" y="-193" type="curve" smooth="yes"/>
      <point x="322" y="-193"/>
      <point x="347" y="-160"/>
      <point x="358" y="-96" type="curve" smooth="yes"/>
      <point x="365" y="-52"/>
      <point x="372" y="-8"/>
      <point x="380" y="33" type="curve"/>
      <point x="233" y="26" type="line"/>
      <point x="215" y="-49"/>
      <point x="199" y="-115"/>
      <point x="181" y="-172" type="curve"/>
      <point x="201" y="-185"/>
      <point x="245" y="-193"/>
    </contour>
    <contour>
      <point x="335" y="588" type="curve"/>
      <point x="479" y="588" type="line"/>
      <point x="509" y="696"/>
      <point x="537" y="786"/>
      <point x="563" y="859" type="curve"/>
      <point x="545" y="874"/>
      <point x="502" y="886"/>
      <point x="468" y="886" type="curve" smooth="yes"/>
      <point x="424" y="886"/>
      <point x="396" y="856"/>
      <point x="382" y="793" type="curve" smooth="yes"/>
      <point x="367" y="721"/>
      <point x="351" y="653"/>
    </contour>
  </outline>
</glyph>
<glyph name="ampersand" format="2">
  <advance width="757"/>
  <unicode hex="0026"/>
  <outline>
    <contour>
      <point x="362" y="297" type="curve" smooth="yes"/>
      <point x="469" y="297"/>
      <point x="602" y="325"/>
      <point x="674" y="325" type="curve" smooth="yes"/>
      <point x="697" y="325"/>
      <point x="718" y="323"/>
      <point x="747" y="319" type="curve"/>
      <point x="764" y="346"/>
      <point x="776" y="389"/>
      <point x="776" y="421" type="curve" smooth="yes"/>
      <point x="776" y="458"/>
      <point x="753" y="475"/>
      <point x="704" y="475" type="curve" smooth="yes"/>
      <point x="628" y="475"/>
      <point x="540" y="419"/>
      <point x="398" y="419" type="curve" smooth="yes"/>
      <point x="329" y="419"/>
      <point x="281" y="459"/>
      <point x="281" y="516" type="curve" smooth="yes"/>
      <point x="281" y="574"/>
      <point x="325" y="625"/>
      <point x="402" y="642" type="curve"/>
      <point x="425" y="593"/>
      <point x="471" y="560"/>
      <point x="518" y="560" type="curve" smooth="yes"/>
      <point x="594" y="560"/>
      <point x="631" y="601"/>
      <point x="631" y="658" type="curve" smooth="yes"/>
      <point x="631" y="729"/>
      <point x="550" y="775"/>
      <point x="425" y="775" type="curve" smooth="yes"/>
      <point x="233" y="775"/>
      <point x="83" y="660"/>
      <point x="83" y="512" type="curve" smooth="yes"/>
      <point x="83" y="381"/>
      <point x="192" y="297"/>
    </contour>
    <contour>
      <point x="245" y="-92" type="curve" smooth="yes"/>
      <point x="479" y="-92"/>
      <point x="638" y="85"/>
      <point x="630" y="339" type="curve"/>
      <point x="536" y="333" type="line"/>
      <point x="530" y="180"/>
      <point x="435" y="61"/>
      <point x="321" y="61" type="curve" smooth="yes"/>
      <point x="260" y="61"/>
      <point x="221" y="96"/>
      <point x="221" y="173" type="curve" smooth="yes"/>
      <point x="221" y="252"/>
      <point x="260" y="311"/>
      <point x="326" y="356" type="curve"/>
      <point x="193" y="352" type="line"/>
      <point x="89" y="296"/>
      <point x="23" y="198"/>
      <point x="23" y="97" type="curve" smooth="yes"/>
      <point x="23" y="-17"/>
      <point x="111" y="-92"/>
    </contour>
  </outline>
</glyph>
<glyph name="quotesingle" format="2">
  <advance width="243"/>
  <unicode hex="0027"/>
  <outline>
    <contour>
      <point x="134" y="446" type="curve" smooth="yes"/>
      <point x="161" y="446"/>
      <point x="196" y="453"/>
      <point x="226" y="467" type="curve"/>
      <point x="221" y="481"/>
      <point x="219" y="495"/>
      <point x="219" y="510" type="curve" smooth="yes"/>
      <point x="219" y="587"/>
      <point x="271" y="664"/>
      <point x="271" y="730" type="curve" smooth="yes"/>
      <point x="271" y="759"/>
      <point x="257" y="780"/>
      <point x="212" y="780" type="curve" smooth="yes"/>
      <point x="185" y="780"/>
      <point x="150" y="773"/>
      <point x="120" y="759" type="curve"/>
      <point x="125" y="745"/>
      <point x="127" y="731"/>
      <point x="127" y="716" type="curve" smooth="yes"/>
      <point x="127" y="637"/>
      <point x="75" y="560"/>
      <point x="75" y="496" type="curve" smooth="yes"/>
      <point x="75" y="467"/>
      <point x="89" y="446"/>
    </contour>
  </outline>
</glyph>
<glyph name="parenleft" format="2">
  <advance width="415"/>
  <unicode hex="0028"/>
  <outline>
    <contour>
      <point x="225" y="-156" type="curve" smooth="yes"/>
      <point x="267" y="-156"/>
      <point x="311" y="-140"/>
      <point x="357" y="-108" type="curve"/>
      <point x="275" y="-27"/>
      <point x="239" y="77"/>
      <point x="239" y="231" type="curve" smooth="yes"/>
      <point x="239" y="434"/>
      <point x="320" y="664"/>
      <point x="425" y="758" type="curve"/>
      <point x="405" y="787"/>
      <point x="378" y="801"/>
      <point x="341" y="801" type="curve" smooth="yes"/>
      <point x="210" y="801"/>
      <point x="70" y="486"/>
      <point x="70" y="191" type="curve" smooth="yes"/>
      <point x="70" y="-30"/>
      <point x="126" y="-156"/>
    </contour>
  </outline>
</glyph>
<glyph name="asterisk" format="2">
  <advance width="592"/>
  <unicode hex="002A"/>
  <outline>
    <contour>
      <point x="394" y="300" type="curve" smooth="yes"/>
      <point x="433" y="300"/>
      <point x="479" y="359"/>
      <point x="497" y="402" type="curve"/>
      <point x="395" y="506" type="line"/>
      <point x="438" y="497"/>
      <point x="472" y="492"/>
      <point x="499" y="492" type="curve" smooth="yes"/>
      <point x="545" y="492"/>
      <point x="594" y="506"/>
      <point x="594" y="544" type="curve" smooth="yes"/>
      <point x="594" y="580"/>
      <point x="558" y="633"/>
      <point x="526" y="661" type="curve"/>
      <point x="396" y="595" type="line"/>
      <point x="433" y="661"/>
      <point x="450" y="706"/>
      <point x="450" y="741" type="curve" smooth="yes"/>
      <point x="450" y="784"/>
      <point x="435" y="800"/>
      <point x="392" y="800" type="curve" smooth="yes"/>
      <point x="363" y="800"/>
      <point x="321" y="787"/>
      <point x="289" y="768" type="curve"/>
      <point x="311" y="625" type="line"/>
      <point x="268" y="673"/>
      <point x="212" y="726"/>
      <point x="160" y="726" type="curve" smooth="yes"/>
      <point x="121" y="726"/>
      <point x="108" y="679"/>
      <point x="108" y="631" type="curve" smooth="yes"/>
      <point x="108" y="613"/>
      <point x="110" y="593"/>
      <point x="114" y="576" type="curve"/>
      <point x="257" y="552" type="line"/>
      <point x="193" y="523"/>
      <point x="112" y="477"/>
      <point x="112" y="427" type="curve" smooth="yes"/>
      <point x="112" y="386"/>
      <point x="185" y="355"/>
      <point x="242" y="350" type="curve"/>
      <point x="309" y="479" type="line"/>
      <point x="319" y="399"/>
      <point x="342" y="300"/>
    </contour>
  </outline>
</glyph>
<glyph name="plus" format="2">
  <advance width="730"/>
  <unicode hex="002B"/>
  <outline>
    <contour>
      <point x="310" y="106" type="curve" smooth="yes"/>
      <point x="338" y="106"/>
      <point x="376" y="115"/>
      <point x="422" y="134" type="curve"/>
      <point x="488" y="547" type="line" smooth="yes"/>
      <point x="499" y="618"/>
      <point x="489" y="639"/>
      <point x="447" y="639" type="curve" smooth="yes"/>
      <point x="418" y="639"/>
      <point x="379" y="629"/>
      <point x="335" y="611" type="curve"/>
      <point x="269" y="197" type="line" smooth="yes"/>
      <point x="258" y="127"/>
      <point x="268" y="106"/>
    </contour>
    <component base="minus"/>
  </outline>
</glyph>
<glyph name="comma" format="2">
  <advance width="332"/>
  <unicode hex="002C"/>
  <outline>
    <contour>
      <point x="27" y="-196" type="line"/>
      <point x="185" y="-163"/>
      <point x="284" y="-44"/>
      <point x="284" y="93" type="curve" smooth="yes"/>
      <point x="284" y="153"/>
      <point x="245" y="208"/>
      <point x="177" y="208" type="curve" smooth="yes"/>
      <point x="109" y="208"/>
      <point x="51" y="152"/>
      <point x="48" y="88" type="curve"/>
      <point x="118" y="-2" type="line"/>
      <point x="118" y="-51"/>
      <point x="78" y="-121"/>
      <point x="12" y="-152" type="curve"/>
    </contour>
  </outline>
</glyph>
<glyph name="hyphen" format="2">
  <advance width="527"/>
  <unicode hex="002D"/>
  <outline>
    <contour>
      <point x="120" y="183" type="curve" smooth="yes"/>
      <point x="214" y="183"/>
      <point x="296" y="247"/>
      <point x="395" y="247" type="curve" smooth="yes"/>
      <point x="414" y="247"/>
      <point x="429" y="246"/>
      <point x="447" y="240" type="curve"/>
      <point x="465" y="279"/>
      <point x="475" y="321"/>
      <point x="475" y="354" type="curve" smooth="yes"/>
      <point x="475" y="410"/>
      <point x="449" y="427"/>
      <point x="412" y="427" type="curve" smooth="yes"/>
      <point x="318" y="427"/>
      <point x="236" y="363"/>
      <point x="137" y="363" type="curve" smooth="yes"/>
      <point x="118" y="363"/>
      <point x="103" y="364"/>
      <point x="85" y="370" type="curve"/>
      <point x="67" y="331"/>
      <point x="57" y="289"/>
      <point x="57" y="256" type="curve" smooth="yes"/>
      <point x="57" y="200"/>
      <point x="83" y="183"/>
    </contour>
  </outline>
</glyph>
<glyph name="period" format="2">
  <advance width="293"/>
  <unicode hex="002E"/>
  <outline>
    <contour>
      <point x="137" y="-25" type="curve" smooth="yes"/>
      <point x="207" y="-25"/>
      <point x="263" y="35"/>
      <point x="263" y="102" type="curve" smooth="yes"/>
      <point x="263" y="161"/>
      <point x="217" y="207"/>
      <point x="156" y="207" type="curve" smooth="yes"/>
      <point x="86" y="207"/>
      <point x="30" y="147"/>
      <point x="30" y="80" type="curve" smooth="yes"/>
      <point x="30" y="21"/>
      <point x="76" y="-25"/>
    </contour>
  </outline>
</glyph>
<glyph name="slash" format="2">
  <advance width="398"/>
  <unicode hex="002F"/>
  <anchor x="199" y="378" name="_center"/>
  <outline>
    <contour>
      <point x="96" y="-80" type="curve" smooth="yes"/>
      <point x="142" y="-80"/>
      <point x="170" y="-50"/>
      <point x="184" y="14" type="curve" smooth="yes"/>
      <point x="262" y="365"/>
      <point x="335" y="634"/>
      <point x="398" y="809" type="curve"/>
      <point x="379" y="824"/>
      <point x="336" y="836"/>
      <point x="302" y="836" type="curve" smooth="yes"/>
      <point x="256" y="836"/>
      <point x="228" y="806"/>
      <point x="214" y="742" type="curve" smooth="yes"/>
      <point x="136" y="391"/>
      <point x="63" y="122"/>
      <point x="0" y="-53" type="curve"/>
      <point x="20" y="-68"/>
      <point x="63" y="-80"/>
    </contour>
  </outline>
</glyph>
<glyph name="zero" format="2">
  <advance width="728"/>
  <unicode hex="0030"/>
  <outline>
    <contour>
      <point x="346" y="-25" type="curve" smooth="yes"/>
      <point x="548" y="-25"/>
      <point x="703" y="151"/>
      <point x="703" y="380" type="curve" smooth="yes"/>
      <point x="703" y="522"/>
      <point x="648" y="612"/>
      <point x="545" y="637" type="curve"/>
      <point x="543" y="662"/>
      <point x="539" y="678"/>
      <point x="533" y="685" type="curve"/>
      <point x="513" y="693"/>
      <point x="477" y="700"/>
      <point x="452" y="700" type="curve" smooth="yes"/>
      <point x="215" y="700"/>
      <point x="55" y="536"/>
      <point x="55" y="295" type="curve" smooth="yes"/>
      <point x="55" y="99"/>
      <point x="168" y="-25"/>
    </contour>
    <contour>
      <point x="353" y="117" type="curve" smooth="yes"/>
      <point x="296" y="117"/>
      <point x="259" y="180"/>
      <point x="259" y="280" type="curve" smooth="yes"/>
      <point x="259" y="360"/>
      <point x="285" y="458"/>
      <point x="328" y="514" type="curve"/>
      <point x="348" y="522"/>
      <point x="366" y="526"/>
      <point x="384" y="526" type="curve" smooth="yes"/>
      <point x="462" y="526"/>
      <point x="499" y="475"/>
      <point x="499" y="370" type="curve" smooth="yes"/>
      <point x="499" y="222"/>
      <point x="438" y="117"/>
    </contour>
  </outline>
</glyph>
<glyph name="one" format="2">
  <advance width="554"/>
  <unicode hex="0031"/>
  <outline>
    <contour>
      <point x="327" y="-25" type="curve" smooth="yes"/>
      <point x="368" y="-25"/>
      <point x="410" y="-13"/>
      <point x="455" y="12" type="curve"/>
      <point x="436" y="44"/>
      <point x="426" y="86"/>
      <point x="426" y="133" type="curve" smooth="yes"/>
      <point x="426" y="284"/>
      <point x="504" y="531"/>
      <point x="504" y="620" type="curve" smooth="yes"/>
      <point x="504" y="673"/>
      <point x="480" y="700"/>
      <point x="433" y="700" type="curve" smooth="yes"/>
      <point x="343" y="700"/>
      <point x="273" y="604"/>
      <point x="90" y="563" type="curve"/>
      <point x="100" y="471"/>
      <point x="158" y="417"/>
      <point x="245" y="417" type="curve"/>
      <point x="209" y="221"/>
      <point x="203" y="176"/>
      <point x="203" y="115" type="curve" smooth="yes"/>
      <point x="203" y="19"/>
      <point x="242" y="-25"/>
    </contour>
  </outline>
</glyph>
<glyph name="two" format="2">
  <advance width="711"/>
  <unicode hex="0032"/>
  <outline>
    <contour>
      <point x="297" y="97" type="line"/>
      <point x="526" y="267"/>
      <point x="613" y="375"/>
      <point x="613" y="500" type="curve" smooth="yes"/>
      <point x="613" y="612"/>
      <point x="514" y="700"/>
      <point x="371" y="700" type="curve" smooth="yes"/>
      <point x="208" y="700"/>
      <point x="98" y="625"/>
      <point x="98" y="513" type="curve" smooth="yes"/>
      <point x="98" y="453"/>
      <point x="136" y="414"/>
      <point x="199" y="407" type="curve"/>
      <point x="217" y="494"/>
      <point x="269" y="535"/>
      <point x="327" y="535" type="curve" smooth="yes"/>
      <point x="384" y="535"/>
      <point x="412" y="501"/>
      <point x="412" y="449" type="curve" smooth="yes"/>
      <point x="412" y="379"/>
      <point x="336" y="266"/>
      <point x="95" y="141" type="curve"/>
    </contour>
    <contour>
      <point x="489" y="-30" type="curve" smooth="yes"/>
      <point x="585" y="-30"/>
      <point x="660" y="27"/>
      <point x="660" y="100" type="curve" smooth="yes"/>
      <point x="660" y="132"/>
      <point x="653" y="162"/>
      <point x="636" y="204" type="curve"/>
      <point x="489" y="141" type="line"/>
      <point x="410" y="141"/>
      <point x="259" y="212"/>
      <point x="187" y="212" type="curve" smooth="yes"/>
      <point x="95" y="211"/>
      <point x="31" y="155"/>
      <point x="31" y="78" type="curve" smooth="yes"/>
      <point x="31" y="20"/>
      <point x="71" y="-22"/>
      <point x="128" y="-22" type="curve" smooth="yes"/>
      <point x="172" y="-22"/>
      <point x="207" y="-8"/>
      <point x="251" y="28" type="curve"/>
      <point x="332" y="-3"/>
      <point x="402" y="-30"/>
    </contour>
  </outline>
</glyph>
<glyph name="three" format="2">
  <advance width="664"/>
  <unicode hex="0033"/>
  <outline>
    <contour>
      <point x="211" y="-156" type="curve" smooth="yes"/>
      <point x="432" y="-156"/>
      <point x="597" y="-45"/>
      <point x="597" y="103" type="curve" smooth="yes"/>
      <point x="597" y="244"/>
      <point x="476" y="333"/>
      <point x="282" y="333" type="curve" smooth="yes"/>
      <point x="189" y="333"/>
      <point x="132" y="299"/>
      <point x="132" y="244" type="curve" smooth="yes"/>
      <point x="132" y="194"/>
      <point x="168" y="164"/>
      <point x="227" y="164" type="curve" smooth="yes"/>
      <point x="263" y="164"/>
      <point x="302" y="175"/>
      <point x="337" y="195" type="curve"/>
      <point x="371" y="178"/>
      <point x="393" y="138"/>
      <point x="393" y="93" type="curve" smooth="yes"/>
      <point x="393" y="24"/>
      <point x="331" y="-29"/>
      <point x="252" y="-29" type="curve"/>
      <point x="222" y="22"/>
      <point x="169" y="56"/>
      <point x="119" y="56" type="curve" smooth="yes"/>
      <point x="53" y="56"/>
      <point x="4" y="15"/>
      <point x="4" y="-42" type="curve" smooth="yes"/>
      <point x="4" y="-115"/>
      <point x="79" y="-156"/>
    </contour>
    <contour>
      <point x="413" y="233" type="line"/>
      <point x="544" y="315"/>
      <point x="609" y="405"/>
      <point x="609" y="503" type="curve" smooth="yes"/>
      <point x="609" y="623"/>
      <point x="511" y="700"/>
      <point x="359" y="700" type="curve" smooth="yes"/>
      <point x="188" y="700"/>
      <point x="73" y="625"/>
      <point x="73" y="513" type="curve" smooth="yes"/>
      <point x="73" y="453"/>
      <point x="111" y="414"/>
      <point x="174" y="407" type="curve"/>
      <point x="193" y="487"/>
      <point x="246" y="535"/>
      <point x="315" y="535" type="curve" smooth="yes"/>
      <point x="371" y="535"/>
      <point x="405" y="503"/>
      <point x="405" y="450" type="curve" smooth="yes"/>
      <point x="405" y="363"/>
      <point x="338" y="305"/>
      <point x="196" y="270" type="curve"/>
    </contour>
  </outline>
</glyph>
<glyph name="four" format="2">
  <advance width="714"/>
  <unicode hex="0034"/>
  <outline>
    <contour>
      <point x="210" y="0" type="curve" smooth="yes"/>
      <point x="266" y="0"/>
      <point x="340" y="8"/>
      <point x="386" y="19" type="curve"/>
      <point x="415" y="130" type="line"/>
      <point x="191" y="130" type="line"/>
      <point x="365" y="302"/>
      <point x="450" y="445"/>
      <point x="450" y="566" type="curve" smooth="yes"/>
      <point x="450" y="656"/>
      <point x="405" y="700"/>
      <point x="315" y="700" type="curve" smooth="yes"/>
      <point x="287" y="700"/>
      <point x="240" y="690"/>
      <point x="208" y="677" type="curve"/>
      <point x="214" y="662"/>
      <point x="216" y="649"/>
      <point x="216" y="630" type="curve" smooth="yes"/>
      <point x="216" y="467"/>
      <point x="24" y="229"/>
      <point x="24" y="115" type="curve" smooth="yes"/>
      <point x="24" y="40"/>
      <point x="89" y="0"/>
    </contour>
    <contour>
      <point x="503" y="-170" type="curve" smooth="yes"/>
      <point x="551" y="-170"/>
      <point x="588" y="-160"/>
      <point x="637" y="-134" type="curve"/>
      <point x="621" y="-102"/>
      <point x="613" y="-69"/>
      <point x="613" y="-41" type="curve" smooth="yes"/>
      <point x="613" y="118"/>
      <point x="682" y="290"/>
      <point x="682" y="341" type="curve" smooth="yes"/>
      <point x="682" y="369"/>
      <point x="669" y="377"/>
      <point x="627" y="377" type="curve" smooth="yes"/>
      <point x="576" y="377"/>
      <point x="504" y="352"/>
      <point x="475" y="324" type="curve"/>
      <point x="421" y="219"/>
      <point x="369" y="46"/>
      <point x="369" y="-32" type="curve" smooth="yes"/>
      <point x="369" y="-120"/>
      <point x="417" y="-170"/>
    </contour>
  </outline>
</glyph>
<glyph name="five" format="2">
  <advance width="625"/>
  <unicode hex="0035"/>
  <outline>
    <contour>
      <point x="209" y="-156" type="curve" smooth="yes"/>
      <point x="429" y="-156"/>
      <point x="595" y="-42"/>
      <point x="595" y="110" type="curve" smooth="yes"/>
      <point x="595" y="247"/>
      <point x="481" y="333"/>
      <point x="296" y="333" type="curve"/>
      <point x="320" y="478" type="line"/>
      <point x="157" y="543" type="line"/>
      <point x="106" y="231" type="line"/>
      <point x="105" y="215"/>
      <point x="115" y="208"/>
      <point x="132" y="208" type="curve" smooth="yes"/>
      <point x="146" y="208"/>
      <point x="188" y="218"/>
      <point x="227" y="218" type="curve" smooth="yes"/>
      <point x="357" y="218"/>
      <point x="392" y="151"/>
      <point x="392" y="97" type="curve" smooth="yes"/>
      <point x="392" y="26"/>
      <point x="331" y="-29"/>
      <point x="255" y="-29" type="curve"/>
      <point x="227" y="22"/>
      <point x="176" y="56"/>
      <point x="127" y="56" type="curve" smooth="yes"/>
      <point x="60" y="56"/>
      <point x="10" y="14"/>
      <point x="10" y="-45" type="curve" smooth="yes"/>
      <point x="10" y="-116"/>
      <point x="82" y="-156"/>
    </contour>
    <contour>
      <point x="347" y="468" type="curve" smooth="yes"/>
      <point x="547" y="468"/>
      <point x="620" y="511"/>
      <point x="620" y="622" type="curve" smooth="yes"/>
      <point x="620" y="647"/>
      <point x="615" y="678"/>
      <point x="607" y="708" type="curve"/>
      <point x="523" y="666"/>
      <point x="398" y="625"/>
      <point x="339" y="622" type="curve"/>
      <point x="315" y="676"/>
      <point x="268" y="703"/>
      <point x="224" y="703" type="curve" smooth="yes"/>
      <point x="159" y="703"/>
      <point x="120" y="665"/>
      <point x="120" y="603" type="curve" smooth="yes"/>
      <point x="120" y="519"/>
      <point x="204" y="468"/>
    </contour>
  </outline>
</glyph>
<glyph name="six" format="2">
  <advance width="727"/>
  <unicode hex="0036"/>
  <outline>
    <contour>
      <point x="319" y="-25" type="curve" smooth="yes"/>
      <point x="514" y="-25"/>
      <point x="687" y="116"/>
      <point x="687" y="306" type="curve" smooth="yes"/>
      <point x="687" y="427"/>
      <point x="618" y="519"/>
      <point x="489" y="519" type="curve" smooth="yes"/>
      <point x="433" y="519"/>
      <point x="371" y="500"/>
      <point x="317" y="438" type="curve"/>
      <point x="306" y="438" type="line"/>
      <point x="383" y="595"/>
      <point x="509" y="683"/>
      <point x="669" y="727" type="curve"/>
      <point x="641" y="795"/>
      <point x="606" y="827"/>
      <point x="520" y="827" type="curve" smooth="yes"/>
      <point x="311" y="827"/>
      <point x="68" y="557"/>
      <point x="68" y="250" type="curve" smooth="yes"/>
      <point x="68" y="66"/>
      <point x="173" y="-25"/>
    </contour>
    <contour>
      <point x="358" y="108" type="curve" smooth="yes"/>
      <point x="294" y="108"/>
      <point x="272" y="170"/>
      <point x="272" y="230" type="curve" smooth="yes"/>
      <point x="272" y="342"/>
      <point x="339" y="398"/>
      <point x="385" y="398" type="curve" smooth="yes"/>
      <point x="461" y="398"/>
      <point x="483" y="339"/>
      <point x="483" y="283" type="curve" smooth="yes"/>
      <point x="483" y="164"/>
      <point x="410" y="108"/>
    </contour>
  </outline>
</glyph>
<glyph name="seven" format="2">
  <advance width="604"/>
  <unicode hex="0037"/>
  <outline>
    <contour>
      <point x="265" y="-121" type="curve" smooth="yes"/>
      <point x="299" y="-121"/>
      <point x="333" y="-115"/>
      <point x="372" y="-98" type="curve"/>
      <point x="364" y="-83"/>
      <point x="363" y="-70"/>
      <point x="363" y="-51" type="curve" smooth="yes"/>
      <point x="363" y="129"/>
      <point x="460" y="386"/>
      <point x="547" y="527" type="curve"/>
      <point x="348" y="498" type="line"/>
      <point x="218" y="314"/>
      <point x="129" y="121"/>
      <point x="129" y="0" type="curve" smooth="yes"/>
      <point x="129" y="-87"/>
      <point x="183" y="-121"/>
    </contour>
    <contour>
      <point x="353" y="469" type="curve" smooth="yes"/>
      <point x="526" y="469"/>
      <point x="629" y="525"/>
      <point x="629" y="618" type="curve" smooth="yes"/>
      <point x="629" y="672"/>
      <point x="592" y="704"/>
      <point x="530" y="704" type="curve" smooth="yes"/>
      <point x="481" y="704"/>
      <point x="429" y="677"/>
      <point x="400" y="623" type="curve"/>
      <point x="324" y="626"/>
      <point x="168" y="667"/>
      <point x="67" y="709" type="curve"/>
      <point x="56" y="676"/>
      <point x="50" y="644"/>
      <point x="50" y="617" type="curve" smooth="yes"/>
      <point x="50" y="510"/>
      <point x="134" y="469"/>
    </contour>
  </outline>
</glyph>
<glyph name="eight" format="2">
  <advance width="678"/>
  <unicode hex="0038"/>
  <outline>
    <contour>
      <point x="312" y="-26" type="curve" smooth="yes"/>
      <point x="508" y="-26"/>
      <point x="648" y="67"/>
      <point x="648" y="199" type="curve" smooth="yes"/>
      <point x="648" y="394"/>
      <point x="305" y="467"/>
      <point x="305" y="593" type="curve" smooth="yes"/>
      <point x="305" y="646"/>
      <point x="344" y="672"/>
      <point x="392" y="672" type="curve" smooth="yes"/>
      <point x="439" y="672"/>
      <point x="468" y="640"/>
      <point x="468" y="590" type="curve" smooth="yes"/>
      <point x="468" y="533"/>
      <point x="433" y="468"/>
      <point x="308" y="418" type="curve" smooth="yes"/>
      <point x="79" y="327"/>
      <point x="50" y="243"/>
      <point x="50" y="164" type="curve" smooth="yes"/>
      <point x="50" y="45"/>
      <point x="149" y="-26"/>
    </contour>
    <contour>
      <point x="329" y="80" type="curve" smooth="yes"/>
      <point x="269" y="80"/>
      <point x="224" y="112"/>
      <point x="224" y="166" type="curve" smooth="yes"/>
      <point x="224" y="241"/>
      <point x="299" y="309"/>
      <point x="406" y="352" type="curve" smooth="yes"/>
      <point x="562" y="415"/>
      <point x="642" y="500"/>
      <point x="642" y="591" type="curve" smooth="yes"/>
      <point x="642" y="704"/>
      <point x="548" y="777"/>
      <point x="396" y="777" type="curve" smooth="yes"/>
      <point x="218" y="777"/>
      <point x="101" y="696"/>
      <point x="101" y="574" type="curve" smooth="yes"/>
      <point x="101" y="392"/>
      <point x="443" y="282"/>
      <point x="443" y="176" type="curve" smooth="yes"/>
      <point x="443" y="114"/>
      <point x="391" y="80"/>
    </contour>
  </outline>
</glyph>
<glyph name="nine" format="2">
  <advance width="709"/>
  <unicode hex="0039"/>
  <outline>
    <contour>
      <point x="217" y="-152" type="curve" smooth="yes"/>
      <point x="426" y="-152"/>
      <point x="669" y="118"/>
      <point x="669" y="425" type="curve" smooth="yes"/>
      <point x="669" y="609"/>
      <point x="564" y="700"/>
      <point x="418" y="700" type="curve" smooth="yes"/>
      <point x="223" y="700"/>
      <point x="50" y="559"/>
      <point x="50" y="369" type="curve" smooth="yes"/>
      <point x="50" y="248"/>
      <point x="119" y="156"/>
      <point x="248" y="156" type="curve" smooth="yes"/>
      <point x="304" y="156"/>
      <point x="366" y="175"/>
      <point x="420" y="237" type="curve"/>
      <point x="431" y="237" type="line"/>
      <point x="354" y="80"/>
      <point x="228" y="-8"/>
      <point x="68" y="-52" type="curve"/>
      <point x="96" y="-120"/>
      <point x="131" y="-152"/>
    </contour>
    <contour>
      <point x="352" y="277" type="curve" smooth="yes"/>
      <point x="276" y="277"/>
      <point x="254" y="336"/>
      <point x="254" y="392" type="curve" smooth="yes"/>
      <point x="254" y="511"/>
      <point x="327" y="567"/>
      <point x="379" y="567" type="curve" smooth="yes"/>
      <point x="443" y="567"/>
      <point x="465" y="505"/>
      <point x="465" y="445" type="curve" smooth="yes"/>
      <point x="465" y="333"/>
      <point x="398" y="277"/>
    </contour>
  </outline>
</glyph>
<glyph name="greater" format="2">
  <advance width="763"/>
  <unicode hex="003E"/>
  <outline>
    <contour>
      <point x="602" y="291" type="line"/>
      <point x="637" y="321"/>
      <point x="680" y="372"/>
      <point x="680" y="404" type="curve" smooth="yes"/>
      <point x="680" y="427"/>
      <point x="660" y="446"/>
      <point x="613" y="466" type="curve" smooth="yes"/>
      <point x="221" y="637" type="line"/>
      <point x="188" y="607"/>
      <point x="143" y="559"/>
      <point x="143" y="524" type="curve" smooth="yes"/>
      <point x="143" y="501"/>
      <point x="162" y="483"/>
      <point x="209" y="463" type="curve" smooth="yes"/>
    </contour>
    <contour>
      <point x="155" y="100" type="curve" smooth="yes"/>
      <point x="170" y="100"/>
      <point x="191" y="107"/>
      <point x="220" y="120" type="curve" smooth="yes"/>
      <point x="602" y="291" type="line"/>
      <point x="600" y="336"/>
      <point x="593" y="375"/>
      <point x="581" y="401" type="curve" smooth="yes"/>
      <point x="571" y="422"/>
      <point x="559" y="432"/>
      <point x="540" y="432" type="curve" smooth="yes"/>
      <point x="524" y="432"/>
      <point x="504" y="425"/>
      <point x="475" y="412" type="curve" smooth="yes"/>
      <point x="94" y="241" type="line"/>
      <point x="95" y="179"/>
      <point x="107" y="100"/>
    </contour>
  </outline>
</glyph>
<glyph name="question" format="2">
  <advance width="589"/>
  <unicode hex="003F"/>
  <outline>
    <contour>
      <point x="286" y="263" type="curve" smooth="yes"/>
      <point x="437" y="263"/>
      <point x="559" y="378"/>
      <point x="559" y="542" type="curve" smooth="yes"/>
      <point x="559" y="659"/>
      <point x="488" y="775"/>
      <point x="295" y="775" type="curve" smooth="yes"/>
      <point x="115" y="775"/>
      <point x="30" y="676"/>
      <point x="30" y="584" type="curve" smooth="yes"/>
      <point x="30" y="534"/>
      <point x="57" y="482"/>
      <point x="142" y="482" type="curve"/>
      <point x="161" y="572"/>
      <point x="220" y="600"/>
      <point x="265" y="600" type="curve" smooth="yes"/>
      <point x="321" y="600"/>
      <point x="343" y="561"/>
      <point x="343" y="520" type="curve" smooth="yes"/>
      <point x="343" y="443"/>
      <point x="285" y="387"/>
      <point x="171" y="376" type="curve"/>
      <point x="171" y="310"/>
      <point x="206" y="263"/>
    </contour>
    <component base="period" xOffset="54"/>
  </outline>
</glyph>
<glyph name="at" format="2">
  <advance width="1077"/>
  <unicode hex="0040"/>
  <outline>
    <contour>
      <point x="509" y="-235" type="curve" smooth="yes"/>
      <point x="706" y="-235"/>
      <point x="939" y="-158"/>
      <point x="939" y="-6" type="curve" smooth="yes"/>
      <point x="939" y="17"/>
      <point x="933" y="42"/>
      <point x="923" y="65" type="curve"/>
      <point x="822" y="-39"/>
      <point x="691" y="-94"/>
      <point x="543" y="-94" type="curve" smooth="yes"/>
      <point x="301" y="-94"/>
      <point x="171" y="25"/>
      <point x="171" y="243" type="curve" smooth="yes"/>
      <point x="171" y="505"/>
      <point x="380" y="715"/>
      <point x="645" y="715" type="curve" smooth="yes"/>
      <point x="874" y="715"/>
      <point x="956" y="598"/>
      <point x="956" y="474" type="curve" smooth="yes"/>
      <point x="956" y="355"/>
      <point x="876" y="229"/>
      <point x="781" y="196" type="curve"/>
      <point x="691" y="90" type="line"/>
      <point x="909" y="90"/>
      <point x="1053" y="296"/>
      <point x="1053" y="482" type="curve" smooth="yes"/>
      <point x="1053" y="646"/>
      <point x="935" y="800"/>
      <point x="650" y="800" type="curve" smooth="yes"/>
      <point x="312" y="800"/>
      <point x="54" y="536"/>
      <point x="54" y="197" type="curve" smooth="yes"/>
      <point x="54" y="-66"/>
      <point x="228" y="-235"/>
    </contour>
    <contour>
      <point x="450" y="90" type="curve" smooth="yes"/>
      <point x="514" y="90"/>
      <point x="567" y="131"/>
      <point x="590" y="199" type="curve"/>
      <point x="598" y="196" type="line"/>
      <point x="597" y="192"/>
      <point x="597" y="188"/>
      <point x="597" y="183" type="curve" smooth="yes"/>
      <point x="597" y="124"/>
      <point x="631" y="90"/>
      <point x="691" y="90" type="curve" smooth="yes"/>
      <point x="732" y="90"/>
      <point x="774" y="106"/>
      <point x="810" y="134" type="curve"/>
      <point x="792" y="149"/>
      <point x="781" y="179"/>
      <point x="781" y="217" type="curve" smooth="yes"/>
      <point x="781" y="275"/>
      <point x="820" y="397"/>
      <point x="820" y="438" type="curve" smooth="yes"/>
      <point x="820" y="484"/>
      <point x="797" y="510"/>
      <point x="758" y="510" type="curve" smooth="yes"/>
      <point x="707" y="510"/>
      <point x="669" y="490"/>
      <point x="634" y="446" type="curve"/>
      <point x="623" y="303"/>
      <point x="593" y="243"/>
      <point x="535" y="243" type="curve" smooth="yes"/>
      <point x="506" y="243"/>
      <point x="488" y="265"/>
      <point x="488" y="305" type="curve" smooth="yes"/>
      <point x="488" y="379"/>
      <point x="551" y="446"/>
      <point x="665" y="446" type="curve"/>
      <point x="665" y="479"/>
      <point x="662" y="508"/>
      <point x="657" y="521" type="curve"/>
      <point x="643" y="525"/>
      <point x="624" y="527"/>
      <point x="605" y="527" type="curve" smooth="yes"/>
      <point x="446" y="527"/>
      <point x="312" y="423"/>
      <point x="312" y="255" type="curve" smooth="yes"/>
      <point x="312" y="155"/>
      <point x="367" y="90"/>
    </contour>
  </outline>
</glyph>
<glyph name="A" format="2">
  <advance width="767"/>
  <unicode hex="0041"/>
  <anchor x="353" y="0" name="bottom"/>
  <anchor x="727" y="16" name="ogonek"/>
  <anchor x="478" y="710" name="top"/>
  <outline>
    <contour>
      <point x="113" y="-29" type="curve" smooth="yes"/>
      <point x="161" y="-29"/>
      <point x="216" y="-11"/>
      <point x="253" y="16" type="curve"/>
      <point x="238" y="44"/>
      <point x="232" y="71"/>
      <point x="232" y="110" type="curve" smooth="yes"/>
      <point x="232" y="197"/>
      <point x="315" y="382"/>
      <point x="447" y="593" type="curve"/>
      <point x="459" y="593" type="line"/>
      <point x="455" y="516"/>
      <point x="453" y="408"/>
      <point x="453" y="292" type="curve" smooth="yes"/>
      <point x="452" y="65"/>
      <point x="496" y="-29"/>
      <point x="602" y="-29" type="curve" smooth="yes"/>
      <point x="647" y="-29"/>
      <point x="688" y="-14"/>
      <point x="727" y="16" type="curve"/>
      <point x="648" y="125"/>
      <point x="664" y="333"/>
      <point x="664" y="578" type="curve" smooth="yes"/>
      <point x="664" y="680"/>
      <point x="632" y="725"/>
      <point x="559" y="725" type="curve" smooth="yes"/>
      <point x="533" y="725"/>
      <point x="507" y="717"/>
      <point x="475" y="700" type="curve"/>
      <point x="459" y="716"/>
      <point x="430" y="725"/>
      <point x="393" y="725" type="curve" smooth="yes"/>
      <point x="322" y="725"/>
      <point x="266" y="708"/>
      <point x="191" y="662" type="curve"/>
      <point x="224" y="577" type="line"/>
      <point x="68" y="271"/>
      <point x="20" y="151"/>
      <point x="20" y="69" type="curve" smooth="yes"/>
      <point x="20" y="5"/>
      <point x="52" y="-29"/>
    </contour>
    <contour>
      <point x="178" y="161" type="line"/>
      <point x="526" y="161" type="line"/>
      <point x="546" y="280" type="line"/>
      <point x="200" y="280" type="line"/>
    </contour>
  </outline>
</glyph>
<glyph name="B" format="2">
  <advance width="789"/>
  <unicode hex="0042"/>
  <outline>
    <contour>
      <point x="373" y="-24" type="curve" smooth="yes"/>
      <point x="588" y="-24"/>
      <point x="727" y="59"/>
      <point x="727" y="188" type="curve" smooth="yes"/>
      <point x="727" y="281"/>
      <point x="664" y="348"/>
      <point x="557" y="368" type="curve"/>
      <point x="666" y="410"/>
      <point x="724" y="481"/>
      <point x="724" y="574" type="curve" smooth="yes"/>
      <point x="724" y="668"/>
      <point x="659" y="725"/>
      <point x="552" y="725" type="curve" smooth="yes"/>
      <point x="486" y="725"/>
      <point x="418" y="705"/>
      <point x="350" y="666" type="curve"/>
      <point x="342" y="706"/>
      <point x="317" y="726"/>
      <point x="276" y="726" type="curve" smooth="yes"/>
      <point x="215" y="726"/>
      <point x="144" y="701"/>
      <point x="70" y="653" type="curve"/>
      <point x="123" y="546" type="line"/>
      <point x="77" y="283"/>
      <point x="65" y="197"/>
      <point x="65" y="140" type="curve" smooth="yes"/>
      <point x="65" y="24"/>
      <point x="156" y="-24"/>
    </contour>
    <contour>
      <point x="383" y="89" type="curve" smooth="yes"/>
      <point x="346" y="89"/>
      <point x="304" y="97"/>
      <point x="273" y="111" type="curve"/>
      <point x="285" y="242"/>
      <point x="313" y="441"/>
      <point x="340" y="579" type="curve"/>
      <point x="366" y="589"/>
      <point x="392" y="593"/>
      <point x="421" y="593" type="curve" smooth="yes"/>
      <point x="477" y="593"/>
      <point x="506" y="568"/>
      <point x="506" y="518" type="curve" smooth="yes"/>
      <point x="506" y="438"/>
      <point x="424" y="384"/>
      <point x="294" y="378" type="curve"/>
      <point x="281" y="282" type="line"/>
      <point x="316" y="295"/>
      <point x="354" y="302"/>
      <point x="387" y="302" type="curve" smooth="yes"/>
      <point x="465" y="302"/>
      <point x="509" y="265"/>
      <point x="509" y="201" type="curve" smooth="yes"/>
      <point x="509" y="133"/>
      <point x="459" y="89"/>
    </contour>
  </outline>
</glyph>
<glyph name="C" format="2">
  <advance width="718"/>
  <unicode hex="0043"/>
  <anchor x="314" y="0" name="bottom"/>
  <anchor x="456" y="696" name="top"/>
  <outline>
    <contour>
      <point x="354" y="-25" type="curve" smooth="yes"/>
      <point x="525" y="-25"/>
      <point x="663" y="62"/>
      <point x="663" y="171" type="curve" smooth="yes"/>
      <point x="663" y="234"/>
      <point x="615" y="265"/>
      <point x="530" y="265" type="curve"/>
      <point x="525" y="162"/>
      <point x="456" y="81"/>
      <point x="366" y="81" type="curve" smooth="yes"/>
      <point x="291" y="81"/>
      <point x="247" y="152"/>
      <point x="247" y="274" type="curve" smooth="yes"/>
      <point x="247" y="422"/>
      <point x="323" y="555"/>
      <point x="424" y="594" type="curve"/>
      <point x="456" y="527"/>
      <point x="514" y="491"/>
      <point x="578" y="491" type="curve" smooth="yes"/>
      <point x="646" y="491"/>
      <point x="695" y="536"/>
      <point x="695" y="599" type="curve" smooth="yes"/>
      <point x="695" y="677"/>
      <point x="614" y="726"/>
      <point x="488" y="726" type="curve" smooth="yes"/>
      <point x="224" y="726"/>
      <point x="29" y="538"/>
      <point x="29" y="278" type="curve" smooth="yes"/>
      <point x="29" y="87"/>
      <point x="150" y="-25"/>
    </contour>
  </outline>
</glyph>
<glyph name="D" format="2">
  <advance width="856"/>
  <unicode hex="0044"/>
  <anchor x="356" y="0" name="bottom"/>
  <anchor x="226" y="355" name="center"/>
  <anchor x="481" y="710" name="top"/>
  <outline>
    <contour>
      <point x="323" y="-25" type="curve" smooth="yes"/>
      <point x="601" y="-25"/>
      <point x="796" y="158"/>
      <point x="796" y="419" type="curve" smooth="yes"/>
      <point x="796" y="602"/>
      <point x="675" y="726"/>
      <point x="494" y="726" type="curve" smooth="yes"/>
      <point x="392" y="726"/>
      <point x="330" y="701"/>
      <point x="235" y="620" type="curve"/>
      <point x="265" y="538" type="line"/>
      <point x="319" y="578"/>
      <point x="362" y="596"/>
      <point x="403" y="596" type="curve" smooth="yes"/>
      <point x="513" y="596"/>
      <point x="578" y="517"/>
      <point x="578" y="384" type="curve" smooth="yes"/>
      <point x="578" y="211"/>
      <point x="481" y="89"/>
      <point x="343" y="89" type="curve" smooth="yes"/>
      <point x="319" y="89"/>
      <point x="295" y="94"/>
      <point x="276" y="103" type="curve"/>
      <point x="276" y="162"/>
      <point x="353" y="558"/>
      <point x="353" y="632" type="curve" smooth="yes"/>
      <point x="353" y="695"/>
      <point x="327" y="726"/>
      <point x="276" y="726" type="curve" smooth="yes"/>
      <point x="215" y="726"/>
      <point x="144" y="701"/>
      <point x="70" y="653" type="curve"/>
      <point x="123" y="546" type="line"/>
      <point x="74" y="286"/>
      <point x="60" y="199"/>
      <point x="60" y="143" type="curve" smooth="yes"/>
      <point x="60" y="38"/>
      <point x="158" y="-25"/>
    </contour>
  </outline>
</glyph>
<glyph name="E" format="2">
  <advance width="629"/>
  <unicode hex="0045"/>
  <anchor x="283" y="0" name="bottom"/>
  <anchor x="554" y="10" name="ogonek"/>
  <anchor x="398" y="710" name="top"/>
  <anchor x="20" y="710" name="topleft"/>
  <outline>
    <contour>
      <point x="182" y="-26" type="curve" smooth="yes"/>
      <point x="231" y="-26"/>
      <point x="271" y="-12"/>
      <point x="306" y="19" type="curve"/>
      <point x="284" y="50"/>
      <point x="276" y="83"/>
      <point x="276" y="144" type="curve" smooth="yes"/>
      <point x="276" y="221"/>
      <point x="353" y="564"/>
      <point x="353" y="632" type="curve" smooth="yes"/>
      <point x="353" y="695"/>
      <point x="327" y="726"/>
      <point x="276" y="726" type="curve" smooth="yes"/>
      <point x="215" y="726"/>
      <point x="144" y="701"/>
      <point x="70" y="653" type="curve"/>
      <point x="123" y="546" type="line"/>
      <point x="73" y="261"/>
      <point x="60" y="168"/>
      <point x="60" y="109" type="curve" smooth="yes"/>
      <point x="60" y="14"/>
      <point x="96" y="-26"/>
    </contour>
    <contour>
      <point x="447" y="-25" type="curve" smooth="yes"/>
      <point x="543" y="-25"/>
      <point x="597" y="24"/>
      <point x="597" y="111" type="curve" smooth="yes"/>
      <point x="597" y="137"/>
      <point x="594" y="156"/>
      <point x="586" y="175" type="curve"/>
      <point x="538" y="156"/>
      <point x="487" y="143"/>
      <point x="438" y="136" type="curve"/>
      <point x="229" y="136" type="line"/>
      <point x="229" y="29" type="line"/>
      <point x="309" y="-10"/>
      <point x="371" y="-25"/>
    </contour>
    <contour>
      <point x="357" y="249" type="curve" smooth="yes"/>
      <point x="425" y="249"/>
      <point x="466" y="284"/>
      <point x="466" y="341" type="curve" smooth="yes"/>
      <point x="466" y="360"/>
      <point x="464" y="377"/>
      <point x="461" y="389" type="curve"/>
      <point x="371" y="366" type="line"/>
      <point x="343" y="366"/>
      <point x="319" y="369"/>
      <point x="292" y="376" type="curve"/>
      <point x="272" y="262" type="line"/>
      <point x="312" y="252"/>
      <point x="334" y="249"/>
    </contour>
    <contour>
      <point x="448" y="493" type="curve" smooth="yes"/>
      <point x="567" y="493"/>
      <point x="639" y="555"/>
      <point x="639" y="656" type="curve" smooth="yes"/>
      <point x="639" y="676"/>
      <point x="636" y="698"/>
      <point x="631" y="721" type="curve"/>
      <point x="507" y="690"/>
      <point x="415" y="668"/>
      <point x="284" y="668" type="curve"/>
      <point x="272" y="533" type="line"/>
      <point x="311" y="513"/>
      <point x="398" y="493"/>
    </contour>
  </outline>
</glyph>
<glyph name="F" format="2">
  <advance width="599"/>
  <unicode hex="0046"/>
  <outline>
    <contour>
      <point x="182" y="-26" type="curve" smooth="yes"/>
      <point x="231" y="-26"/>
      <point x="271" y="-12"/>
      <point x="306" y="19" type="curve"/>
      <point x="284" y="50"/>
      <point x="276" y="83"/>
      <point x="276" y="144" type="curve" smooth="yes"/>
      <point x="276" y="221"/>
      <point x="353" y="564"/>
      <point x="353" y="632" type="curve" smooth="yes"/>
      <point x="353" y="695"/>
      <point x="327" y="726"/>
      <point x="276" y="726" type="curve" smooth="yes"/>
      <point x="215" y="726"/>
      <point x="144" y="701"/>
      <point x="70" y="653" type="curve"/>
      <point x="123" y="546" type="line"/>
      <point x="73" y="261"/>
      <point x="60" y="168"/>
      <point x="60" y="109" type="curve" smooth="yes"/>
      <point x="60" y="14"/>
      <point x="96" y="-26"/>
    </contour>
    <contour>
      <point x="357" y="249" type="curve" smooth="yes"/>
      <point x="425" y="249"/>
      <point x="466" y="284"/>
      <point x="466" y="341" type="curve" smooth="yes"/>
      <point x="466" y="360"/>
      <point x="464" y="377"/>
      <point x="461" y="389" type="curve"/>
      <point x="371" y="366" type="line"/>
      <point x="343" y="366"/>
      <point x="319" y="369"/>
      <point x="292" y="376" type="curve"/>
      <point x="272" y="262" type="line"/>
      <point x="312" y="252"/>
      <point x="334" y="249"/>
    </contour>
    <contour>
      <point x="438" y="493" type="curve" smooth="yes"/>
      <point x="557" y="493"/>
      <point x="629" y="555"/>
      <point x="629" y="656" type="curve" smooth="yes"/>
      <point x="629" y="676"/>
      <point x="626" y="698"/>
      <point x="621" y="721" type="curve"/>
      <point x="497" y="690"/>
      <point x="405" y="668"/>
      <point x="274" y="668" type="curve"/>
      <point x="262" y="533" type="line"/>
      <point x="301" y="513"/>
      <point x="388" y="493"/>
    </contour>
  </outline>
</glyph>
<glyph name="G" format="2">
  <advance width="780"/>
  <unicode hex="0047"/>
  <anchor x="259" y="0" name="bottom"/>
  <anchor x="668" y="-141" name="ogonek"/>
  <anchor x="466" y="696" name="top"/>
  <outline>
    <contour>
      <point x="361" y="-30" type="curve" smooth="yes"/>
      <point x="476" y="-30"/>
      <point x="569" y="59"/>
      <point x="569" y="171" type="curve" smooth="yes"/>
      <point x="569" y="213"/>
      <point x="551" y="234"/>
      <point x="519" y="234" type="curve"/>
      <point x="514" y="148"/>
      <point x="453" y="81"/>
      <point x="372" y="81" type="curve" smooth="yes"/>
      <point x="293" y="81"/>
      <point x="247" y="152"/>
      <point x="247" y="274" type="curve" smooth="yes"/>
      <point x="247" y="422"/>
      <point x="327" y="555"/>
      <point x="434" y="594" type="curve"/>
      <point x="467" y="527"/>
      <point x="527" y="491"/>
      <point x="593" y="491" type="curve" smooth="yes"/>
      <point x="662" y="491"/>
      <point x="712" y="536"/>
      <point x="712" y="599" type="curve" smooth="yes"/>
      <point x="712" y="677"/>
      <point x="630" y="726"/>
      <point x="502" y="726" type="curve" smooth="yes"/>
      <point x="230" y="726"/>
      <point x="29" y="538"/>
      <point x="29" y="278" type="curve" smooth="yes"/>
      <point x="29" y="84"/>
      <point x="153" y="-30"/>
    </contour>
    <contour>
      <point x="549" y="-185" type="curve" smooth="yes"/>
      <point x="589" y="-185"/>
      <point x="630" y="-171"/>
      <point x="668" y="-141" type="curve"/>
      <point x="647" y="-125"/>
      <point x="637" y="-96"/>
      <point x="637" y="-60" type="curve" smooth="yes"/>
      <point x="637" y="56"/>
      <point x="715" y="265"/>
      <point x="715" y="310" type="curve" smooth="yes"/>
      <point x="715" y="356"/>
      <point x="696" y="377"/>
      <point x="639" y="377" type="curve" smooth="yes"/>
      <point x="575" y="377"/>
      <point x="501" y="347"/>
      <point x="441" y="309" type="curve"/>
      <point x="519" y="234" type="line"/>
      <point x="558" y="189" type="line"/>
      <point x="443" y="19" type="line"/>
      <point x="435" y="-21"/>
      <point x="430" y="-54"/>
      <point x="430" y="-74" type="curve" smooth="yes"/>
      <point x="430" y="-146"/>
      <point x="464" y="-185"/>
    </contour>
  </outline>
</glyph>
<glyph name="H" format="2">
  <advance width="824"/>
  <unicode hex="0048"/>
  <anchor x="363" y="0" name="bottom"/>
  <anchor x="441" y="495" name="center"/>
  <anchor x="475" y="710" name="top"/>
  <anchor x="20" y="710" name="topleft"/>
  <outline>
    <contour>
      <point x="623" y="-26" type="curve" smooth="yes"/>
      <point x="668" y="-26"/>
      <point x="708" y="-12"/>
      <point x="747" y="19" type="curve"/>
      <point x="725" y="50"/>
      <point x="717" y="83"/>
      <point x="717" y="144" type="curve" smooth="yes"/>
      <point x="717" y="221"/>
      <point x="794" y="564"/>
      <point x="794" y="632" type="curve" smooth="yes"/>
      <point x="794" y="695"/>
      <point x="768" y="726"/>
      <point x="717" y="726" type="curve" smooth="yes"/>
      <point x="656" y="726"/>
      <point x="585" y="701"/>
      <point x="511" y="653" type="curve"/>
      <point x="564" y="546" type="line"/>
      <point x="513" y="253"/>
      <point x="501" y="167"/>
      <point x="501" y="109" type="curve" smooth="yes"/>
      <point x="501" y="14"/>
      <point x="537" y="-26"/>
    </contour>
    <contour>
      <point x="182" y="-26" type="curve" smooth="yes"/>
      <point x="227" y="-26"/>
      <point x="267" y="-12"/>
      <point x="306" y="19" type="curve"/>
      <point x="284" y="50"/>
      <point x="276" y="83"/>
      <point x="276" y="144" type="curve" smooth="yes"/>
      <point x="276" y="221"/>
      <point x="353" y="564"/>
      <point x="353" y="632" type="curve" smooth="yes"/>
      <point x="353" y="695"/>
      <point x="327" y="726"/>
      <point x="276" y="726" type="curve" smooth="yes"/>
      <point x="215" y="726"/>
      <point x="144" y="701"/>
      <point x="70" y="653" type="curve"/>
      <point x="123" y="546" type="line"/>
      <point x="72" y="253"/>
      <point x="60" y="167"/>
      <point x="60" y="109" type="curve" smooth="yes"/>
      <point x="60" y="14"/>
      <point x="96" y="-26"/>
    </contour>
    <contour>
      <point x="233" y="267" type="line"/>
      <point x="581" y="267" type="line"/>
      <point x="601" y="386" type="line"/>
      <point x="255" y="386" type="line"/>
    </contour>
  </outline>
</glyph>
<glyph name="I" format="2">
  <advance width="382"/>
  <unicode hex="0049"/>
  <anchor x="170" y="0" name="bottom"/>
  <anchor x="306" y="20" name="ogonek"/>
  <anchor x="255" y="710" name="top"/>
  <anchor x="20" y="710" name="topleft"/>
  <outline>
    <contour>
      <point x="182" y="-25" type="curve" smooth="yes"/>
      <point x="227" y="-25"/>
      <point x="267" y="-11"/>
      <point x="306" y="20" type="curve"/>
      <point x="284" y="51"/>
      <point x="276" y="84"/>
      <point x="276" y="145" type="curve" smooth="yes"/>
      <point x="276" y="222"/>
      <point x="353" y="564"/>
      <point x="353" y="632" type="curve" smooth="yes"/>
      <point x="353" y="695"/>
      <point x="327" y="726"/>
      <point x="276" y="726" type="curve" smooth="yes"/>
      <point x="215" y="726"/>
      <point x="144" y="701"/>
      <point x="70" y="653" type="curve"/>
      <point x="123" y="546" type="line"/>
      <point x="72" y="254"/>
      <point x="60" y="168"/>
      <point x="60" y="110" type="curve" smooth="yes"/>
      <point x="60" y="15"/>
      <point x="96" y="-25"/>
    </contour>
  </outline>
</glyph>
<glyph name="J" format="2">
  <advance width="610"/>
  <unicode hex="004A"/>
  <anchor x="243" y="0" name="bottom"/>
  <anchor x="368" y="710" name="top"/>
  <outline>
    <contour>
      <point x="203" y="-25" type="curve" smooth="yes"/>
      <point x="349" y="-25"/>
      <point x="497" y="24"/>
      <point x="533" y="278" type="curve" smooth="yes"/>
      <point x="582" y="632" type="line"/>
      <point x="349" y="545" type="line"/>
      <point x="312" y="278" type="line" smooth="yes"/>
      <point x="290" y="120"/>
      <point x="272" y="112"/>
      <point x="230" y="88" type="curve"/>
      <point x="265" y="37" type="line"/>
      <point x="248" y="168"/>
      <point x="178" y="222"/>
      <point x="111" y="222" type="curve" smooth="yes"/>
      <point x="53" y="222"/>
      <point x="0" y="181"/>
      <point x="0" y="115" type="curve" smooth="yes"/>
      <point x="0" y="34"/>
      <point x="84" y="-25"/>
    </contour>
    <contour>
      <point x="356" y="480" type="curve" smooth="yes"/>
      <point x="512" y="480"/>
      <point x="605" y="534"/>
      <point x="605" y="626" type="curve" smooth="yes"/>
      <point x="605" y="689"/>
      <point x="568" y="726"/>
      <point x="496" y="726" type="curve" smooth="yes"/>
      <point x="444" y="726"/>
      <point x="399" y="698"/>
      <point x="369" y="641" type="curve"/>
      <point x="308" y="645"/>
      <point x="181" y="688"/>
      <point x="99" y="732" type="curve"/>
      <point x="89" y="697"/>
      <point x="84" y="663"/>
      <point x="84" y="635" type="curve" smooth="yes"/>
      <point x="84" y="523"/>
      <point x="159" y="480"/>
    </contour>
  </outline>
</glyph>
<glyph name="K" format="2">
  <advance width="736"/>
  <unicode hex="004B"/>
  <anchor x="339" y="0" name="bottom"/>
  <anchor x="451" y="710" name="top"/>
  <outline>
    <contour>
      <point x="182" y="210" type="line"/>
      <point x="432" y="345" type="line" smooth="yes"/>
      <point x="639" y="457"/>
      <point x="734" y="548"/>
      <point x="734" y="635" type="curve" smooth="yes"/>
      <point x="734" y="695"/>
      <point x="701" y="725"/>
      <point x="636" y="725" type="curve" smooth="yes"/>
      <point x="592" y="725"/>
      <point x="545" y="710"/>
      <point x="496" y="680" type="curve"/>
      <point x="501" y="665"/>
      <point x="504" y="650"/>
      <point x="504" y="633" type="curve" smooth="yes"/>
      <point x="504" y="569"/>
      <point x="451" y="494"/>
      <point x="358" y="425" type="curve" smooth="yes"/>
      <point x="182" y="296" type="line"/>
    </contour>
    <contour>
      <point x="182" y="-26" type="curve" smooth="yes"/>
      <point x="229" y="-26"/>
      <point x="269" y="-12"/>
      <point x="306" y="19" type="curve"/>
      <point x="284" y="50"/>
      <point x="276" y="83"/>
      <point x="276" y="144" type="curve" smooth="yes"/>
      <point x="276" y="221"/>
      <point x="353" y="564"/>
      <point x="353" y="632" type="curve" smooth="yes"/>
      <point x="353" y="695"/>
      <point x="327" y="726"/>
      <point x="276" y="726" type="curve" smooth="yes"/>
      <point x="215" y="726"/>
      <point x="144" y="701"/>
      <point x="70" y="653" type="curve"/>
      <point x="123" y="546" type="line"/>
      <point x="74" y="264"/>
      <point x="60" y="169"/>
      <point x="60" y="109" type="curve" smooth="yes"/>
      <point x="60" y="14"/>
      <point x="96" y="-26"/>
    </contour>
    <contour>
      <point x="593" y="-25" type="curve" smooth="yes"/>
      <point x="639" y="-25"/>
      <point x="707" y="1"/>
      <point x="736" y="30" type="curve"/>
      <point x="666" y="79"/>
      <point x="589" y="235"/>
      <point x="530" y="446" type="curve"/>
      <point x="347" y="317" type="line"/>
      <point x="410" y="139" type="line" smooth="yes"/>
      <point x="453" y="17"/>
      <point x="500" y="-25"/>
    </contour>
  </outline>
</glyph>
<glyph name="L" format="2">
  <advance width="553"/>
  <unicode hex="004C"/>
  <anchor x="277" y="0" name="bottom"/>
  <anchor x="477" y="385" name="center"/>
  <anchor x="247" y="710" name="top"/>
  <anchor x="383" y="610" name="topright"/>
  <outline>
    <contour>
      <point x="182" y="-26" type="curve" smooth="yes"/>
      <point x="229" y="-26"/>
      <point x="269" y="-12"/>
      <point x="306" y="19" type="curve"/>
      <point x="284" y="50"/>
      <point x="276" y="83"/>
      <point x="276" y="144" type="curve" smooth="yes"/>
      <point x="276" y="221"/>
      <point x="353" y="564"/>
      <point x="353" y="632" type="curve" smooth="yes"/>
      <point x="353" y="695"/>
      <point x="327" y="726"/>
      <point x="276" y="726" type="curve" smooth="yes"/>
      <point x="215" y="726"/>
      <point x="144" y="701"/>
      <point x="70" y="653" type="curve"/>
      <point x="123" y="546" type="line"/>
      <point x="74" y="264"/>
      <point x="60" y="169"/>
      <point x="60" y="109" type="curve" smooth="yes"/>
      <point x="60" y="14"/>
      <point x="96" y="-26"/>
    </contour>
    <contour>
      <point x="393" y="-25" type="curve" smooth="yes"/>
      <point x="489" y="-25"/>
      <point x="543" y="24"/>
      <point x="543" y="111" type="curve" smooth="yes"/>
      <point x="543" y="138"/>
      <point x="539" y="157"/>
      <point x="532" y="175" type="curve"/>
      <point x="484" y="156"/>
      <point x="433" y="143"/>
      <point x="384" y="136" type="curve"/>
      <point x="260" y="136" type="line"/>
      <point x="211" y="14" type="line"/>
      <point x="288" y="-18"/>
      <point x="339" y="-25"/>
    </contour>
  </outline>
</glyph>
<glyph name="M" format="2">
  <advance width="1033"/>
  <unicode hex="004D"/>
  <outline>
    <contour>
      <point x="182" y="-26" type="curve" smooth="yes"/>
      <point x="225" y="-26"/>
      <point x="265" y="-12"/>
      <point x="306" y="19" type="curve"/>
      <point x="286" y="51"/>
      <point x="276" y="96"/>
      <point x="276" y="164" type="curve" smooth="yes"/>
      <point x="276" y="216"/>
      <point x="304" y="376"/>
      <point x="335" y="510" type="curve"/>
      <point x="345" y="510" type="line"/>
      <point x="366" y="125"/>
      <point x="405" y="41"/>
      <point x="478" y="41" type="curve" smooth="yes"/>
      <point x="516" y="41"/>
      <point x="558" y="56"/>
      <point x="591" y="87" type="curve"/>
      <point x="603" y="203"/>
      <point x="662" y="387"/>
      <point x="759" y="510" type="curve"/>
      <point x="769" y="510" type="line"/>
      <point x="731" y="315"/>
      <point x="710" y="195"/>
      <point x="710" y="129" type="curve" smooth="yes"/>
      <point x="710" y="25"/>
      <point x="742" y="-26"/>
      <point x="832" y="-26" type="curve" smooth="yes"/>
      <point x="875" y="-26"/>
      <point x="915" y="-12"/>
      <point x="956" y="19" type="curve"/>
      <point x="936" y="51"/>
      <point x="926" y="96"/>
      <point x="926" y="164" type="curve" smooth="yes"/>
      <point x="926" y="235"/>
      <point x="1003" y="550"/>
      <point x="1003" y="612" type="curve" smooth="yes"/>
      <point x="1003" y="670"/>
      <point x="982" y="720"/>
      <point x="893" y="720" type="curve" smooth="yes"/>
      <point x="686" y="720"/>
      <point x="566" y="456"/>
      <point x="516" y="293" type="curve"/>
      <point x="504" y="293" type="line"/>
      <point x="472" y="665"/>
      <point x="405" y="726"/>
      <point x="276" y="726" type="curve" smooth="yes"/>
      <point x="205" y="726"/>
      <point x="132" y="693"/>
      <point x="70" y="653" type="curve"/>
      <point x="123" y="546" type="line"/>
      <point x="83" y="325"/>
      <point x="60" y="196"/>
      <point x="60" y="129" type="curve" smooth="yes"/>
      <point x="60" y="25"/>
      <point x="92" y="-26"/>
    </contour>
  </outline>
</glyph>
<glyph name="N" format="2">
  <advance width="863"/>
  <unicode hex="004E"/>
  <anchor x="370" y="0" name="bottom"/>
  <anchor x="495" y="710" name="top"/>
  <outline>
    <contour>
      <point x="663" y="-25" type="curve"/>
      <point x="654" y="243" type="line"/>
      <point x="544" y="243" type="line"/>
      <point x="477" y="653"/>
      <point x="436" y="726"/>
      <point x="276" y="726" type="curve"/>
      <point x="289" y="546" type="line"/>
      <point x="353" y="546" type="line"/>
      <point x="430" y="77"/>
      <point x="486" y="-26"/>
    </contour>
    <contour>
      <point x="182" y="-26" type="curve" smooth="yes"/>
      <point x="227" y="-26"/>
      <point x="267" y="-12"/>
      <point x="306" y="19" type="curve"/>
      <point x="284" y="50"/>
      <point x="276" y="83"/>
      <point x="276" y="144" type="curve" smooth="yes"/>
      <point x="276" y="221"/>
      <point x="353" y="564"/>
      <point x="353" y="632" type="curve" smooth="yes"/>
      <point x="353" y="695"/>
      <point x="327" y="726"/>
      <point x="276" y="726" type="curve" smooth="yes"/>
      <point x="215" y="726"/>
      <point x="144" y="701"/>
      <point x="70" y="653" type="curve"/>
      <point x="123" y="546" type="line"/>
      <point x="72" y="253"/>
      <point x="60" y="167"/>
      <point x="60" y="109" type="curve" smooth="yes"/>
      <point x="60" y="14"/>
      <point x="96" y="-26"/>
    </contour>
    <contour>
      <point x="663" y="-25" type="curve" smooth="yes"/>
      <point x="708" y="-25"/>
      <point x="748" y="-11"/>
      <point x="787" y="20" type="curve"/>
      <point x="765" y="51"/>
      <point x="757" y="84"/>
      <point x="757" y="145" type="curve" smooth="yes"/>
      <point x="757" y="222"/>
      <point x="834" y="565"/>
      <point x="834" y="633" type="curve" smooth="yes"/>
      <point x="834" y="696"/>
      <point x="808" y="727"/>
      <point x="757" y="727" type="curve" smooth="yes"/>
      <point x="699" y="727"/>
      <point x="631" y="702"/>
      <point x="561" y="654" type="curve"/>
      <point x="604" y="547" type="line"/>
      <point x="553" y="254"/>
      <point x="541" y="168"/>
      <point x="541" y="110" type="curve" smooth="yes"/>
      <point x="541" y="15"/>
      <point x="577" y="-25"/>
    </contour>
  </outline>
</glyph>
<glyph name="O" format="2">
  <advance width="773"/>
  <unicode hex="004F"/>
  <anchor x="349" y="0" name="bottom"/>
  <anchor x="437" y="355" name="center"/>
  <anchor x="526" y="10" name="ogonek"/>
  <anchor x="461" y="710" name="top"/>
  <anchor x="25" y="710" name="topleft"/>
  <anchor x="611" y="622" name="topright"/>
  <outline>
    <contour>
      <point x="346" y="-25" type="curve" smooth="yes"/>
      <point x="579" y="-25"/>
      <point x="753" y="167"/>
      <point x="753" y="424" type="curve" smooth="yes"/>
      <point x="753" y="547"/>
      <point x="701" y="622"/>
      <point x="611" y="622" type="curve" smooth="yes"/>
      <point x="537" y="622"/>
      <point x="482" y="563"/>
      <point x="482" y="487" type="curve"/>
      <point x="482" y="412"/>
      <point x="515" y="341"/>
      <point x="612" y="296" type="curve"/>
      <point x="591" y="169"/>
      <point x="493" y="81"/>
      <point x="394" y="81" type="curve" smooth="yes"/>
      <point x="306" y="81"/>
      <point x="248" y="149"/>
      <point x="248" y="283" type="curve" smooth="yes"/>
      <point x="248" y="441"/>
      <point x="334" y="575"/>
      <point x="469" y="575" type="curve" smooth="yes"/>
      <point x="486" y="575"/>
      <point x="513" y="571"/>
      <point x="527" y="567" type="curve"/>
      <point x="538" y="591"/>
      <point x="541" y="605"/>
      <point x="541" y="629" type="curve" smooth="yes"/>
      <point x="541" y="695"/>
      <point x="506" y="725"/>
      <point x="416" y="725" type="curve" smooth="yes"/>
      <point x="213" y="725"/>
      <point x="30" y="550"/>
      <point x="30" y="283" type="curve" smooth="yes"/>
      <point x="30" y="101"/>
      <point x="154" y="-25"/>
    </contour>
  </outline>
</glyph>
<glyph name="P" format="2">
  <advance width="717"/>
  <unicode hex="0050"/>
  <outline>
    <contour>
      <point x="383" y="205" type="curve" smooth="yes"/>
      <point x="612" y="205"/>
      <point x="717" y="360"/>
      <point x="717" y="500" type="curve" smooth="yes"/>
      <point x="717" y="617"/>
      <point x="638" y="724"/>
      <point x="494" y="724" type="curve" smooth="yes"/>
      <point x="381" y="724"/>
      <point x="327" y="687"/>
      <point x="265" y="640" type="curve"/>
      <point x="265" y="538" type="line"/>
      <point x="311" y="575"/>
      <point x="352" y="596"/>
      <point x="393" y="596" type="curve" smooth="yes"/>
      <point x="461" y="596"/>
      <point x="494" y="543"/>
      <point x="494" y="486" type="curve" smooth="yes"/>
      <point x="494" y="396"/>
      <point x="423" y="330"/>
      <point x="330" y="330" type="curve" smooth="yes"/>
      <point x="300" y="330"/>
      <point x="267" y="338"/>
      <point x="243" y="357" type="curve"/>
      <point x="243" y="238" type="line"/>
      <point x="288" y="214"/>
      <point x="326" y="205"/>
    </contour>
    <contour>
      <point x="182" y="-26" type="curve" smooth="yes"/>
      <point x="227" y="-26"/>
      <point x="267" y="-12"/>
      <point x="306" y="19" type="curve"/>
      <point x="284" y="50"/>
      <point x="276" y="83"/>
      <point x="276" y="144" type="curve" smooth="yes"/>
      <point x="276" y="221"/>
      <point x="353" y="564"/>
      <point x="353" y="632" type="curve" smooth="yes"/>
      <point x="353" y="695"/>
      <point x="327" y="726"/>
      <point x="276" y="726" type="curve" smooth="yes"/>
      <point x="215" y="726"/>
      <point x="144" y="701"/>
      <point x="70" y="653" type="curve"/>
      <point x="123" y="546" type="line"/>
      <point x="72" y="253"/>
      <point x="60" y="167"/>
      <point x="60" y="109" type="curve" smooth="yes"/>
      <point x="60" y="14"/>
      <point x="96" y="-26"/>
    </contour>
  </outline>
</glyph>
<glyph name="Q" format="2">
  <advance width="796"/>
  <unicode hex="0051"/>
  <anchor x="461" y="710" name="top"/>
  <anchor x="25" y="710" name="topleft"/>
  <anchor x="526" y="10" name="ogonek"/>
  <anchor x="349" y="0" name="bottom"/>
  <anchor x="611" y="622" name="topright"/>
  <anchor x="437" y="355" name="center"/>
  <outline>
    <contour>
      <point x="555" y="-223" type="curve" smooth="yes"/>
      <point x="655" y="-223"/>
      <point x="700" y="-156"/>
      <point x="700" y="-82" type="curve" smooth="yes"/>
      <point x="700" y="-60"/>
      <point x="697" y="-38"/>
      <point x="689" y="-16" type="curve"/>
      <point x="627" y="-39"/>
      <point x="568" y="-46"/>
      <point x="510" y="-46" type="curve" smooth="yes"/>
      <point x="397" y="-46"/>
      <point x="287" y="0"/>
      <point x="183" y="0" type="curve" smooth="yes"/>
      <point x="107" y="0"/>
      <point x="73" y="-47"/>
      <point x="73" y="-90" type="curve" smooth="yes"/>
      <point x="73" y="-127"/>
      <point x="98" y="-166"/>
      <point x="148" y="-166" type="curve" smooth="yes"/>
      <point x="173" y="-166"/>
      <point x="223" y="-157"/>
      <point x="260" y="-107" type="curve"/>
      <point x="330" y="-150"/>
      <point x="453" y="-223"/>
    </contour>
    <component base="O"/>
  </outline>
</glyph>
<glyph name="R" format="2">
  <advance width="747"/>
  <unicode hex="0052"/>
  <anchor x="332" y="0" name="bottom"/>
  <anchor x="437" y="710" name="top"/>
  <outline>
    <contour>
      <point x="383" y="235" type="curve" smooth="yes"/>
      <point x="612" y="235"/>
      <point x="717" y="377"/>
      <point x="717" y="515" type="curve" smooth="yes"/>
      <point x="717" y="620"/>
      <point x="638" y="724"/>
      <point x="494" y="724" type="curve" smooth="yes"/>
      <point x="381" y="724"/>
      <point x="327" y="687"/>
      <point x="265" y="640" type="curve"/>
      <point x="265" y="538" type="line"/>
      <point x="311" y="575"/>
      <point x="352" y="596"/>
      <point x="393" y="596" type="curve" smooth="yes"/>
      <point x="461" y="596"/>
      <point x="494" y="546"/>
      <point x="494" y="501" type="curve" smooth="yes"/>
      <point x="494" y="415"/>
      <point x="423" y="360"/>
      <point x="330" y="360" type="curve" smooth="yes"/>
      <point x="300" y="360"/>
      <point x="267" y="368"/>
      <point x="243" y="387" type="curve"/>
      <point x="243" y="268" type="line"/>
      <point x="288" y="244"/>
      <point x="326" y="235"/>
    </contour>
    <contour>
      <point x="182" y="-26" type="curve" smooth="yes"/>
      <point x="227" y="-26"/>
      <point x="267" y="-12"/>
      <point x="306" y="19" type="curve"/>
      <point x="284" y="50"/>
      <point x="276" y="83"/>
      <point x="276" y="144" type="curve" smooth="yes"/>
      <point x="276" y="251"/>
      <point x="353" y="564"/>
      <point x="353" y="632" type="curve" smooth="yes"/>
      <point x="353" y="695"/>
      <point x="327" y="726"/>
      <point x="276" y="726" type="curve" smooth="yes"/>
      <point x="215" y="726"/>
      <point x="144" y="701"/>
      <point x="70" y="653" type="curve"/>
      <point x="123" y="546" type="line"/>
      <point x="72" y="253"/>
      <point x="60" y="167"/>
      <point x="60" y="109" type="curve" smooth="yes"/>
      <point x="60" y="14"/>
      <point x="96" y="-26"/>
    </contour>
    <contour>
      <point x="604" y="-25" type="curve" smooth="yes"/>
      <point x="650" y="-25"/>
      <point x="718" y="1"/>
      <point x="747" y="30" type="curve"/>
      <point x="688" y="71"/>
      <point x="625" y="188"/>
      <point x="571" y="349" type="curve"/>
      <point x="375" y="269" type="line"/>
      <point x="421" y="139" type="line" smooth="yes"/>
      <point x="464" y="17"/>
      <point x="511" y="-25"/>
    </contour>
  </outline>
</glyph>
<glyph name="S" format="2">
  <advance width="729"/>
  <unicode hex="0053"/>
  <anchor x="303" y="0" name="bottom"/>
  <anchor x="428" y="710" name="top"/>
  <outline>
    <contour>
      <point x="321" y="-25" type="curve" smooth="yes"/>
      <point x="480" y="-25"/>
      <point x="664" y="46"/>
      <point x="664" y="203" type="curve" smooth="yes"/>
      <point x="664" y="438"/>
      <point x="293" y="398"/>
      <point x="293" y="507" type="curve" smooth="yes"/>
      <point x="293" y="554"/>
      <point x="355" y="586"/>
      <point x="434" y="594" type="curve"/>
      <point x="465" y="521"/>
      <point x="522" y="486"/>
      <point x="586" y="486" type="curve" smooth="yes"/>
      <point x="652" y="486"/>
      <point x="709" y="525"/>
      <point x="709" y="595" type="curve" smooth="yes"/>
      <point x="709" y="672"/>
      <point x="611" y="726"/>
      <point x="452" y="726" type="curve" smooth="yes"/>
      <point x="248" y="726"/>
      <point x="75" y="649"/>
      <point x="75" y="482" type="curve" smooth="yes"/>
      <point x="75" y="241"/>
      <point x="446" y="272"/>
      <point x="446" y="167" type="curve" smooth="yes"/>
      <point x="446" y="114"/>
      <point x="384" y="91"/>
      <point x="310" y="91" type="curve" smooth="yes"/>
      <point x="204" y="91"/>
      <point x="135" y="144"/>
      <point x="84" y="216" type="curve"/>
      <point x="53" y="189"/>
      <point x="35" y="147"/>
      <point x="35" y="112" type="curve" smooth="yes"/>
      <point x="35" y="32"/>
      <point x="118" y="-25"/>
    </contour>
  </outline>
</glyph>
<glyph name="T" format="2">
  <advance width="644"/>
  <unicode hex="0054"/>
  <anchor x="271" y="0" name="bottom"/>
  <anchor x="312" y="305" name="center"/>
  <anchor x="386" y="710" name="top"/>
  <outline>
    <contour>
      <point x="297" y="-26" type="curve" smooth="yes"/>
      <point x="340" y="-26"/>
      <point x="380" y="-12"/>
      <point x="421" y="19" type="curve"/>
      <point x="401" y="51"/>
      <point x="391" y="96"/>
      <point x="391" y="164" type="curve" smooth="yes"/>
      <point x="391" y="223"/>
      <point x="433" y="419"/>
      <point x="460" y="564" type="curve"/>
      <point x="249" y="606" type="line"/>
      <point x="202" y="353"/>
      <point x="175" y="205"/>
      <point x="175" y="129" type="curve" smooth="yes"/>
      <point x="175" y="25"/>
      <point x="207" y="-26"/>
    </contour>
    <contour>
      <point x="515" y="485" type="curve" smooth="yes"/>
      <point x="607" y="485"/>
      <point x="664" y="536"/>
      <point x="664" y="618" type="curve" smooth="yes"/>
      <point x="664" y="655"/>
      <point x="657" y="687"/>
      <point x="646" y="713" type="curve"/>
      <point x="494" y="674" type="line"/>
      <point x="388" y="677"/>
      <point x="291" y="715"/>
      <point x="189" y="715" type="curve" smooth="yes"/>
      <point x="97" y="715"/>
      <point x="40" y="664"/>
      <point x="40" y="582" type="curve" smooth="yes"/>
      <point x="40" y="545"/>
      <point x="47" y="513"/>
      <point x="58" y="487" type="curve"/>
      <point x="210" y="526" type="line"/>
      <point x="316" y="523"/>
      <point x="413" y="485"/>
    </contour>
  </outline>
</glyph>
<glyph name="U" format="2">
  <advance width="811"/>
  <unicode hex="0055"/>
  <anchor x="353" y="0" name="bottom"/>
  <anchor x="744" y="19" name="ogonek"/>
  <anchor x="465" y="710" name="top"/>
  <anchor x="806" y="706" name="topright"/>
  <outline>
    <contour>
      <point x="620" y="-26" type="curve" smooth="yes"/>
      <point x="667" y="-26"/>
      <point x="707" y="-12"/>
      <point x="744" y="19" type="curve"/>
      <point x="723" y="49"/>
      <point x="714" y="95"/>
      <point x="714" y="164" type="curve" smooth="yes"/>
      <point x="714" y="285"/>
      <point x="765" y="553"/>
      <point x="806" y="706" type="curve"/>
      <point x="780" y="718"/>
      <point x="748" y="725"/>
      <point x="713" y="725" type="curve" smooth="yes"/>
      <point x="584" y="725"/>
      <point x="492" y="611"/>
      <point x="492" y="451" type="curve" smooth="yes"/>
      <point x="492" y="404"/>
      <point x="499" y="360"/>
      <point x="514" y="321" type="curve"/>
      <point x="472" y="205"/>
      <point x="404" y="130"/>
      <point x="340" y="130" type="curve" smooth="yes"/>
      <point x="300" y="130"/>
      <point x="281" y="155"/>
      <point x="281" y="209" type="curve" smooth="yes"/>
      <point x="281" y="268"/>
      <point x="353" y="581"/>
      <point x="353" y="632" type="curve" smooth="yes"/>
      <point x="353" y="696"/>
      <point x="329" y="725"/>
      <point x="276" y="725" type="curve" smooth="yes"/>
      <point x="216" y="725"/>
      <point x="162" y="706"/>
      <point x="70" y="653" type="curve"/>
      <point x="123" y="546" type="line"/>
      <point x="72" y="256"/>
      <point x="64" y="206"/>
      <point x="64" y="155" type="curve" smooth="yes"/>
      <point x="64" y="36"/>
      <point x="118" y="-25"/>
      <point x="225" y="-25" type="curve" smooth="yes"/>
      <point x="337" y="-25"/>
      <point x="442" y="48"/>
      <point x="504" y="170" type="curve"/>
      <point x="514" y="171" type="line"/>
      <point x="507" y="149"/>
      <point x="504" y="124"/>
      <point x="504" y="95" type="curve" smooth="yes"/>
      <point x="504" y="16"/>
      <point x="545" y="-26"/>
    </contour>
  </outline>
</glyph>
<glyph name="V" format="2">
  <advance width="727"/>
  <unicode hex="0056"/>
  <outline>
    <contour>
      <point x="284" y="-30" type="curve" smooth="yes"/>
      <point x="369" y="-30"/>
      <point x="477" y="9"/>
      <point x="538" y="64" type="curve"/>
      <point x="523" y="120" type="line"/>
      <point x="682" y="431"/>
      <point x="727" y="547"/>
      <point x="727" y="628" type="curve" smooth="yes"/>
      <point x="727" y="692"/>
      <point x="695" y="726"/>
      <point x="634" y="726" type="curve" smooth="yes"/>
      <point x="588" y="726"/>
      <point x="532" y="709"/>
      <point x="493" y="681" type="curve"/>
      <point x="509" y="651"/>
      <point x="515" y="622"/>
      <point x="515" y="587" type="curve" smooth="yes"/>
      <point x="515" y="510"/>
      <point x="448" y="339"/>
      <point x="300" y="104" type="curve"/>
      <point x="288" y="104" type="line"/>
      <point x="291" y="167"/>
      <point x="294" y="270"/>
      <point x="294" y="405" type="curve" smooth="yes"/>
      <point x="294" y="651"/>
      <point x="241" y="726"/>
      <point x="145" y="726" type="curve" smooth="yes"/>
      <point x="100" y="726"/>
      <point x="59" y="711"/>
      <point x="20" y="681" type="curve"/>
      <point x="101" y="593"/>
      <point x="85" y="424"/>
      <point x="85" y="226" type="curve" smooth="yes"/>
      <point x="85" y="40"/>
      <point x="141" y="-30"/>
    </contour>
  </outline>
</glyph>
<glyph name="W" format="2">
  <advance width="1061"/>
  <unicode hex="0057"/>
  <anchor x="460" y="0" name="bottom"/>
  <anchor x="585" y="710" name="top"/>
  <outline>
    <contour>
      <point x="240" y="-30" type="curve" smooth="yes"/>
      <point x="364" y="-30"/>
      <point x="432" y="51"/>
      <point x="522" y="199" type="curve" smooth="yes"/>
      <point x="599" y="328"/>
      <point x="661" y="480"/>
      <point x="661" y="584" type="curve" smooth="yes"/>
      <point x="661" y="654"/>
      <point x="627" y="690"/>
      <point x="564" y="690" type="curve" smooth="yes"/>
      <point x="533" y="690"/>
      <point x="499" y="675"/>
      <point x="471" y="650" type="curve"/>
      <point x="489" y="615"/>
      <point x="514" y="575"/>
      <point x="514" y="535" type="curve" smooth="yes"/>
      <point x="514" y="484"/>
      <point x="471" y="283"/>
      <point x="309" y="104" type="curve"/>
      <point x="297" y="104" type="line"/>
      <point x="297" y="167"/>
      <point x="299" y="270"/>
      <point x="299" y="405" type="curve" smooth="yes"/>
      <point x="299" y="651"/>
      <point x="248" y="726"/>
      <point x="147" y="726" type="curve" smooth="yes"/>
      <point x="101" y="726"/>
      <point x="59" y="711"/>
      <point x="20" y="681" type="curve"/>
      <point x="107" y="587"/>
      <point x="90" y="407"/>
      <point x="90" y="197" type="curve" smooth="yes"/>
      <point x="90" y="33"/>
      <point x="131" y="-30"/>
    </contour>
    <contour>
      <point x="666" y="-30" type="curve" smooth="yes"/>
      <point x="740" y="-30"/>
      <point x="831" y="9"/>
      <point x="882" y="64" type="curve"/>
      <point x="857" y="120" type="line"/>
      <point x="1013" y="431"/>
      <point x="1061" y="547"/>
      <point x="1061" y="628" type="curve" smooth="yes"/>
      <point x="1061" y="692"/>
      <point x="1028" y="726"/>
      <point x="966" y="726" type="curve" smooth="yes"/>
      <point x="919" y="726"/>
      <point x="864" y="709"/>
      <point x="824" y="681" type="curve"/>
      <point x="840" y="651"/>
      <point x="848" y="622"/>
      <point x="848" y="587" type="curve" smooth="yes"/>
      <point x="848" y="510"/>
      <point x="784" y="339"/>
      <point x="644" y="104" type="curve"/>
      <point x="632" y="104" type="line"/>
      <point x="606" y="619" type="line"/>
      <point x="564" y="690" type="line"/>
      <point x="539" y="690"/>
      <point x="500" y="681"/>
      <point x="461" y="650" type="curve"/>
      <point x="498" y="202" type="line" smooth="yes"/>
      <point x="511" y="43"/>
      <point x="544" y="-30"/>
    </contour>
  </outline>
</glyph>
<glyph name="X" format="2">
  <advance width="800"/>
  <unicode hex="0058"/>
  <outline>
    <contour>
      <point x="586" y="-30" type="curve" smooth="yes"/>
      <point x="657" y="-30"/>
      <point x="715" y="4"/>
      <point x="758" y="70" type="curve"/>
      <point x="675" y="103"/>
      <point x="630" y="161"/>
      <point x="591" y="235" type="curve" smooth="yes"/>
      <point x="404" y="586" type="line" smooth="yes"/>
      <point x="347" y="692"/>
      <point x="308" y="725"/>
      <point x="238" y="725" type="curve" smooth="yes"/>
      <point x="167" y="725"/>
      <point x="109" y="691"/>
      <point x="65" y="624" type="curve"/>
      <point x="148" y="592"/>
      <point x="193" y="534"/>
      <point x="232" y="460" type="curve" smooth="yes"/>
      <point x="420" y="108" type="line" smooth="yes"/>
      <point x="476" y="2"/>
      <point x="516" y="-30"/>
    </contour>
    <contour>
      <point x="115" y="-30" type="curve" smooth="yes"/>
      <point x="160" y="-30"/>
      <point x="207" y="-14"/>
      <point x="254" y="15" type="curve"/>
      <point x="248" y="30"/>
      <point x="244" y="46"/>
      <point x="244" y="68" type="curve" smooth="yes"/>
      <point x="244" y="129"/>
      <point x="302" y="203"/>
      <point x="419" y="281" type="curve"/>
      <point x="352" y="399" type="line"/>
      <point x="228" y="318" type="line" smooth="yes"/>
      <point x="78" y="220"/>
      <point x="16" y="149"/>
      <point x="16" y="75" type="curve" smooth="yes"/>
      <point x="16" y="12"/>
      <point x="55" y="-30"/>
    </contour>
    <contour>
      <point x="460" y="296" type="line"/>
      <point x="584" y="378" type="line" smooth="yes"/>
      <point x="733" y="476"/>
      <point x="795" y="548"/>
      <point x="795" y="620" type="curve" smooth="yes"/>
      <point x="795" y="684"/>
      <point x="756" y="726"/>
      <point x="697" y="726" type="curve" smooth="yes"/>
      <point x="651" y="726"/>
      <point x="604" y="710"/>
      <point x="558" y="681" type="curve"/>
      <point x="564" y="666"/>
      <point x="567" y="650"/>
      <point x="567" y="628" type="curve" smooth="yes"/>
      <point x="567" y="567"/>
      <point x="510" y="493"/>
      <point x="392" y="415" type="curve"/>
    </contour>
  </outline>
</glyph>
<glyph name="Y" format="2">
  <advance width="841"/>
  <unicode hex="0059"/>
  <anchor x="341" y="-200" name="bottom"/>
  <anchor x="484" y="710" name="top"/>
  <anchor x="20" y="710" name="topleft"/>
  <outline>
    <contour>
      <point x="121" y="-242" type="curve" smooth="yes"/>
      <point x="547" y="-242"/>
      <point x="806" y="334"/>
      <point x="806" y="630" type="curve"/>
      <point x="806" y="694"/>
      <point x="775" y="726"/>
      <point x="714" y="726" type="curve" smooth="yes"/>
      <point x="668" y="726"/>
      <point x="612" y="709"/>
      <point x="573" y="681" type="curve"/>
      <point x="589" y="651"/>
      <point x="595" y="622"/>
      <point x="595" y="587" type="curve" smooth="yes"/>
      <point x="595" y="144"/>
      <point x="298" y="-85"/>
      <point x="130" y="-85" type="curve" smooth="yes"/>
      <point x="47" y="-85"/>
      <point x="3" y="-49"/>
      <point x="-21" y="-12" type="curve"/>
      <point x="-45" y="-31"/>
      <point x="-70" y="-72"/>
      <point x="-70" y="-113" type="curve" smooth="yes"/>
      <point x="-70" y="-194"/>
      <point x="-6" y="-242"/>
    </contour>
    <contour>
      <point x="356" y="-30" type="curve"/>
      <point x="468" y="53" type="line"/>
      <point x="206" y="53"/>
      <point x="492" y="726"/>
      <point x="190" y="726" type="curve" smooth="yes"/>
      <point x="145" y="726"/>
      <point x="103" y="711"/>
      <point x="65" y="681" type="curve"/>
      <point x="230" y="527"/>
      <point x="-9" y="-30"/>
    </contour>
  </outline>
</glyph>
<glyph name="Z" format="2">
  <advance width="716"/>
  <unicode hex="005A"/>
  <anchor x="296" y="0" name="bottom"/>
  <anchor x="421" y="710" name="top"/>
  <outline>
    <contour>
      <point x="294" y="104" type="line"/>
      <point x="651" y="564" type="line"/>
      <point x="405" y="534" type="line"/>
      <point x="96" y="143" type="line"/>
    </contour>
    <contour>
      <point x="497" y="-30" type="curve" smooth="yes"/>
      <point x="596" y="-30"/>
      <point x="673" y="29"/>
      <point x="673" y="104" type="curve" smooth="yes"/>
      <point x="673" y="137"/>
      <point x="665" y="169"/>
      <point x="648" y="211" type="curve"/>
      <point x="497" y="146" type="line"/>
      <point x="413" y="146"/>
      <point x="252" y="219"/>
      <point x="176" y="219" type="curve" smooth="yes"/>
      <point x="81" y="218"/>
      <point x="15" y="161"/>
      <point x="15" y="81" type="curve" smooth="yes"/>
      <point x="15" y="21"/>
      <point x="56" y="-22"/>
      <point x="115" y="-22" type="curve" smooth="yes"/>
      <point x="160" y="-22"/>
      <point x="196" y="-7"/>
      <point x="242" y="30" type="curve"/>
      <point x="328" y="-2"/>
      <point x="403" y="-30"/>
    </contour>
    <contour>
      <point x="411" y="480" type="curve" smooth="yes"/>
      <point x="593" y="480"/>
      <point x="701" y="534"/>
      <point x="701" y="626" type="curve" smooth="yes"/>
      <point x="701" y="689"/>
      <point x="662" y="726"/>
      <point x="597" y="726" type="curve" smooth="yes"/>
      <point x="546" y="726"/>
      <point x="501" y="698"/>
      <point x="461" y="641" type="curve"/>
      <point x="381" y="645"/>
      <point x="217" y="688"/>
      <point x="111" y="732" type="curve"/>
      <point x="99" y="697"/>
      <point x="93" y="663"/>
      <point x="93" y="635" type="curve" smooth="yes"/>
      <point x="93" y="523"/>
      <point x="181" y="480"/>
    </contour>
  </outline>
</glyph>
<glyph name="bracketleft" format="2">
  <advance width="455"/>
  <unicode hex="005B"/>
  <outline>
    <contour>
      <point x="229" y="-157" type="curve" smooth="yes"/>
      <point x="349" y="-157"/>
      <point x="389" y="-120"/>
      <point x="389" y="-58" type="curve" smooth="yes"/>
      <point x="389" y="-48"/>
      <point x="386" y="-23"/>
      <point x="381" y="-6" type="curve"/>
      <point x="361" y="-15"/>
      <point x="290" y="-25"/>
      <point x="255" y="-25" type="curve"/>
      <point x="255" y="206"/>
      <point x="296" y="502"/>
      <point x="360" y="668" type="curve"/>
      <point x="395" y="668"/>
      <point x="470" y="658"/>
      <point x="490" y="649" type="curve"/>
      <point x="495" y="666"/>
      <point x="495" y="691"/>
      <point x="495" y="701" type="curve" smooth="yes"/>
      <point x="495" y="763"/>
      <point x="476" y="800"/>
      <point x="381" y="800" type="curve" smooth="yes"/>
      <point x="253" y="800"/>
      <point x="186" y="758"/>
      <point x="147" y="584" type="curve" smooth="yes"/>
      <point x="95" y="354"/>
      <point x="69" y="187"/>
      <point x="69" y="15" type="curve" smooth="yes"/>
      <point x="69" y="-112"/>
      <point x="126" y="-157"/>
    </contour>
  </outline>
</glyph>
<glyph name="asciicircum" format="2">
  <advance width="681"/>
  <unicode hex="005E"/>
  <outline>
    <contour>
      <point x="192" y="451" type="curve" smooth="yes"/>
      <point x="215" y="451"/>
      <point x="237" y="470"/>
      <point x="269" y="517" type="curve" smooth="yes"/>
      <point x="446" y="775" type="line"/>
      <point x="386" y="783" type="line"/>
      <point x="484" y="517" type="line" smooth="yes"/>
      <point x="501" y="470"/>
      <point x="517" y="451"/>
      <point x="540" y="451" type="curve" smooth="yes"/>
      <point x="575" y="451"/>
      <point x="626" y="496"/>
      <point x="659" y="529" type="curve"/>
      <point x="535" y="871" type="line" smooth="yes"/>
      <point x="518" y="918"/>
      <point x="501" y="938"/>
      <point x="478" y="938" type="curve" smooth="yes"/>
      <point x="409" y="938" type="line" smooth="yes"/>
      <point x="386" y="938"/>
      <point x="363" y="918"/>
      <point x="331" y="871" type="curve" smooth="yes"/>
      <point x="98" y="529" type="line"/>
      <point x="120" y="496"/>
      <point x="157" y="451"/>
    </contour>
  </outline>
</glyph>
<glyph name="a" format="2">
  <advance width="746"/>
  <unicode hex="0061"/>
  <anchor x="322" y="0" name="bottom"/>
  <anchor x="669" y="24" name="ogonek"/>
  <anchor x="424" y="575" name="top"/>
  <outline>
    <contour>
      <point x="227" y="-25" type="curve" smooth="yes"/>
      <point x="314" y="-25"/>
      <point x="389" y="32"/>
      <point x="427" y="128" type="curve"/>
      <point x="437" y="123" type="line"/>
      <point x="435" y="110"/>
      <point x="434" y="98"/>
      <point x="434" y="87" type="curve" smooth="yes"/>
      <point x="434" y="16"/>
      <point x="472" y="-25"/>
      <point x="540" y="-25" type="curve" smooth="yes"/>
      <point x="585" y="-25"/>
      <point x="629" y="-8"/>
      <point x="669" y="24" type="curve"/>
      <point x="649" y="41"/>
      <point x="638" y="73"/>
      <point x="638" y="115" type="curve" smooth="yes"/>
      <point x="638" y="243"/>
      <point x="701" y="426"/>
      <point x="701" y="496" type="curve" smooth="yes"/>
      <point x="701" y="547"/>
      <point x="675" y="575"/>
      <point x="628" y="575" type="curve" smooth="yes"/>
      <point x="575" y="575"/>
      <point x="533" y="554"/>
      <point x="497" y="509" type="curve"/>
      <point x="471" y="261"/>
      <point x="414" y="147"/>
      <point x="316" y="147" type="curve" smooth="yes"/>
      <point x="267" y="147"/>
      <point x="238" y="184"/>
      <point x="238" y="249" type="curve" smooth="yes"/>
      <point x="238" y="391"/>
      <point x="370" y="509"/>
      <point x="530" y="509" type="curve"/>
      <point x="530" y="544"/>
      <point x="526" y="574"/>
      <point x="518" y="592" type="curve"/>
      <point x="495" y="597"/>
      <point x="466" y="600"/>
      <point x="439" y="600" type="curve" smooth="yes"/>
      <point x="202" y="600"/>
      <point x="40" y="442"/>
      <point x="40" y="210" type="curve" smooth="yes"/>
      <point x="40" y="68"/>
      <point x="114" y="-25"/>
    </contour>
  </outline>
</glyph>
<glyph name="b" format="2">
  <advance width="750"/>
  <unicode hex="0062"/>
  <outline>
    <contour>
      <point x="272" y="-25" type="curve" smooth="yes"/>
      <point x="533" y="-25"/>
      <point x="711" y="133"/>
      <point x="711" y="365" type="curve" smooth="yes"/>
      <point x="711" y="507"/>
      <point x="637" y="600"/>
      <point x="524" y="600" type="curve" smooth="yes"/>
      <point x="437" y="600"/>
      <point x="362" y="543"/>
      <point x="324" y="447" type="curve"/>
      <point x="314" y="452" type="line"/>
      <point x="338" y="560"/>
      <point x="364" y="652"/>
      <point x="364" y="703" type="curve" smooth="yes"/>
      <point x="364" y="753"/>
      <point x="342" y="774"/>
      <point x="279" y="774" type="curve" smooth="yes"/>
      <point x="218" y="774"/>
      <point x="148" y="742"/>
      <point x="92" y="701" type="curve"/>
      <point x="148" y="621" type="line"/>
      <point x="93" y="306"/>
      <point x="79" y="213"/>
      <point x="79" y="160" type="curve" smooth="yes"/>
      <point x="79" y="40"/>
      <point x="125" y="-25"/>
    </contour>
    <contour>
      <point x="254" y="78" type="curve"/>
      <point x="254" y="292"/>
      <point x="337" y="428"/>
      <point x="435" y="428" type="curve" smooth="yes"/>
      <point x="484" y="428"/>
      <point x="513" y="391"/>
      <point x="513" y="326" type="curve" smooth="yes"/>
      <point x="513" y="199"/>
      <point x="399" y="92"/>
    </contour>
  </outline>
</glyph>
<glyph name="c" format="2">
  <advance width="638"/>
  <unicode hex="0063"/>
  <anchor x="300" y="0" name="bottom"/>
  <anchor x="412" y="575" name="top"/>
  <outline>
    <contour>
      <point x="323" y="-25" type="curve" smooth="yes"/>
      <point x="473" y="-25"/>
      <point x="592" y="48"/>
      <point x="592" y="141" type="curve" smooth="yes"/>
      <point x="592" y="197"/>
      <point x="549" y="227"/>
      <point x="469" y="227" type="curve"/>
      <point x="466" y="144"/>
      <point x="408" y="78"/>
      <point x="338" y="78" type="curve" smooth="yes"/>
      <point x="278" y="78"/>
      <point x="243" y="135"/>
      <point x="243" y="233" type="curve" smooth="yes"/>
      <point x="243" y="344"/>
      <point x="302" y="449"/>
      <point x="379" y="477" type="curve"/>
      <point x="406" y="420"/>
      <point x="456" y="385"/>
      <point x="513" y="385" type="curve" smooth="yes"/>
      <point x="574" y="385"/>
      <point x="617" y="426"/>
      <point x="617" y="483" type="curve" smooth="yes"/>
      <point x="617" y="554"/>
      <point x="543" y="600"/>
      <point x="429" y="600" type="curve" smooth="yes"/>
      <point x="205" y="600"/>
      <point x="45" y="448"/>
      <point x="45" y="235" type="curve" smooth="yes"/>
      <point x="45" y="72"/>
      <point x="149" y="-25"/>
    </contour>
  </outline>
</glyph>
<glyph name="d" format="2">
  <advance width="751"/>
  <unicode hex="0064"/>
  <anchor x="309" y="0" name="bottom"/>
  <anchor x="617" y="612" name="center"/>
  <anchor x="410" y="575" name="top"/>
  <anchor x="711" y="575" name="topright"/>
  <outline>
    <contour>
      <point x="226" y="-25" type="curve" smooth="yes"/>
      <point x="313" y="-25"/>
      <point x="387" y="32"/>
      <point x="425" y="128" type="curve"/>
      <point x="446" y="119" type="line"/>
      <point x="453" y="262" type="line"/>
      <point x="420" y="191"/>
      <point x="367" y="147"/>
      <point x="315" y="147" type="curve" smooth="yes"/>
      <point x="266" y="147"/>
      <point x="237" y="184"/>
      <point x="237" y="249" type="curve" smooth="yes"/>
      <point x="237" y="379"/>
      <point x="369" y="484"/>
      <point x="529" y="484" type="curve"/>
      <point x="529" y="515"/>
      <point x="525" y="545"/>
      <point x="517" y="567" type="curve"/>
      <point x="494" y="572"/>
      <point x="465" y="575"/>
      <point x="438" y="575" type="curve" smooth="yes"/>
      <point x="201" y="575"/>
      <point x="39" y="427"/>
      <point x="39" y="210" type="curve" smooth="yes"/>
      <point x="39" y="68"/>
      <point x="113" y="-25"/>
    </contour>
    <contour>
      <point x="549" y="-25" type="curve" smooth="yes"/>
      <point x="587" y="-25"/>
      <point x="636" y="-9"/>
      <point x="673" y="24" type="curve"/>
      <point x="655" y="46"/>
      <point x="642" y="65"/>
      <point x="642" y="132" type="curve" smooth="yes"/>
      <point x="642" y="357"/>
      <point x="731" y="605"/>
      <point x="731" y="704" type="curve" smooth="yes"/>
      <point x="731" y="754"/>
      <point x="709" y="775"/>
      <point x="646" y="775" type="curve" smooth="yes"/>
      <point x="585" y="775"/>
      <point x="515" y="743"/>
      <point x="459" y="702" type="curve"/>
      <point x="515" y="622" type="line"/>
      <point x="489" y="472"/>
      <point x="436" y="195"/>
      <point x="436" y="119" type="curve" smooth="yes"/>
      <point x="436" y="22"/>
      <point x="468" y="-25"/>
    </contour>
  </outline>
</glyph>
<glyph name="e" format="2">
  <advance width="661"/>
  <unicode hex="0065"/>
  <anchor x="318" y="0" name="bottom"/>
  <anchor x="453" y="0" name="ogonek"/>
  <anchor x="420" y="575" name="top"/>
  <outline>
    <contour>
      <point x="308" y="-25" type="curve" smooth="yes"/>
      <point x="456" y="-25"/>
      <point x="572" y="42"/>
      <point x="572" y="128" type="curve" smooth="yes"/>
      <point x="572" y="184"/>
      <point x="529" y="214"/>
      <point x="449" y="214" type="curve"/>
      <point x="446" y="132"/>
      <point x="398" y="78"/>
      <point x="330" y="78" type="curve" smooth="yes"/>
      <point x="274" y="78"/>
      <point x="241" y="132"/>
      <point x="241" y="223" type="curve" smooth="yes"/>
      <point x="241" y="359"/>
      <point x="318" y="483"/>
      <point x="403" y="483" type="curve" smooth="yes"/>
      <point x="435" y="483"/>
      <point x="457" y="463"/>
      <point x="457" y="434" type="curve" smooth="yes"/>
      <point x="457" y="360"/>
      <point x="377" y="314"/>
      <point x="235" y="306" type="curve"/>
      <point x="222" y="232" type="line"/>
      <point x="475" y="227"/>
      <point x="630" y="312"/>
      <point x="630" y="455" type="curve" smooth="yes"/>
      <point x="630" y="547"/>
      <point x="559" y="600"/>
      <point x="437" y="600" type="curve" smooth="yes"/>
      <point x="210" y="600"/>
      <point x="43" y="441"/>
      <point x="43" y="225" type="curve" smooth="yes"/>
      <point x="43" y="68"/>
      <point x="142" y="-25"/>
    </contour>
  </outline>
</glyph>
<glyph name="f" format="2">
  <advance width="439"/>
  <unicode hex="0066"/>
  <outline>
    <contour>
      <point x="182" y="-200" type="curve" smooth="yes"/>
      <point x="222" y="-200"/>
      <point x="263" y="-184"/>
      <point x="312" y="-151" type="curve"/>
      <point x="292" y="-134"/>
      <point x="281" y="-102"/>
      <point x="281" y="-60" type="curve" smooth="yes"/>
      <point x="281" y="16"/>
      <point x="310" y="208"/>
      <point x="349" y="379" type="curve"/>
      <point x="274" y="590" type="line"/>
      <point x="288" y="600" type="line"/>
      <point x="311" y="585"/>
      <point x="338" y="577"/>
      <point x="367" y="577" type="curve" smooth="yes"/>
      <point x="433" y="577"/>
      <point x="479" y="619"/>
      <point x="479" y="680" type="curve" smooth="yes"/>
      <point x="479" y="741"/>
      <point x="425" y="787"/>
      <point x="353" y="787" type="curve" smooth="yes"/>
      <point x="223" y="787"/>
      <point x="151" y="693"/>
      <point x="151" y="544" type="curve" smooth="yes"/>
      <point x="151" y="513"/>
      <point x="154" y="481"/>
      <point x="160" y="446" type="curve"/>
      <point x="100" y="153"/>
      <point x="70" y="-15"/>
      <point x="70" y="-82" type="curve" smooth="yes"/>
      <point x="70" y="-157"/>
      <point x="111" y="-200"/>
    </contour>
    <contour>
      <point x="67" y="317" type="curve"/>
      <point x="131" y="341"/>
      <point x="223" y="355"/>
      <point x="310" y="355" type="curve" smooth="yes"/>
      <point x="382" y="355"/>
      <point x="422" y="390"/>
      <point x="422" y="453" type="curve" smooth="yes"/>
      <point x="422" y="466"/>
      <point x="419" y="485"/>
      <point x="415" y="498" type="curve"/>
      <point x="351" y="474"/>
      <point x="259" y="460"/>
      <point x="172" y="460" type="curve" smooth="yes"/>
      <point x="100" y="460"/>
      <point x="60" y="425"/>
      <point x="60" y="362" type="curve" smooth="yes"/>
      <point x="60" y="349"/>
      <point x="63" y="330"/>
    </contour>
  </outline>
</glyph>
<glyph name="g" format="2">
  <advance width="702"/>
  <unicode hex="0067"/>
  <anchor x="312" y="0" name="bottom"/>
  <anchor x="413" y="575" name="top"/>
  <outline>
    <contour>
      <point x="168" y="-238" type="curve" smooth="yes"/>
      <point x="544" y="-238"/>
      <point x="675" y="156"/>
      <point x="675" y="505" type="curve" smooth="yes"/>
      <point x="675" y="551"/>
      <point x="651" y="576"/>
      <point x="604" y="576" type="curve" smooth="yes"/>
      <point x="550" y="576"/>
      <point x="508" y="555"/>
      <point x="471" y="509" type="curve"/>
      <point x="482" y="29"/>
      <point x="320" y="-89"/>
      <point x="180" y="-89" type="curve" smooth="yes"/>
      <point x="120" y="-89"/>
      <point x="65" y="-66"/>
      <point x="33" y="-15" type="curve"/>
      <point x="-2" y="-35"/>
      <point x="-29" y="-80"/>
      <point x="-29" y="-124" type="curve" smooth="yes"/>
      <point x="-29" y="-197"/>
      <point x="41" y="-238"/>
    </contour>
    <contour>
      <point x="200" y="10" type="curve" smooth="yes"/>
      <point x="291" y="10"/>
      <point x="369" y="63"/>
      <point x="409" y="153" type="curve"/>
      <point x="471" y="153" type="line"/>
      <point x="471" y="509" type="line"/>
      <point x="471" y="216"/>
      <point x="355" y="142"/>
      <point x="289" y="142" type="curve" smooth="yes"/>
      <point x="237" y="142"/>
      <point x="206" y="183"/>
      <point x="206" y="254" type="curve" smooth="yes"/>
      <point x="206" y="395"/>
      <point x="340" y="509"/>
      <point x="503" y="509" type="curve"/>
      <point x="503" y="540"/>
      <point x="499" y="570"/>
      <point x="491" y="592" type="curve"/>
      <point x="468" y="597"/>
      <point x="439" y="600"/>
      <point x="412" y="600" type="curve" smooth="yes"/>
      <point x="172" y="600"/>
      <point x="8" y="452"/>
      <point x="8" y="235" type="curve" smooth="yes"/>
      <point x="8" y="99"/>
      <point x="84" y="10"/>
    </contour>
  </outline>
</glyph>
<glyph name="h" format="2">
  <advance width="763"/>
  <unicode hex="0068"/>
  <anchor x="377" y="0" name="bottom"/>
  <anchor x="249" y="612" name="center"/>
  <anchor x="263" y="725" name="top"/>
  <outline>
    <contour>
      <point x="177" y="-25" type="curve" smooth="yes"/>
      <point x="214" y="-25"/>
      <point x="251" y="-9"/>
      <point x="287" y="24" type="curve"/>
      <point x="274" y="42"/>
      <point x="266" y="75"/>
      <point x="266" y="115" type="curve" smooth="yes"/>
      <point x="266" y="309"/>
      <point x="407" y="443"/>
      <point x="479" y="443" type="curve" smooth="yes"/>
      <point x="504" y="443"/>
      <point x="513" y="427"/>
      <point x="513" y="401" type="curve" smooth="yes"/>
      <point x="513" y="329"/>
      <point x="453" y="210"/>
      <point x="453" y="99" type="curve" smooth="yes"/>
      <point x="453" y="19"/>
      <point x="486" y="-25"/>
      <point x="570" y="-25" type="curve" smooth="yes"/>
      <point x="607" y="-25"/>
      <point x="644" y="-9"/>
      <point x="680" y="24" type="curve"/>
      <point x="667" y="42"/>
      <point x="659" y="75"/>
      <point x="659" y="115" type="curve" smooth="yes"/>
      <point x="659" y="239"/>
      <point x="718" y="371"/>
      <point x="718" y="479" type="curve" smooth="yes"/>
      <point x="718" y="562"/>
      <point x="678" y="600"/>
      <point x="597" y="600" type="curve" smooth="yes"/>
      <point x="495" y="600"/>
      <point x="394" y="535"/>
      <point x="313" y="396" type="curve"/>
      <point x="303" y="401" type="line"/>
      <point x="329" y="530"/>
      <point x="365" y="646"/>
      <point x="365" y="704" type="curve" smooth="yes"/>
      <point x="365" y="754"/>
      <point x="343" y="775"/>
      <point x="280" y="775" type="curve" smooth="yes"/>
      <point x="219" y="775"/>
      <point x="149" y="743"/>
      <point x="93" y="702" type="curve"/>
      <point x="149" y="622" type="line"/>
      <point x="120" y="466"/>
      <point x="60" y="178"/>
      <point x="60" y="99" type="curve" smooth="yes"/>
      <point x="60" y="19"/>
      <point x="93" y="-25"/>
    </contour>
  </outline>
</glyph>
<glyph name="i" format="2">
  <advance width="388"/>
  <unicode hex="0069"/>
  <anchor x="175" y="0" name="bottom"/>
  <anchor x="302" y="24" name="ogonek"/>
  <outline>
    <contour>
      <point x="183" y="-25" type="curve" smooth="yes"/>
      <point x="223" y="-25"/>
      <point x="264" y="-9"/>
      <point x="302" y="24" type="curve"/>
      <point x="281" y="42"/>
      <point x="271" y="75"/>
      <point x="271" y="115" type="curve" smooth="yes"/>
      <point x="271" y="243"/>
      <point x="345" y="476"/>
      <point x="345" y="526" type="curve" smooth="yes"/>
      <point x="345" y="577"/>
      <point x="326" y="600"/>
      <point x="270" y="600" type="curve" smooth="yes"/>
      <point x="206" y="600"/>
      <point x="133" y="567"/>
      <point x="73" y="525" type="curve"/>
      <point x="129" y="441" type="line"/>
      <point x="102" y="324"/>
      <point x="65" y="158"/>
      <point x="65" y="99" type="curve" smooth="yes"/>
      <point x="65" y="19"/>
      <point x="98" y="-25"/>
    </contour>
    <contour>
      <point x="243" y="655" type="curve" smooth="yes"/>
      <point x="314" y="655"/>
      <point x="378" y="699"/>
      <point x="378" y="764" type="curve" smooth="yes"/>
      <point x="378" y="816"/>
      <point x="333" y="847"/>
      <point x="272" y="847" type="curve" smooth="yes"/>
      <point x="215" y="847"/>
      <point x="137" y="811"/>
      <point x="137" y="738" type="curve" smooth="yes"/>
      <point x="137" y="686"/>
      <point x="182" y="655"/>
    </contour>
  </outline>
</glyph>
<glyph name="j" format="2">
  <advance width="397"/>
  <unicode hex="006A"/>
  <outline>
    <contour>
      <point x="46" y="-210" type="curve" smooth="yes"/>
      <point x="165" y="-210"/>
      <point x="230" y="-87"/>
      <point x="255" y="37" type="curve" smooth="yes"/>
      <point x="290" y="210"/>
      <point x="337" y="465"/>
      <point x="337" y="526" type="curve" smooth="yes"/>
      <point x="337" y="577"/>
      <point x="318" y="600"/>
      <point x="262" y="600" type="curve" smooth="yes"/>
      <point x="198" y="600"/>
      <point x="125" y="567"/>
      <point x="65" y="525" type="curve"/>
      <point x="121" y="441" type="line"/>
      <point x="99" y="316"/>
      <point x="67" y="134"/>
      <point x="67" y="105" type="curve" smooth="yes"/>
      <point x="67" y="50"/>
      <point x="77" y="18"/>
      <point x="134" y="-34" type="curve"/>
      <point x="124" y="-48" type="line"/>
      <point x="102" y="-33"/>
      <point x="76" y="-15"/>
      <point x="38" y="-15" type="curve" smooth="yes"/>
      <point x="-29" y="-15"/>
      <point x="-73" y="-52"/>
      <point x="-73" y="-113" type="curve" smooth="yes"/>
      <point x="-73" y="-165"/>
      <point x="-37" y="-210"/>
    </contour>
    <contour>
      <point x="235" y="665" type="curve" smooth="yes"/>
      <point x="306" y="665"/>
      <point x="370" y="704"/>
      <point x="370" y="763" type="curve" smooth="yes"/>
      <point x="370" y="809"/>
      <point x="325" y="837"/>
      <point x="264" y="837" type="curve" smooth="yes"/>
      <point x="207" y="837"/>
      <point x="129" y="805"/>
      <point x="129" y="739" type="curve" smooth="yes"/>
      <point x="129" y="693"/>
      <point x="174" y="665"/>
    </contour>
  </outline>
</glyph>
<glyph name="k" format="2">
  <advance width="729"/>
  <unicode hex="006B"/>
  <anchor x="342" y="0" name="bottom"/>
  <anchor x="443" y="575" name="top"/>
  <outline>
    <contour>
      <point x="228" y="144" type="line"/>
      <point x="484" y="277" type="line" smooth="yes"/>
      <point x="640" y="358"/>
      <point x="705" y="425"/>
      <point x="705" y="504" type="curve" smooth="yes"/>
      <point x="705" y="562"/>
      <point x="664" y="600"/>
      <point x="603" y="600" type="curve" smooth="yes"/>
      <point x="564" y="600"/>
      <point x="523" y="589"/>
      <point x="478" y="567" type="curve"/>
      <point x="485" y="550"/>
      <point x="488" y="534"/>
      <point x="488" y="519" type="curve" smooth="yes"/>
      <point x="488" y="446"/>
      <point x="417" y="389"/>
      <point x="315" y="307" type="curve" smooth="yes"/>
      <point x="234" y="241" type="line"/>
    </contour>
    <contour>
      <point x="183" y="-25" type="curve" smooth="yes"/>
      <point x="221" y="-25"/>
      <point x="270" y="-9"/>
      <point x="307" y="24" type="curve"/>
      <point x="289" y="46"/>
      <point x="276" y="65"/>
      <point x="276" y="132" type="curve" smooth="yes"/>
      <point x="276" y="357"/>
      <point x="365" y="605"/>
      <point x="365" y="704" type="curve" smooth="yes"/>
      <point x="365" y="754"/>
      <point x="343" y="775"/>
      <point x="280" y="775" type="curve" smooth="yes"/>
      <point x="219" y="775"/>
      <point x="149" y="743"/>
      <point x="93" y="702" type="curve"/>
      <point x="149" y="622" type="line"/>
      <point x="123" y="472"/>
      <point x="70" y="195"/>
      <point x="70" y="119" type="curve" smooth="yes"/>
      <point x="70" y="22"/>
      <point x="102" y="-25"/>
    </contour>
    <contour>
      <point x="575" y="-25" type="curve" smooth="yes"/>
      <point x="639" y="-25"/>
      <point x="689" y="6"/>
      <point x="728" y="69" type="curve"/>
      <point x="653" y="99"/>
      <point x="613" y="154"/>
      <point x="587" y="210" type="curve" smooth="yes"/>
      <point x="505" y="361" type="line"/>
      <point x="332" y="257" type="line"/>
      <point x="407" y="118" type="line" smooth="yes"/>
      <point x="461" y="19"/>
      <point x="503" y="-25"/>
    </contour>
  </outline>
</glyph>
<glyph name="l" format="2">
  <advance width="385"/>
  <unicode hex="006C"/>
  <anchor x="165" y="0" name="bottom"/>
  <anchor x="205" y="377" name="center"/>
  <anchor x="260" y="725" name="top"/>
  <anchor x="345" y="575" name="topright"/>
  <outline>
    <contour>
      <point x="183" y="-25" type="curve" smooth="yes"/>
      <point x="221" y="-25"/>
      <point x="270" y="-9"/>
      <point x="307" y="24" type="curve"/>
      <point x="289" y="46"/>
      <point x="276" y="65"/>
      <point x="276" y="132" type="curve" smooth="yes"/>
      <point x="276" y="357"/>
      <point x="365" y="605"/>
      <point x="365" y="704" type="curve" smooth="yes"/>
      <point x="365" y="754"/>
      <point x="343" y="775"/>
      <point x="280" y="775" type="curve" smooth="yes"/>
      <point x="219" y="775"/>
      <point x="149" y="743"/>
      <point x="93" y="702" type="curve"/>
      <point x="149" y="622" type="line"/>
      <point x="123" y="472"/>
      <point x="70" y="195"/>
      <point x="70" y="119" type="curve" smooth="yes"/>
      <point x="70" y="22"/>
      <point x="102" y="-25"/>
    </contour>
  </outline>
</glyph>
<glyph name="m" format="2">
  <advance width="1131"/>
  <unicode hex="006D"/>
  <outline>
    <contour>
      <point x="172" y="-25" type="curve" smooth="yes"/>
      <point x="209" y="-25"/>
      <point x="246" y="-9"/>
      <point x="282" y="24" type="curve"/>
      <point x="269" y="42"/>
      <point x="261" y="75"/>
      <point x="261" y="115" type="curve" smooth="yes"/>
      <point x="261" y="309"/>
      <point x="392" y="443"/>
      <point x="464" y="443" type="curve" smooth="yes"/>
      <point x="489" y="443"/>
      <point x="498" y="426"/>
      <point x="498" y="398" type="curve" smooth="yes"/>
      <point x="498" y="325"/>
      <point x="438" y="211"/>
      <point x="438" y="89" type="curve" smooth="yes"/>
      <point x="438" y="15"/>
      <point x="471" y="-25"/>
      <point x="555" y="-25" type="curve" smooth="yes"/>
      <point x="592" y="-25"/>
      <point x="629" y="-9"/>
      <point x="665" y="24" type="curve"/>
      <point x="652" y="42"/>
      <point x="644" y="75"/>
      <point x="644" y="115" type="curve" smooth="yes"/>
      <point x="644" y="309"/>
      <point x="775" y="443"/>
      <point x="847" y="443" type="curve" smooth="yes"/>
      <point x="872" y="443"/>
      <point x="881" y="426"/>
      <point x="881" y="398" type="curve" smooth="yes"/>
      <point x="881" y="325"/>
      <point x="821" y="211"/>
      <point x="821" y="89" type="curve" smooth="yes"/>
      <point x="821" y="15"/>
      <point x="854" y="-25"/>
      <point x="938" y="-25" type="curve" smooth="yes"/>
      <point x="975" y="-25"/>
      <point x="1012" y="-9"/>
      <point x="1048" y="24" type="curve"/>
      <point x="1035" y="42"/>
      <point x="1027" y="75"/>
      <point x="1027" y="115" type="curve" smooth="yes"/>
      <point x="1027" y="239"/>
      <point x="1086" y="371"/>
      <point x="1086" y="479" type="curve" smooth="yes"/>
      <point x="1086" y="562"/>
      <point x="1046" y="600"/>
      <point x="965" y="600" type="curve" smooth="yes"/>
      <point x="867" y="600"/>
      <point x="781" y="551"/>
      <point x="703" y="417" type="curve"/>
      <point x="693" y="422" type="line"/>
      <point x="700" y="447"/>
      <point x="703" y="469"/>
      <point x="703" y="488" type="curve" smooth="yes"/>
      <point x="703" y="566"/>
      <point x="653" y="600"/>
      <point x="582" y="600" type="curve" smooth="yes"/>
      <point x="484" y="600"/>
      <point x="398" y="551"/>
      <point x="320" y="417" type="curve"/>
      <point x="310" y="422" type="line"/>
      <point x="322" y="449"/>
      <point x="333" y="489"/>
      <point x="333" y="524" type="curve" smooth="yes"/>
      <point x="333" y="571"/>
      <point x="307" y="600"/>
      <point x="251" y="600" type="curve" smooth="yes"/>
      <point x="185" y="600"/>
      <point x="121" y="575"/>
      <point x="66" y="544" type="curve"/>
      <point x="118" y="464" type="line"/>
      <point x="92" y="351"/>
      <point x="55" y="156"/>
      <point x="55" y="99" type="curve" smooth="yes"/>
      <point x="55" y="19"/>
      <point x="88" y="-25"/>
    </contour>
  </outline>
</glyph>
<glyph name="n" format="2">
  <advance width="758"/>
  <unicode hex="006E"/>
  <anchor x="358" y="0" name="bottom"/>
  <anchor x="460" y="575" name="top"/>
  <outline>
    <contour>
      <point x="172" y="-25" type="curve" smooth="yes"/>
      <point x="209" y="-25"/>
      <point x="246" y="-9"/>
      <point x="282" y="24" type="curve"/>
      <point x="269" y="42"/>
      <point x="261" y="75"/>
      <point x="261" y="115" type="curve" smooth="yes"/>
      <point x="261" y="309"/>
      <point x="402" y="443"/>
      <point x="474" y="443" type="curve" smooth="yes"/>
      <point x="499" y="443"/>
      <point x="508" y="427"/>
      <point x="508" y="401" type="curve" smooth="yes"/>
      <point x="508" y="329"/>
      <point x="448" y="210"/>
      <point x="448" y="99" type="curve" smooth="yes"/>
      <point x="448" y="19"/>
      <point x="481" y="-25"/>
      <point x="565" y="-25" type="curve" smooth="yes"/>
      <point x="602" y="-25"/>
      <point x="639" y="-9"/>
      <point x="675" y="24" type="curve"/>
      <point x="662" y="42"/>
      <point x="654" y="75"/>
      <point x="654" y="115" type="curve" smooth="yes"/>
      <point x="654" y="239"/>
      <point x="713" y="371"/>
      <point x="713" y="479" type="curve" smooth="yes"/>
      <point x="713" y="562"/>
      <point x="673" y="600"/>
      <point x="592" y="600" type="curve" smooth="yes"/>
      <point x="494" y="600"/>
      <point x="398" y="551"/>
      <point x="320" y="417" type="curve"/>
      <point x="310" y="422" type="line"/>
      <point x="322" y="449"/>
      <point x="333" y="489"/>
      <point x="333" y="524" type="curve" smooth="yes"/>
      <point x="333" y="571"/>
      <point x="307" y="600"/>
      <point x="251" y="600" type="curve" smooth="yes"/>
      <point x="185" y="600"/>
      <point x="121" y="575"/>
      <point x="66" y="544" type="curve"/>
      <point x="118" y="464" type="line"/>
      <point x="92" y="351"/>
      <point x="55" y="156"/>
      <point x="55" y="99" type="curve" smooth="yes"/>
      <point x="55" y="19"/>
      <point x="88" y="-25"/>
    </contour>
  </outline>
</glyph>
<glyph name="o" format="2">
  <advance width="719"/>
  <unicode hex="006F"/>
  <anchor x="299" y="0" name="bottom"/>
  <anchor x="370" y="288" name="center"/>
  <anchor x="647" y="10" name="ogonek"/>
  <anchor x="401" y="575" name="top"/>
  <anchor x="548" y="524" name="topright"/>
  <outline>
    <contour>
      <point x="319" y="-25" type="curve" smooth="yes"/>
      <point x="520" y="-25"/>
      <point x="679" y="143"/>
      <point x="679" y="357" type="curve" smooth="yes"/>
      <point x="679" y="456"/>
      <point x="626" y="524"/>
      <point x="548" y="524" type="curve" smooth="yes"/>
      <point x="477" y="524"/>
      <point x="420" y="461"/>
      <point x="420" y="379" type="curve" smooth="yes"/>
      <point x="420" y="322"/>
      <point x="445" y="279"/>
      <point x="496" y="251" type="curve"/>
      <point x="483" y="142"/>
      <point x="428" y="78"/>
      <point x="351" y="78" type="curve" smooth="yes"/>
      <point x="286" y="78"/>
      <point x="243" y="123"/>
      <point x="243" y="236" type="curve" smooth="yes"/>
      <point x="243" y="386"/>
      <point x="344" y="509"/>
      <point x="505" y="509" type="curve"/>
      <point x="506" y="540"/>
      <point x="503" y="570"/>
      <point x="496" y="592" type="curve"/>
      <point x="468" y="598"/>
      <point x="447" y="600"/>
      <point x="425" y="600" type="curve" smooth="yes"/>
      <point x="204" y="600"/>
      <point x="45" y="450"/>
      <point x="45" y="238" type="curve" smooth="yes"/>
      <point x="45" y="78"/>
      <point x="151" y="-25"/>
    </contour>
  </outline>
</glyph>
<glyph name="p" format="2">
  <advance width="763"/>
  <unicode hex="0070"/>
  <outline>
    <contour>
      <point x="325" y="0" type="curve" smooth="yes"/>
      <point x="562" y="0"/>
      <point x="724" y="148"/>
      <point x="724" y="365" type="curve" smooth="yes"/>
      <point x="724" y="507"/>
      <point x="650" y="600"/>
      <point x="537" y="600" type="curve" smooth="yes"/>
      <point x="450" y="600"/>
      <point x="376" y="543"/>
      <point x="338" y="447" type="curve"/>
      <point x="256" y="478" type="line"/>
      <point x="258" y="114" type="line"/>
      <point x="293" y="296"/>
      <point x="373" y="428"/>
      <point x="448" y="428" type="curve" smooth="yes"/>
      <point x="497" y="428"/>
      <point x="526" y="391"/>
      <point x="526" y="326" type="curve" smooth="yes"/>
      <point x="526" y="192"/>
      <point x="401" y="91"/>
      <point x="234" y="91" type="curve"/>
      <point x="234" y="58"/>
      <point x="238" y="28"/>
      <point x="246" y="8" type="curve"/>
      <point x="269" y="3"/>
      <point x="298" y="0"/>
    </contour>
    <contour>
      <point x="153" y="-200" type="curve" smooth="yes"/>
      <point x="195" y="-200"/>
      <point x="243" y="-181"/>
      <point x="277" y="-151" type="curve"/>
      <point x="253" y="-122"/>
      <point x="246" y="-97"/>
      <point x="246" y="-43" type="curve" smooth="yes"/>
      <point x="246" y="182"/>
      <point x="335" y="430"/>
      <point x="335" y="529" type="curve" smooth="yes"/>
      <point x="335" y="580"/>
      <point x="311" y="600"/>
      <point x="250" y="600" type="curve" smooth="yes"/>
      <point x="195" y="600"/>
      <point x="126" y="573"/>
      <point x="63" y="527" type="curve"/>
      <point x="119" y="447" type="line"/>
      <point x="75" y="206"/>
      <point x="40" y="-27"/>
      <point x="40" y="-76" type="curve" smooth="yes"/>
      <point x="40" y="-162"/>
      <point x="74" y="-200"/>
    </contour>
  </outline>
</glyph>
<glyph name="q" format="2">
  <advance width="737"/>
  <unicode hex="0071"/>
  <outline>
    <contour>
      <point x="472" y="-199" type="curve" smooth="yes"/>
      <point x="533" y="-199"/>
      <point x="603" y="-167"/>
      <point x="659" y="-126" type="curve"/>
      <point x="603" y="-46" type="line"/>
      <point x="645" y="216"/>
      <point x="701" y="414"/>
      <point x="701" y="496" type="curve" smooth="yes"/>
      <point x="701" y="547"/>
      <point x="675" y="575"/>
      <point x="628" y="575" type="curve" smooth="yes"/>
      <point x="575" y="575"/>
      <point x="533" y="554"/>
      <point x="497" y="509" type="curve"/>
      <point x="497" y="288"/>
      <point x="414" y="147"/>
      <point x="316" y="147" type="curve" smooth="yes"/>
      <point x="267" y="147"/>
      <point x="238" y="184"/>
      <point x="238" y="249" type="curve" smooth="yes"/>
      <point x="238" y="391"/>
      <point x="370" y="509"/>
      <point x="530" y="509" type="curve"/>
      <point x="530" y="544"/>
      <point x="526" y="574"/>
      <point x="518" y="592" type="curve"/>
      <point x="495" y="597"/>
      <point x="466" y="600"/>
      <point x="439" y="600" type="curve" smooth="yes"/>
      <point x="202" y="600"/>
      <point x="40" y="442"/>
      <point x="40" y="210" type="curve" smooth="yes"/>
      <point x="40" y="68"/>
      <point x="114" y="-25"/>
      <point x="227" y="-25" type="curve" smooth="yes"/>
      <point x="314" y="-25"/>
      <point x="389" y="32"/>
      <point x="427" y="128" type="curve"/>
      <point x="437" y="123" type="line"/>
      <point x="413" y="15"/>
      <point x="387" y="-77"/>
      <point x="387" y="-128" type="curve" smooth="yes"/>
      <point x="387" y="-178"/>
      <point x="409" y="-199"/>
    </contour>
  </outline>
</glyph>
<glyph name="r" format="2">
  <advance width="544"/>
  <unicode hex="0072"/>
  <anchor x="103" y="0" name="bottom"/>
  <anchor x="336" y="575" name="top"/>
  <outline>
    <contour>
      <point x="173" y="-25" type="curve" smooth="yes"/>
      <point x="210" y="-25"/>
      <point x="247" y="-9"/>
      <point x="283" y="24" type="curve"/>
      <point x="270" y="42"/>
      <point x="262" y="75"/>
      <point x="262" y="115" type="curve" smooth="yes"/>
      <point x="262" y="265"/>
      <point x="335" y="380"/>
      <point x="431" y="380" type="curve" smooth="yes"/>
      <point x="516" y="380"/>
      <point x="559" y="433"/>
      <point x="559" y="501" type="curve" smooth="yes"/>
      <point x="559" y="561"/>
      <point x="521" y="599"/>
      <point x="459" y="599" type="curve" smooth="yes"/>
      <point x="359" y="599"/>
      <point x="317" y="514"/>
      <point x="271" y="386" type="curve"/>
      <point x="261" y="391" type="line"/>
      <point x="278" y="436"/>
      <point x="293" y="478"/>
      <point x="293" y="524" type="curve" smooth="yes"/>
      <point x="293" y="571"/>
      <point x="267" y="600"/>
      <point x="211" y="600" type="curve" smooth="yes"/>
      <point x="159" y="600"/>
      <point x="111" y="575"/>
      <point x="66" y="544" type="curve"/>
      <point x="119" y="464" type="line"/>
      <point x="87" y="325"/>
      <point x="56" y="147"/>
      <point x="56" y="99" type="curve" smooth="yes"/>
      <point x="56" y="19"/>
      <point x="89" y="-25"/>
    </contour>
  </outline>
</glyph>
<glyph name="s" format="2">
  <advance width="645"/>
  <unicode hex="0073"/>
  <anchor x="278" y="0" name="bottom"/>
  <anchor x="370" y="575" name="top"/>
  <outline>
    <contour>
      <point x="281" y="-25" type="curve" smooth="yes"/>
      <point x="399" y="-25"/>
      <point x="574" y="26"/>
      <point x="574" y="170" type="curve" smooth="yes"/>
      <point x="574" y="369"/>
      <point x="265" y="332"/>
      <point x="265" y="417" type="curve" smooth="yes"/>
      <point x="265" y="457"/>
      <point x="315" y="482"/>
      <point x="367" y="487" type="curve"/>
      <point x="396" y="417"/>
      <point x="449" y="385"/>
      <point x="502" y="385" type="curve" smooth="yes"/>
      <point x="559" y="385"/>
      <point x="611" y="420"/>
      <point x="611" y="482" type="curve" smooth="yes"/>
      <point x="611" y="551"/>
      <point x="527" y="600"/>
      <point x="384" y="600" type="curve" smooth="yes"/>
      <point x="217" y="600"/>
      <point x="64" y="542"/>
      <point x="64" y="393" type="curve" smooth="yes"/>
      <point x="64" y="205"/>
      <point x="373" y="228"/>
      <point x="373" y="157" type="curve" smooth="yes"/>
      <point x="373" y="114"/>
      <point x="303" y="97"/>
      <point x="270" y="97" type="curve" smooth="yes"/>
      <point x="182" y="97"/>
      <point x="124" y="138"/>
      <point x="89" y="201" type="curve"/>
      <point x="52" y="173"/>
      <point x="32" y="132"/>
      <point x="32" y="99" type="curve" smooth="yes"/>
      <point x="32" y="29"/>
      <point x="96" y="-25"/>
    </contour>
  </outline>
</glyph>
<glyph name="t" format="2">
  <advance width="464"/>
  <unicode hex="0074"/>
  <anchor x="279" y="488" name="_center"/>
  <anchor x="202" y="0" name="bottom"/>
  <anchor x="232" y="257" name="center"/>
  <anchor x="232" y="575" name="top"/>
  <anchor x="464" y="575" name="topright"/>
  <outline>
    <contour>
      <point x="216" y="-25" type="curve" smooth="yes"/>
      <point x="264" y="-25"/>
      <point x="319" y="-4"/>
      <point x="364" y="38" type="curve"/>
      <point x="308" y="132" type="line"/>
      <point x="314" y="355"/>
      <point x="408" y="554"/>
      <point x="408" y="621" type="curve" smooth="yes"/>
      <point x="408" y="675"/>
      <point x="388" y="698"/>
      <point x="332" y="698" type="curve" smooth="yes"/>
      <point x="264" y="698"/>
      <point x="200" y="666"/>
      <point x="153" y="625" type="curve"/>
      <point x="172" y="579"/>
      <point x="177" y="539"/>
      <point x="177" y="508" type="curve" smooth="yes"/>
      <point x="177" y="442"/>
      <point x="101" y="227"/>
      <point x="101" y="102" type="curve" smooth="yes"/>
      <point x="101" y="-4"/>
      <point x="154" y="-25"/>
    </contour>
    <contour>
      <point x="138" y="424" type="curve" smooth="yes"/>
      <point x="217" y="424"/>
      <point x="295" y="445"/>
      <point x="379" y="445" type="curve" smooth="yes"/>
      <point x="412" y="445"/>
      <point x="446" y="440"/>
      <point x="473" y="431" type="curve"/>
      <point x="483" y="456"/>
      <point x="489" y="480"/>
      <point x="489" y="499" type="curve" smooth="yes"/>
      <point x="489" y="541"/>
      <point x="474" y="553"/>
      <point x="420" y="553" type="curve" smooth="yes"/>
      <point x="341" y="553"/>
      <point x="263" y="532"/>
      <point x="179" y="532" type="curve" smooth="yes"/>
      <point x="146" y="532"/>
      <point x="112" y="537"/>
      <point x="85" y="545" type="curve"/>
      <point x="75" y="521"/>
      <point x="69" y="497"/>
      <point x="69" y="477" type="curve" smooth="yes"/>
      <point x="69" y="436"/>
      <point x="84" y="424"/>
    </contour>
  </outline>
</glyph>
<glyph name="u" format="2">
  <advance width="764"/>
  <unicode hex="0075"/>
  <anchor x="331" y="0" name="bottom"/>
  <anchor x="681" y="24" name="ogonek"/>
  <anchor x="433" y="575" name="top"/>
  <anchor x="649" y="600" name="topright"/>
  <outline>
    <contour>
      <point x="218" y="-25" type="curve" smooth="yes"/>
      <point x="308" y="-25"/>
      <point x="382" y="15"/>
      <point x="435" y="78" type="curve"/>
      <point x="490" y="51" type="line"/>
      <point x="475" y="210" type="line"/>
      <point x="442" y="143"/>
      <point x="380" y="97"/>
      <point x="324" y="97" type="curve" smooth="yes"/>
      <point x="277" y="97"/>
      <point x="257" y="120"/>
      <point x="257" y="172" type="curve" smooth="yes"/>
      <point x="257" y="237"/>
      <point x="318" y="459"/>
      <point x="318" y="529" type="curve" smooth="yes"/>
      <point x="318" y="579"/>
      <point x="295" y="600"/>
      <point x="240" y="600" type="curve" smooth="yes"/>
      <point x="204" y="600"/>
      <point x="138" y="580"/>
      <point x="83" y="551" type="curve"/>
      <point x="96" y="533"/>
      <point x="104" y="499"/>
      <point x="104" y="460" type="curve" smooth="yes"/>
      <point x="104" y="375"/>
      <point x="60" y="242"/>
      <point x="60" y="137" type="curve" smooth="yes"/>
      <point x="60" y="27"/>
      <point x="111" y="-25"/>
    </contour>
    <contour>
      <point x="562" y="-25" type="curve" smooth="yes"/>
      <point x="603" y="-25"/>
      <point x="644" y="-8"/>
      <point x="681" y="24" type="curve"/>
      <point x="661" y="41"/>
      <point x="650" y="73"/>
      <point x="650" y="115" type="curve" smooth="yes"/>
      <point x="650" y="243"/>
      <point x="724" y="476"/>
      <point x="724" y="526" type="curve" smooth="yes"/>
      <point x="724" y="579"/>
      <point x="703" y="600"/>
      <point x="649" y="600" type="curve" smooth="yes"/>
      <point x="598" y="600"/>
      <point x="544" y="580"/>
      <point x="452" y="525" type="curve"/>
      <point x="508" y="441" type="line"/>
      <point x="466" y="260"/>
      <point x="444" y="143"/>
      <point x="444" y="99" type="curve" smooth="yes"/>
      <point x="444" y="14"/>
      <point x="481" y="-25"/>
    </contour>
  </outline>
</glyph>
<glyph name="v" format="2">
  <advance width="703"/>
  <unicode hex="0076"/>
  <outline>
    <contour>
      <point x="282" y="-25" type="curve" smooth="yes"/>
      <point x="365" y="-25"/>
      <point x="469" y="14"/>
      <point x="530" y="69" type="curve"/>
      <point x="507" y="122" type="line"/>
      <point x="647" y="385"/>
      <point x="678" y="455"/>
      <point x="678" y="516" type="curve" smooth="yes"/>
      <point x="678" y="572"/>
      <point x="648" y="600"/>
      <point x="590" y="600" type="curve" smooth="yes"/>
      <point x="545" y="600"/>
      <point x="489" y="582"/>
      <point x="456" y="557" type="curve"/>
      <point x="469" y="532"/>
      <point x="475" y="509"/>
      <point x="475" y="482" type="curve" smooth="yes"/>
      <point x="475" y="421"/>
      <point x="418" y="276"/>
      <point x="299" y="97" type="curve"/>
      <point x="289" y="97" type="line"/>
      <point x="292" y="161"/>
      <point x="294" y="271"/>
      <point x="294" y="354" type="curve" smooth="yes"/>
      <point x="294" y="545"/>
      <point x="243" y="600"/>
      <point x="159" y="600" type="curve" smooth="yes"/>
      <point x="116" y="600"/>
      <point x="77" y="586"/>
      <point x="40" y="557" type="curve"/>
      <point x="108" y="487"/>
      <point x="95" y="355"/>
      <point x="95" y="190" type="curve" smooth="yes"/>
      <point x="95" y="37"/>
      <point x="149" y="-25"/>
    </contour>
  </outline>
</glyph>
<glyph name="w" format="2">
  <advance width="956"/>
  <unicode hex="0077"/>
  <anchor x="427" y="0" name="bottom"/>
  <anchor x="529" y="575" name="top"/>
  <outline>
    <contour>
      <point x="242" y="-25" type="curve" smooth="yes"/>
      <point x="357" y="-25"/>
      <point x="414" y="52"/>
      <point x="474" y="143" type="curve" smooth="yes"/>
      <point x="531" y="237"/>
      <point x="588" y="383"/>
      <point x="588" y="476" type="curve" smooth="yes"/>
      <point x="588" y="539"/>
      <point x="558" y="570"/>
      <point x="500" y="570" type="curve" smooth="yes"/>
      <point x="478" y="570"/>
      <point x="452" y="552"/>
      <point x="436" y="527" type="curve"/>
      <point x="447" y="494"/>
      <point x="452" y="464"/>
      <point x="452" y="429" type="curve" smooth="yes"/>
      <point x="452" y="372"/>
      <point x="416" y="212"/>
      <point x="302" y="97" type="curve"/>
      <point x="292" y="97" type="line"/>
      <point x="292" y="161"/>
      <point x="294" y="271"/>
      <point x="294" y="354" type="curve" smooth="yes"/>
      <point x="294" y="545"/>
      <point x="243" y="600"/>
      <point x="159" y="600" type="curve" smooth="yes"/>
      <point x="116" y="600"/>
      <point x="77" y="586"/>
      <point x="40" y="557" type="curve"/>
      <point x="108" y="487"/>
      <point x="95" y="355"/>
      <point x="95" y="190" type="curve" smooth="yes"/>
      <point x="95" y="37"/>
      <point x="137" y="-25"/>
    </contour>
    <contour>
      <point x="595" y="-25" type="curve" smooth="yes"/>
      <point x="665" y="-25"/>
      <point x="752" y="14"/>
      <point x="803" y="69" type="curve"/>
      <point x="780" y="122" type="line"/>
      <point x="904" y="385"/>
      <point x="931" y="455"/>
      <point x="931" y="516" type="curve" smooth="yes"/>
      <point x="931" y="572"/>
      <point x="901" y="600"/>
      <point x="843" y="600" type="curve" smooth="yes"/>
      <point x="798" y="600"/>
      <point x="742" y="582"/>
      <point x="709" y="557" type="curve"/>
      <point x="722" y="532"/>
      <point x="728" y="509"/>
      <point x="728" y="482" type="curve" smooth="yes"/>
      <point x="728" y="421"/>
      <point x="677" y="276"/>
      <point x="572" y="97" type="curve"/>
      <point x="562" y="97" type="line"/>
      <point x="538" y="512" type="line"/>
      <point x="500" y="570" type="line"/>
      <point x="482" y="570"/>
      <point x="447" y="564"/>
      <point x="407" y="535" type="curve"/>
      <point x="438" y="190" type="line" smooth="yes"/>
      <point x="451" y="37"/>
      <point x="484" y="-25"/>
    </contour>
  </outline>
</glyph>
<glyph name="x" format="2">
  <advance width="709"/>
  <unicode hex="0078"/>
  <outline>
    <contour>
      <point x="489" y="-25" type="curve" smooth="yes"/>
      <point x="557" y="-25"/>
      <point x="610" y="6"/>
      <point x="652" y="69" type="curve"/>
      <point x="577" y="99"/>
      <point x="537" y="154"/>
      <point x="511" y="210" type="curve" smooth="yes"/>
      <point x="362" y="485" type="line" smooth="yes"/>
      <point x="314" y="574"/>
      <point x="281" y="600"/>
      <point x="220" y="600" type="curve" smooth="yes"/>
      <point x="152" y="600"/>
      <point x="99" y="569"/>
      <point x="57" y="505" type="curve"/>
      <point x="132" y="475"/>
      <point x="172" y="420"/>
      <point x="198" y="364" type="curve" smooth="yes"/>
      <point x="347" y="89" type="line" smooth="yes"/>
      <point x="395" y="1"/>
      <point x="428" y="-25"/>
    </contour>
    <contour>
      <point x="107" y="-25" type="curve" smooth="yes"/>
      <point x="149" y="-25"/>
      <point x="193" y="-11"/>
      <point x="241" y="18" type="curve"/>
      <point x="236" y="31"/>
      <point x="233" y="45"/>
      <point x="233" y="64" type="curve" smooth="yes"/>
      <point x="233" y="114"/>
      <point x="279" y="170"/>
      <point x="363" y="224" type="curve"/>
      <point x="297" y="338" type="line"/>
      <point x="204" y="283" type="line" smooth="yes"/>
      <point x="75" y="207"/>
      <point x="15" y="140"/>
      <point x="15" y="71" type="curve" smooth="yes"/>
      <point x="15" y="13"/>
      <point x="52" y="-25"/>
    </contour>
    <contour>
      <point x="402" y="237" type="line"/>
      <point x="495" y="292" type="line" smooth="yes"/>
      <point x="624" y="368"/>
      <point x="684" y="435"/>
      <point x="684" y="504" type="curve" smooth="yes"/>
      <point x="684" y="563"/>
      <point x="647" y="601"/>
      <point x="592" y="601" type="curve" smooth="yes"/>
      <point x="550" y="601"/>
      <point x="506" y="587"/>
      <point x="458" y="557" type="curve"/>
      <point x="463" y="544"/>
      <point x="466" y="530"/>
      <point x="466" y="511" type="curve" smooth="yes"/>
      <point x="466" y="461"/>
      <point x="420" y="405"/>
      <point x="336" y="351" type="curve"/>
    </contour>
  </outline>
</glyph>
<glyph name="y" format="2">
  <advance width="714"/>
  <unicode hex="0079"/>
  <anchor x="280" y="-200" name="bottom"/>
  <anchor x="403" y="575" name="top"/>
  <outline>
    <contour>
      <point x="110" y="-200" type="curve" smooth="yes"/>
      <point x="471" y="-200"/>
      <point x="689" y="296"/>
      <point x="689" y="512" type="curve" smooth="yes"/>
      <point x="689" y="570"/>
      <point x="656" y="600"/>
      <point x="592" y="600" type="curve" smooth="yes"/>
      <point x="555" y="600"/>
      <point x="508" y="582"/>
      <point x="481" y="557" type="curve"/>
      <point x="484" y="539"/>
      <point x="486" y="518"/>
      <point x="486" y="499" type="curve" smooth="yes"/>
      <point x="486" y="151"/>
      <point x="255" y="-51"/>
      <point x="112" y="-51" type="curve" smooth="yes"/>
      <point x="44" y="-51"/>
      <point x="5" y="-21"/>
      <point x="-15" y="13" type="curve"/>
      <point x="-39" y="-4"/>
      <point x="-64" y="-43"/>
      <point x="-64" y="-83" type="curve" smooth="yes"/>
      <point x="-64" y="-158"/>
      <point x="-4" y="-200"/>
    </contour>
    <contour>
      <point x="284" y="-25" type="curve"/>
      <point x="390" y="54" type="line"/>
      <point x="183" y="54"/>
      <point x="424" y="600"/>
      <point x="161" y="600" type="curve" smooth="yes"/>
      <point x="118" y="600"/>
      <point x="78" y="586"/>
      <point x="42" y="557" type="curve"/>
      <point x="179" y="431"/>
      <point x="-24" y="-25"/>
    </contour>
  </outline>
</glyph>
<glyph name="z" format="2">
  <advance width="614"/>
  <unicode hex="007A"/>
  <anchor x="266" y="0" name="bottom"/>
  <anchor x="367" y="575" name="top"/>
  <outline>
    <contour>
      <point x="263" y="90" type="line"/>
      <point x="562" y="453" type="line"/>
      <point x="329" y="428" type="line"/>
      <point x="73" y="128" type="line"/>
    </contour>
    <contour>
      <point x="422" y="-25" type="curve" smooth="yes"/>
      <point x="507" y="-25"/>
      <point x="579" y="26"/>
      <point x="579" y="97" type="curve" smooth="yes"/>
      <point x="579" y="133"/>
      <point x="570" y="165"/>
      <point x="558" y="196" type="curve"/>
      <point x="422" y="143" type="line"/>
      <point x="351" y="143"/>
      <point x="215" y="203"/>
      <point x="151" y="203" type="curve"/>
      <point x="55" y="202"/>
      <point x="10" y="138"/>
      <point x="10" y="78" type="curve" smooth="yes"/>
      <point x="10" y="28"/>
      <point x="42" y="-18"/>
      <point x="104" y="-18" type="curve" smooth="yes"/>
      <point x="143" y="-18"/>
      <point x="175" y="-6"/>
      <point x="215" y="25" type="curve"/>
      <point x="285" y="-2"/>
      <point x="346" y="-25"/>
    </contour>
    <contour>
      <point x="322" y="375" type="curve"/>
      <point x="462" y="375"/>
      <point x="599" y="394"/>
      <point x="599" y="506" type="curve" smooth="yes"/>
      <point x="599" y="560"/>
      <point x="565" y="600"/>
      <point x="494" y="600" type="curve" smooth="yes"/>
      <point x="445" y="600"/>
      <point x="400" y="570"/>
      <point x="379" y="530" type="curve"/>
      <point x="312" y="533"/>
      <point x="175" y="568"/>
      <point x="86" y="605" type="curve"/>
      <point x="79" y="564"/>
      <point x="75" y="539"/>
      <point x="75" y="514" type="curve" smooth="yes"/>
      <point x="75" y="423"/>
      <point x="126" y="377"/>
    </contour>
  </outline>
</glyph>
<glyph name="braceleft" format="2">
  <advance width="442"/>
  <unicode hex="007B"/>
  <outline>
    <contour>
      <point x="221" y="-157" type="curve" smooth="yes"/>
      <point x="323" y="-157"/>
      <point x="376" y="-120"/>
      <point x="376" y="-58" type="curve" smooth="yes"/>
      <point x="376" y="-48"/>
      <point x="374" y="-23"/>
      <point x="369" y="-6" type="curve"/>
      <point x="349" y="-15"/>
      <point x="278" y="-25"/>
      <point x="243" y="-25" type="curve"/>
      <point x="272" y="143"/>
      <point x="272" y="153"/>
      <point x="272" y="163" type="curve" smooth="yes"/>
      <point x="272" y="234"/>
      <point x="248" y="304"/>
      <point x="206" y="351" type="curve"/>
      <point x="272" y="398"/>
      <point x="310" y="454"/>
      <point x="352" y="668" type="curve"/>
      <point x="388" y="668"/>
      <point x="467" y="658"/>
      <point x="488" y="649" type="curve"/>
      <point x="492" y="662"/>
      <point x="495" y="691"/>
      <point x="495" y="701" type="curve" smooth="yes"/>
      <point x="495" y="763"/>
      <point x="463" y="800"/>
      <point x="373" y="800" type="curve" smooth="yes"/>
      <point x="265" y="800"/>
      <point x="152" y="767"/>
      <point x="152" y="591" type="curve" smooth="yes"/>
      <point x="152" y="547"/>
      <point x="159" y="454"/>
      <point x="173" y="401" type="curve"/>
      <point x="160" y="413"/>
      <point x="142" y="420"/>
      <point x="122" y="420" type="curve" smooth="yes"/>
      <point x="84" y="420"/>
      <point x="52" y="392"/>
      <point x="52" y="357" type="curve" smooth="yes"/>
      <point x="52" y="322"/>
      <point x="84" y="295"/>
      <point x="122" y="295" type="curve" smooth="yes"/>
      <point x="133" y="295"/>
      <point x="144" y="297"/>
      <point x="154" y="301" type="curve"/>
      <point x="88" y="189"/>
      <point x="57" y="66"/>
      <point x="57" y="-5" type="curve" smooth="yes"/>
      <point x="57" y="-111"/>
      <point x="111" y="-157"/>
    </contour>
  </outline>
</glyph>
<glyph name="bar" format="2">
  <advance width="486"/>
  <unicode hex="007C"/>
  <outline>
    <contour>
      <point x="131" y="-180" type="curve" smooth="yes"/>
      <point x="183" y="-180"/>
      <point x="242" y="-161"/>
      <point x="290" y="-135" type="curve"/>
      <point x="267" y="-22" type="line"/>
      <point x="458" y="806" type="line"/>
      <point x="458" y="858"/>
      <point x="436" y="880"/>
      <point x="375" y="880" type="curve" smooth="yes"/>
      <point x="323" y="880"/>
      <point x="264" y="861"/>
      <point x="216" y="835" type="curve"/>
      <point x="239" y="722" type="line"/>
      <point x="48" y="-106" type="line"/>
      <point x="48" y="-158"/>
      <point x="70" y="-180"/>
    </contour>
  </outline>
</glyph>
<glyph name="asciitilde" format="2">
  <advance width="724"/>
  <unicode hex="007E"/>
  <outline>
    <contour>
      <point x="180" y="261" type="curve" smooth="yes"/>
      <point x="295" y="261"/>
      <point x="439" y="321"/>
      <point x="614" y="321" type="curve"/>
      <point x="633" y="360"/>
      <point x="642" y="394"/>
      <point x="642" y="419" type="curve" smooth="yes"/>
      <point x="642" y="459"/>
      <point x="627" y="484"/>
      <point x="571" y="484" type="curve" smooth="yes"/>
      <point x="456" y="484"/>
      <point x="312" y="424"/>
      <point x="137" y="424" type="curve"/>
      <point x="118" y="385"/>
      <point x="109" y="351"/>
      <point x="109" y="326" type="curve" smooth="yes"/>
      <point x="109" y="286"/>
      <point x="124" y="261"/>
    </contour>
  </outline>
</glyph>
<glyph name="cent" format="2">
  <advance width="571"/>
  <unicode hex="00A2"/>
  <anchor x="319" y="358" name="_center"/>
  <outline>
    <contour>
      <point x="292" y="74" type="curve" smooth="yes"/>
      <point x="425" y="74"/>
      <point x="530" y="135"/>
      <point x="530" y="215" type="curve" smooth="yes"/>
      <point x="530" y="266"/>
      <point x="491" y="294"/>
      <point x="415" y="294" type="curve"/>
      <point x="413" y="225"/>
      <point x="364" y="170"/>
      <point x="308" y="170" type="curve" smooth="yes"/>
      <point x="260" y="170"/>
      <point x="231" y="217"/>
      <point x="231" y="298" type="curve" smooth="yes"/>
      <point x="231" y="384"/>
      <point x="278" y="469"/>
      <point x="337" y="489" type="curve"/>
      <point x="360" y="440"/>
      <point x="404" y="406"/>
      <point x="456" y="406" type="curve" smooth="yes"/>
      <point x="511" y="406"/>
      <point x="550" y="443"/>
      <point x="550" y="496" type="curve" smooth="yes"/>
      <point x="550" y="562"/>
      <point x="481" y="605"/>
      <point x="377" y="605" type="curve" smooth="yes"/>
      <point x="181" y="605"/>
      <point x="45" y="479"/>
      <point x="45" y="299" type="curve" smooth="yes"/>
      <point x="45" y="158"/>
      <point x="137" y="74"/>
    </contour>
    <contour>
      <point x="249" y="-70" type="curve" smooth="yes"/>
      <point x="295" y="-68"/>
      <point x="321" y="-37"/>
      <point x="332" y="28" type="curve" smooth="yes"/>
      <point x="337" y="62"/>
      <point x="343" y="94"/>
      <point x="348" y="125" type="curve"/>
      <point x="199" y="125" type="line"/>
      <point x="182" y="60"/>
      <point x="168" y="2"/>
      <point x="152" y="-48" type="curve"/>
      <point x="172" y="-62"/>
      <point x="216" y="-72"/>
    </contour>
    <contour>
      <point x="289" y="540" type="curve"/>
      <point x="438" y="540" type="line"/>
      <point x="463" y="625"/>
      <point x="486" y="698"/>
      <point x="508" y="759" type="curve"/>
      <point x="489" y="774"/>
      <point x="446" y="786"/>
      <point x="412" y="786" type="curve" smooth="yes"/>
      <point x="366" y="786"/>
      <point x="338" y="756"/>
      <point x="324" y="692" type="curve" smooth="yes"/>
      <point x="313" y="640"/>
      <point x="301" y="589"/>
    </contour>
  </outline>
</glyph>
<glyph name="sterling" format="2">
  <advance width="659"/>
  <unicode hex="00A3"/>
  <outline>
    <contour>
      <point x="442" y="-30" type="curve" smooth="yes"/>
      <point x="538" y="-30"/>
      <point x="613" y="27"/>
      <point x="613" y="100" type="curve" smooth="yes"/>
      <point x="613" y="132"/>
      <point x="606" y="162"/>
      <point x="589" y="204" type="curve"/>
      <point x="442" y="141" type="line"/>
      <point x="371" y="141"/>
      <point x="265" y="212"/>
      <point x="170" y="212" type="curve" smooth="yes"/>
      <point x="79" y="212"/>
      <point x="14" y="156"/>
      <point x="14" y="78" type="curve" smooth="yes"/>
      <point x="14" y="20"/>
      <point x="54" y="-22"/>
      <point x="111" y="-22" type="curve" smooth="yes"/>
      <point x="155" y="-22"/>
      <point x="190" y="-8"/>
      <point x="234" y="28" type="curve"/>
      <point x="305" y="-3"/>
      <point x="366" y="-30"/>
    </contour>
    <contour>
      <point x="128" y="78" type="line"/>
      <point x="316" y="74" type="line"/>
      <point x="394" y="509" type="line"/>
      <point x="485" y="509"/>
      <point x="572" y="492"/>
      <point x="622" y="462" type="curve"/>
      <point x="644" y="489"/>
      <point x="659" y="534"/>
      <point x="659" y="574" type="curve" smooth="yes"/>
      <point x="659" y="660"/>
      <point x="579" y="705"/>
      <point x="427" y="705" type="curve" smooth="yes"/>
      <point x="284" y="705"/>
      <point x="182" y="633"/>
      <point x="166" y="472" type="curve" smooth="yes"/>
    </contour>
    <component base="strokeshortcomb" xScale="0.9" yScale="0.8" xOffset="-54" yOffset="53"/>
  </outline>
</glyph>
<glyph name="currency" format="2">
  <advance width="695"/>
  <unicode hex="00A4"/>
  <outline>
    <contour>
      <point x="328" y="132" type="curve"/>
      <point x="485" y="132"/>
      <point x="594" y="223"/>
      <point x="594" y="359" type="curve" smooth="yes"/>
      <point x="594" y="465"/>
      <point x="526" y="539"/>
      <point x="408" y="539" type="curve" smooth="yes"/>
      <point x="233" y="539"/>
      <point x="112" y="448"/>
      <point x="112" y="312" type="curve" smooth="yes"/>
      <point x="112" y="206"/>
      <point x="191" y="132"/>
    </contour>
    <contour>
      <point x="138" y="20" type="curve" smooth="yes"/>
      <point x="169" y="20"/>
      <point x="196" y="41"/>
      <point x="224" y="84" type="curve" smooth="yes"/>
      <point x="252" y="129"/>
      <point x="280" y="173"/>
      <point x="308" y="215" type="curve"/>
      <point x="168" y="266" type="line"/>
      <point x="116" y="194"/>
      <point x="69" y="134"/>
      <point x="28" y="84" type="curve"/>
      <point x="45" y="55"/>
      <point x="105" y="20"/>
    </contour>
    <contour>
      <point x="478" y="20" type="curve" smooth="yes"/>
      <point x="511" y="20"/>
      <point x="576" y="55"/>
      <point x="598" y="84" type="curve"/>
      <point x="565" y="134"/>
      <point x="528" y="194"/>
      <point x="487" y="266" type="curve"/>
      <point x="339" y="215" type="line"/>
      <point x="360" y="173"/>
      <point x="381" y="129"/>
      <point x="402" y="84" type="curve" smooth="yes"/>
      <point x="423" y="41"/>
      <point x="447" y="20"/>
    </contour>
    <contour>
      <point x="335" y="252" type="curve" smooth="yes"/>
      <point x="300" y="252"/>
      <point x="282" y="280"/>
      <point x="282" y="317" type="curve" smooth="yes"/>
      <point x="282" y="346"/>
      <point x="293" y="383"/>
      <point x="318" y="412" type="curve"/>
      <point x="333" y="418"/>
      <point x="345" y="419"/>
      <point x="356" y="419" type="curve" smooth="yes"/>
      <point x="411" y="419"/>
      <point x="424" y="394"/>
      <point x="424" y="364" type="curve" smooth="yes"/>
      <point x="424" y="308"/>
      <point x="392" y="252"/>
    </contour>
    <contour>
      <point x="226" y="406" type="curve"/>
      <point x="374" y="457" type="line"/>
      <point x="353" y="499"/>
      <point x="331" y="543"/>
      <point x="310" y="588" type="curve" smooth="yes"/>
      <point x="290" y="630"/>
      <point x="265" y="651"/>
      <point x="234" y="651" type="curve" smooth="yes"/>
      <point x="195" y="651"/>
      <point x="135" y="614"/>
      <point x="114" y="588" type="curve"/>
      <point x="147" y="538"/>
      <point x="184" y="477"/>
    </contour>
    <contour>
      <point x="541" y="406" type="line"/>
      <point x="594" y="477"/>
      <point x="641" y="538"/>
      <point x="682" y="588" type="curve"/>
      <point x="665" y="614"/>
      <point x="611" y="651"/>
      <point x="572" y="651" type="curve" smooth="yes"/>
      <point x="541" y="651"/>
      <point x="513" y="630"/>
      <point x="486" y="588" type="curve" smooth="yes"/>
      <point x="458" y="543"/>
      <point x="429" y="499"/>
      <point x="401" y="457" type="curve"/>
    </contour>
  </outline>
</glyph>
<glyph name="yen" format="2">
  <advance width="674"/>
  <unicode hex="00A5"/>
  <anchor x="296" y="384" name="_center"/>
  <outline>
    <contour>
      <point x="322" y="209" type="curve"/>
      <point x="466" y="209"/>
      <point x="682" y="459"/>
      <point x="682" y="625" type="curve"/>
      <point x="682" y="676"/>
      <point x="653" y="700"/>
      <point x="592" y="700" type="curve" smooth="yes"/>
      <point x="549" y="700"/>
      <point x="489" y="681"/>
      <point x="458" y="657" type="curve" smooth="yes"/>
      <point x="471" y="637"/>
      <point x="477" y="620"/>
      <point x="477" y="601" type="curve"/>
      <point x="477" y="551"/>
      <point x="428" y="443"/>
      <point x="367" y="362" type="curve" smooth="yes"/>
      <point x="357" y="362" type="line" smooth="yes"/>
      <point x="357" y="550"/>
      <point x="347" y="700"/>
      <point x="218" y="700" type="curve" smooth="yes"/>
      <point x="171" y="700"/>
      <point x="129" y="686"/>
      <point x="89" y="657" type="curve" smooth="yes"/>
      <point x="152" y="606"/>
      <point x="153" y="515"/>
      <point x="159" y="382" type="curve"/>
      <point x="162" y="262"/>
      <point x="212" y="209"/>
    </contour>
    <contour>
      <point x="113" y="163" type="curve" smooth="yes"/>
      <point x="160" y="163"/>
      <point x="207" y="169"/>
      <point x="255" y="175" type="curve"/>
      <point x="270" y="273" type="line"/>
      <point x="232" y="269"/>
      <point x="195" y="265"/>
      <point x="156" y="265" type="curve" smooth="yes"/>
      <point x="122" y="265"/>
      <point x="86" y="270"/>
      <point x="57" y="278" type="curve"/>
      <point x="46" y="255"/>
      <point x="40" y="232"/>
      <point x="40" y="214" type="curve" smooth="yes"/>
      <point x="40" y="175"/>
      <point x="56" y="163"/>
    </contour>
    <contour>
      <point x="310" y="-25" type="curve" smooth="yes"/>
      <point x="355" y="-25"/>
      <point x="394" y="-11"/>
      <point x="431" y="18" type="curve"/>
      <point x="415" y="45"/>
      <point x="408" y="65"/>
      <point x="408" y="96" type="curve" smooth="yes"/>
      <point x="408" y="168"/>
      <point x="432" y="243"/>
      <point x="465" y="336" type="curve"/>
      <point x="254" y="336" type="line"/>
      <point x="213" y="205"/>
      <point x="197" y="134"/>
      <point x="197" y="80" type="curve" smooth="yes"/>
      <point x="197" y="6"/>
      <point x="231" y="-25"/>
    </contour>
    <contour>
      <point x="137" y="323" type="curve" smooth="yes"/>
      <point x="184" y="323"/>
      <point x="231" y="329"/>
      <point x="279" y="335" type="curve"/>
      <point x="293" y="433" type="line"/>
      <point x="256" y="429"/>
      <point x="219" y="425"/>
      <point x="180" y="425" type="curve" smooth="yes"/>
      <point x="146" y="425"/>
      <point x="110" y="430"/>
      <point x="81" y="438" type="curve"/>
      <point x="70" y="415"/>
      <point x="64" y="392"/>
      <point x="64" y="374" type="curve" smooth="yes"/>
      <point x="64" y="335"/>
      <point x="80" y="323"/>
    </contour>
    <contour>
      <point x="617" y="171" type="curve"/>
      <point x="628" y="194"/>
      <point x="635" y="216"/>
      <point x="635" y="235" type="curve" smooth="yes"/>
      <point x="635" y="274"/>
      <point x="618" y="285"/>
      <point x="562" y="285" type="curve" smooth="yes"/>
      <point x="515" y="285"/>
      <point x="468" y="279"/>
      <point x="420" y="273" type="curve"/>
      <point x="405" y="175" type="line"/>
      <point x="442" y="179"/>
      <point x="479" y="183"/>
      <point x="518" y="183" type="curve" smooth="yes"/>
      <point x="553" y="183"/>
      <point x="589" y="179"/>
    </contour>
    <contour>
      <point x="641" y="331" type="curve"/>
      <point x="652" y="354"/>
      <point x="659" y="376"/>
      <point x="659" y="395" type="curve" smooth="yes"/>
      <point x="659" y="434"/>
      <point x="642" y="445"/>
      <point x="586" y="445" type="curve" smooth="yes"/>
      <point x="538" y="445"/>
      <point x="491" y="439"/>
      <point x="443" y="433" type="curve"/>
      <point x="429" y="335" type="line"/>
      <point x="466" y="339"/>
      <point x="503" y="343"/>
      <point x="542" y="343" type="curve" smooth="yes"/>
      <point x="577" y="343"/>
      <point x="613" y="339"/>
    </contour>
  </outline>
</glyph>
<glyph name="section" format="2">
  <advance width="723"/>
  <unicode hex="00A7"/>
  <outline>
    <contour>
      <point x="438" y="82" type="line"/>
      <point x="567" y="109"/>
      <point x="663" y="181"/>
      <point x="663" y="307" type="curve" smooth="yes"/>
      <point x="663" y="540"/>
      <point x="324" y="510"/>
      <point x="324" y="609" type="curve" smooth="yes"/>
      <point x="324" y="659"/>
      <point x="379" y="680"/>
      <point x="442" y="680" type="curve" smooth="yes"/>
      <point x="544" y="680"/>
      <point x="607" y="628"/>
      <point x="655" y="559" type="curve"/>
      <point x="685" y="586"/>
      <point x="702" y="628"/>
      <point x="702" y="663" type="curve" smooth="yes"/>
      <point x="702" y="740"/>
      <point x="628" y="795"/>
      <point x="432" y="795" type="curve" smooth="yes"/>
      <point x="292" y="795"/>
      <point x="108" y="728"/>
      <point x="108" y="572" type="curve" smooth="yes"/>
      <point x="108" y="346"/>
      <point x="447" y="385"/>
      <point x="447" y="281" type="curve" smooth="yes"/>
      <point x="447" y="244"/>
      <point x="408" y="217"/>
      <point x="357" y="205" type="curve"/>
    </contour>
    <contour>
      <point x="296" y="-187" type="curve" smooth="yes"/>
      <point x="436" y="-187"/>
      <point x="620" y="-120"/>
      <point x="620" y="36" type="curve" smooth="yes"/>
      <point x="620" y="262"/>
      <point x="281" y="223"/>
      <point x="281" y="327" type="curve" smooth="yes"/>
      <point x="281" y="363"/>
      <point x="318" y="390"/>
      <point x="367" y="402" type="curve"/>
      <point x="275" y="523" type="line"/>
      <point x="154" y="493"/>
      <point x="65" y="422"/>
      <point x="65" y="301" type="curve" smooth="yes"/>
      <point x="65" y="68"/>
      <point x="404" y="98"/>
      <point x="404" y="-1" type="curve" smooth="yes"/>
      <point x="404" y="-51"/>
      <point x="349" y="-72"/>
      <point x="286" y="-72" type="curve" smooth="yes"/>
      <point x="184" y="-72"/>
      <point x="121" y="-20"/>
      <point x="73" y="49" type="curve"/>
      <point x="43" y="22"/>
      <point x="26" y="-20"/>
      <point x="26" y="-55" type="curve" smooth="yes"/>
      <point x="26" y="-132"/>
      <point x="100" y="-187"/>
    </contour>
  </outline>
</glyph>
<glyph name="ordfeminine" format="2">
  <advance width="598"/>
  <unicode hex="00AA"/>
  <outline>
    <contour>
      <point x="204" y="333" type="curve" smooth="yes"/>
      <point x="266" y="333"/>
      <point x="318" y="374"/>
      <point x="340" y="442" type="curve"/>
      <point x="347" y="439" type="line"/>
      <point x="347" y="435"/>
      <point x="347" y="431"/>
      <point x="347" y="426" type="curve" smooth="yes"/>
      <point x="347" y="367"/>
      <point x="380" y="333"/>
      <point x="439" y="333" type="curve" smooth="yes"/>
      <point x="480" y="333"/>
      <point x="522" y="349"/>
      <point x="559" y="377" type="curve"/>
      <point x="541" y="392"/>
      <point x="530" y="422"/>
      <point x="530" y="459" type="curve" smooth="yes"/>
      <point x="530" y="517"/>
      <point x="568" y="640"/>
      <point x="568" y="681" type="curve" smooth="yes"/>
      <point x="568" y="727"/>
      <point x="546" y="753"/>
      <point x="507" y="753" type="curve" smooth="yes"/>
      <point x="456" y="753"/>
      <point x="418" y="733"/>
      <point x="383" y="689" type="curve"/>
      <point x="372" y="546"/>
      <point x="344" y="486"/>
      <point x="290" y="486" type="curve" smooth="yes"/>
      <point x="263" y="486"/>
      <point x="246" y="508"/>
      <point x="246" y="547" type="curve" smooth="yes"/>
      <point x="246" y="622"/>
      <point x="306" y="689"/>
      <point x="414" y="689" type="curve"/>
      <point x="414" y="722"/>
      <point x="411" y="751"/>
      <point x="406" y="764" type="curve"/>
      <point x="393" y="768"/>
      <point x="375" y="770"/>
      <point x="357" y="770" type="curve" smooth="yes"/>
      <point x="202" y="770"/>
      <point x="71" y="665"/>
      <point x="71" y="497" type="curve" smooth="yes"/>
      <point x="71" y="398"/>
      <point x="124" y="333"/>
    </contour>
  </outline>
</glyph>
<glyph name="logicalnot" format="2">
  <advance width="728"/>
  <unicode hex="00AC"/>
  <outline>
    <contour>
      <point x="488" y="86" type="curve" smooth="yes"/>
      <point x="516" y="86"/>
      <point x="554" y="95"/>
      <point x="600" y="114" type="curve"/>
      <point x="645" y="399" type="line"/>
      <point x="492" y="453" type="line"/>
      <point x="447" y="177" type="line" smooth="yes"/>
      <point x="436" y="107"/>
      <point x="446" y="86"/>
    </contour>
    <contour>
      <point x="203" y="291" type="curve" smooth="yes"/>
      <point x="617" y="291" type="line"/>
      <point x="645" y="399" type="line"/>
      <point x="645" y="441"/>
      <point x="624" y="454"/>
      <point x="553" y="454" type="curve" smooth="yes"/>
      <point x="140" y="454" type="line"/>
      <point x="121" y="411"/>
      <point x="112" y="374"/>
      <point x="112" y="346" type="curve" smooth="yes"/>
      <point x="112" y="304"/>
      <point x="133" y="291"/>
    </contour>
  </outline>
</glyph>
<glyph name="registered" format="2">
  <advance width="896"/>
  <unicode hex="00AE"/>
  <anchor x="476.61" y="710.3" name="top"/>
  <anchor x="420.96000000000004" y="334.0" name="bottom"/>
  <outline>
    <contour>
      <point x="424" y="150" type="curve" smooth="yes"/>
      <point x="613" y="150"/>
      <point x="811" y="285"/>
      <point x="811" y="546" type="curve" smooth="yes"/>
      <point x="811" y="653"/>
      <point x="760" y="758"/>
      <point x="650" y="818" type="curve"/>
      <point x="645" y="870"/>
      <point x="630" y="896"/>
      <point x="537" y="896" type="curve" smooth="yes"/>
      <point x="265" y="896"/>
      <point x="85" y="735"/>
      <point x="85" y="493" type="curve" smooth="yes"/>
      <point x="85" y="263"/>
      <point x="251" y="150"/>
    </contour>
    <contour>
      <point x="423" y="213" type="curve" smooth="yes"/>
      <point x="281" y="213"/>
      <point x="154" y="301"/>
      <point x="154" y="494" type="curve" smooth="yes"/>
      <point x="154" y="706"/>
      <point x="298" y="815"/>
      <point x="480" y="815" type="curve" smooth="yes"/>
      <point x="667" y="815"/>
      <point x="756" y="668"/>
      <point x="756" y="543" type="curve" smooth="yes"/>
      <point x="756" y="379"/>
      <point x="631" y="213"/>
    </contour>
    <component base="R" xScale="0.53" yScale="0.53" xOffset="245" yOffset="334"/>
  </outline>
</glyph>
<glyph name="mu" format="2">
  <advance width="764"/>
  <unicode hex="00B5"/>
  <anchor x="681" y="24" name="ogonek"/>
  <anchor x="433" y="575" name="top"/>
  <anchor x="744" y="575" name="topright"/>
  <outline>
    <contour>
      <point x="143" y="-200" type="curve" smooth="yes"/>
      <point x="185" y="-200"/>
      <point x="233" y="-181"/>
      <point x="267" y="-151" type="curve"/>
      <point x="244" y="-128"/>
      <point x="229" y="-60"/>
      <point x="238" y="16" type="curve"/>
      <point x="327" y="-27"/>
      <point x="409" y="24"/>
      <point x="435" y="78" type="curve"/>
      <point x="490" y="51" type="line"/>
      <point x="475" y="210" type="line"/>
      <point x="442" y="143"/>
      <point x="380" y="97"/>
      <point x="324" y="97" type="curve" smooth="yes"/>
      <point x="278" y="97"/>
      <point x="258" y="117"/>
      <point x="258" y="161" type="curve" smooth="yes"/>
      <point x="258" y="215"/>
      <point x="325" y="459"/>
      <point x="325" y="529" type="curve" smooth="yes"/>
      <point x="325" y="580"/>
      <point x="301" y="600"/>
      <point x="240" y="600" type="curve" smooth="yes"/>
      <point x="185" y="600"/>
      <point x="116" y="573"/>
      <point x="53" y="527" type="curve"/>
      <point x="109" y="447" type="line"/>
      <point x="65" y="206"/>
      <point x="30" y="-27"/>
      <point x="30" y="-76" type="curve" smooth="yes"/>
      <point x="30" y="-162"/>
      <point x="64" y="-200"/>
    </contour>
    <contour>
      <point x="562" y="-25" type="curve" smooth="yes"/>
      <point x="603" y="-25"/>
      <point x="644" y="-8"/>
      <point x="681" y="24" type="curve"/>
      <point x="661" y="41"/>
      <point x="650" y="73"/>
      <point x="650" y="115" type="curve" smooth="yes"/>
      <point x="650" y="243"/>
      <point x="724" y="476"/>
      <point x="724" y="526" type="curve" smooth="yes"/>
      <point x="724" y="579"/>
      <point x="703" y="600"/>
      <point x="649" y="600" type="curve" smooth="yes"/>
      <point x="598" y="600"/>
      <point x="544" y="580"/>
      <point x="452" y="525" type="curve"/>
      <point x="508" y="441" type="line"/>
      <point x="466" y="260"/>
      <point x="444" y="143"/>
      <point x="444" y="99" type="curve" smooth="yes"/>
      <point x="444" y="14"/>
      <point x="481" y="-25"/>
    </contour>
  </outline>
</glyph>
<glyph name="paragraph" format="2">
  <advance width="674"/>
  <unicode hex="00B6"/>
  <outline>
    <contour>
      <point x="420" y="-93" type="curve" smooth="yes"/>
      <point x="461" y="-93"/>
      <point x="514" y="-77"/>
      <point x="561" y="-46" type="curve"/>
      <point x="541" y="-29"/>
      <point x="531" y="2"/>
      <point x="531" y="40" type="curve" smooth="yes"/>
      <point x="531" y="213"/>
      <point x="615" y="401"/>
      <point x="615" y="506" type="curve" smooth="yes"/>
      <point x="615" y="693"/>
      <point x="469" y="734"/>
      <point x="367" y="734" type="curve" smooth="yes"/>
      <point x="163" y="734"/>
      <point x="60" y="587"/>
      <point x="60" y="460" type="curve" smooth="yes"/>
      <point x="60" y="366"/>
      <point x="115" y="283"/>
      <point x="224" y="283" type="curve" smooth="yes"/>
      <point x="293" y="283"/>
      <point x="356" y="323"/>
      <point x="402" y="404" type="curve"/>
      <point x="422" y="404" type="line"/>
      <point x="389" y="357"/>
      <point x="296" y="189"/>
      <point x="296" y="55" type="curve" smooth="yes"/>
      <point x="296" y="-31"/>
      <point x="330" y="-93"/>
    </contour>
  </outline>
</glyph>
<glyph name="ordmasculine" format="2">
  <advance width="534"/>
  <unicode hex="00BA"/>
  <outline>
    <contour>
      <point x="277" y="333" type="curve" smooth="yes"/>
      <point x="441" y="333"/>
      <point x="543" y="435"/>
      <point x="543" y="571" type="curve" smooth="yes"/>
      <point x="543" y="643"/>
      <point x="511" y="696"/>
      <point x="443" y="696" type="curve" smooth="yes"/>
      <point x="406" y="696"/>
      <point x="372" y="678"/>
      <point x="352" y="649" type="curve"/>
      <point x="387" y="616"/>
      <point x="400" y="581"/>
      <point x="400" y="540" type="curve" smooth="yes"/>
      <point x="400" y="473"/>
      <point x="365" y="422"/>
      <point x="314" y="422" type="curve" smooth="yes"/>
      <point x="268" y="422"/>
      <point x="247" y="456"/>
      <point x="247" y="514" type="curve" smooth="yes"/>
      <point x="247" y="618"/>
      <point x="320" y="691"/>
      <point x="407" y="701" type="curve"/>
      <point x="409" y="726"/>
      <point x="404" y="747"/>
      <point x="397" y="761" type="curve"/>
      <point x="378" y="767"/>
      <point x="355" y="770"/>
      <point x="338" y="770" type="curve" smooth="yes"/>
      <point x="185" y="770"/>
      <point x="73" y="665"/>
      <point x="73" y="521" type="curve" smooth="yes"/>
      <point x="73" y="406"/>
      <point x="152" y="333"/>
    </contour>
  </outline>
</glyph>
<glyph name="AE" format="2">
  <advance width="967"/>
  <unicode hex="00C6"/>
  <anchor x="468" y="0" name="bottom"/>
  <anchor x="581" y="710" name="top"/>
  <outline>
    <contour>
      <point x="113" y="-29" type="curve" smooth="yes"/>
      <point x="161" y="-29"/>
      <point x="216" y="-11"/>
      <point x="253" y="16" type="curve"/>
      <point x="238" y="44"/>
      <point x="232" y="71"/>
      <point x="232" y="110" type="curve" smooth="yes"/>
      <point x="232" y="197"/>
      <point x="319" y="382"/>
      <point x="457" y="593" type="curve"/>
      <point x="469" y="593" type="line"/>
      <point x="509" y="680" type="line"/>
      <point x="489" y="709"/>
      <point x="451" y="726"/>
      <point x="403" y="726" type="curve" smooth="yes"/>
      <point x="332" y="726"/>
      <point x="276" y="709"/>
      <point x="201" y="662" type="curve"/>
      <point x="234" y="577" type="line"/>
      <point x="70" y="271"/>
      <point x="20" y="151"/>
      <point x="20" y="69" type="curve" smooth="yes"/>
      <point x="20" y="5"/>
      <point x="52" y="-29"/>
    </contour>
    <contour>
      <point x="160" y="161" type="line"/>
      <point x="488" y="161" type="line"/>
      <point x="508" y="280" type="line"/>
      <point x="182" y="280" type="line"/>
    </contour>
    <contour>
      <point x="785" y="-25" type="curve" smooth="yes"/>
      <point x="881" y="-25"/>
      <point x="935" y="24"/>
      <point x="935" y="111" type="curve" smooth="yes"/>
      <point x="935" y="137"/>
      <point x="932" y="156"/>
      <point x="924" y="175" type="curve"/>
      <point x="876" y="156"/>
      <point x="825" y="143"/>
      <point x="776" y="136" type="curve"/>
      <point x="567" y="136" type="line"/>
      <point x="567" y="29" type="line"/>
      <point x="647" y="-10"/>
      <point x="709" y="-25"/>
    </contour>
    <contour>
      <point x="520" y="-26" type="curve" smooth="yes"/>
      <point x="569" y="-26"/>
      <point x="609" y="-12"/>
      <point x="644" y="19" type="curve"/>
      <point x="622" y="50"/>
      <point x="614" y="83"/>
      <point x="614" y="144" type="curve" smooth="yes"/>
      <point x="614" y="221"/>
      <point x="691" y="564"/>
      <point x="691" y="632" type="curve" smooth="yes"/>
      <point x="691" y="695"/>
      <point x="665" y="726"/>
      <point x="614" y="726" type="curve" smooth="yes"/>
      <point x="553" y="726"/>
      <point x="482" y="701"/>
      <point x="408" y="653" type="curve"/>
      <point x="469" y="593" type="line"/>
      <point x="412" y="277"/>
      <point x="398" y="174"/>
      <point x="398" y="109" type="curve" smooth="yes"/>
      <point x="398" y="14"/>
      <point x="434" y="-26"/>
    </contour>
    <contour>
      <point x="695" y="249" type="curve" smooth="yes"/>
      <point x="763" y="249"/>
      <point x="804" y="284"/>
      <point x="804" y="341" type="curve" smooth="yes"/>
      <point x="804" y="360"/>
      <point x="802" y="377"/>
      <point x="799" y="389" type="curve"/>
      <point x="709" y="366" type="line"/>
      <point x="681" y="366"/>
      <point x="657" y="369"/>
      <point x="630" y="376" type="curve"/>
      <point x="610" y="262" type="line"/>
      <point x="650" y="252"/>
      <point x="672" y="249"/>
    </contour>
    <contour>
      <point x="786" y="493" type="curve" smooth="yes"/>
      <point x="905" y="493"/>
      <point x="977" y="555"/>
      <point x="977" y="656" type="curve" smooth="yes"/>
      <point x="977" y="676"/>
      <point x="974" y="698"/>
      <point x="969" y="721" type="curve"/>
      <point x="845" y="690"/>
      <point x="753" y="668"/>
      <point x="622" y="668" type="curve"/>
      <point x="610" y="533" type="line"/>
      <point x="649" y="513"/>
      <point x="736" y="493"/>
    </contour>
  </outline>
</glyph>
<glyph name="multiply" format="2">
  <advance width="690"/>
  <unicode hex="00D7"/>
  <outline>
    <contour>
      <point x="194" y="117" type="curve"/>
      <point x="578" y="458" type="line" smooth="yes"/>
      <point x="614" y="490"/>
      <point x="627" y="512"/>
      <point x="627" y="530" type="curve" smooth="yes"/>
      <point x="627" y="559"/>
      <point x="573" y="596"/>
      <point x="522" y="616" type="curve"/>
      <point x="138" y="276" type="line" smooth="yes"/>
      <point x="102" y="244"/>
      <point x="89" y="222"/>
      <point x="89" y="204" type="curve" smooth="yes"/>
      <point x="89" y="175"/>
      <point x="143" y="137"/>
    </contour>
    <contour>
      <point x="471" y="117" type="line"/>
      <point x="514" y="140"/>
      <point x="577" y="181"/>
      <point x="577" y="216" type="curve" smooth="yes"/>
      <point x="577" y="234"/>
      <point x="563" y="252"/>
      <point x="538" y="281" type="curve" smooth="yes"/>
      <point x="243" y="616" type="line"/>
      <point x="199" y="595"/>
      <point x="138" y="555"/>
      <point x="138" y="517" type="curve" smooth="yes"/>
      <point x="138" y="499"/>
      <point x="151" y="481"/>
      <point x="176" y="452" type="curve" smooth="yes"/>
    </contour>
  </outline>
</glyph>
<glyph name="Thorn" format="2">
  <advance width="732"/>
  <unicode hex="00DE"/>
  <outline>
    <contour>
      <point x="383" y="111" type="curve" smooth="yes"/>
      <point x="612" y="111"/>
      <point x="717" y="266"/>
      <point x="717" y="406" type="curve" smooth="yes"/>
      <point x="717" y="523"/>
      <point x="638" y="630"/>
      <point x="494" y="630" type="curve" smooth="yes"/>
      <point x="381" y="630"/>
      <point x="327" y="593"/>
      <point x="265" y="546" type="curve"/>
      <point x="265" y="444" type="line"/>
      <point x="311" y="481"/>
      <point x="352" y="502"/>
      <point x="393" y="502" type="curve" smooth="yes"/>
      <point x="461" y="502"/>
      <point x="494" y="449"/>
      <point x="494" y="392" type="curve" smooth="yes"/>
      <point x="494" y="302"/>
      <point x="423" y="236"/>
      <point x="330" y="236" type="curve" smooth="yes"/>
      <point x="300" y="236"/>
      <point x="267" y="244"/>
      <point x="243" y="263" type="curve"/>
      <point x="243" y="144" type="line"/>
      <point x="288" y="120"/>
      <point x="326" y="111"/>
    </contour>
    <contour>
      <point x="182" y="-26" type="curve" smooth="yes"/>
      <point x="227" y="-26"/>
      <point x="267" y="-12"/>
      <point x="306" y="19" type="curve"/>
      <point x="284" y="50"/>
      <point x="276" y="83"/>
      <point x="276" y="144" type="curve" smooth="yes"/>
      <point x="276" y="221"/>
      <point x="353" y="564"/>
      <point x="353" y="632" type="curve" smooth="yes"/>
      <point x="353" y="695"/>
      <point x="327" y="726"/>
      <point x="276" y="726" type="curve" smooth="yes"/>
      <point x="215" y="726"/>
      <point x="144" y="701"/>
      <point x="70" y="653" type="curve"/>
      <point x="123" y="546" type="line"/>
      <point x="72" y="253"/>
      <point x="60" y="167"/>
      <point x="60" y="109" type="curve" smooth="yes"/>
      <point x="60" y="14"/>
      <point x="96" y="-26"/>
    </contour>
  </outline>
</glyph>
<glyph name="germandbls" format="2">
  <advance width="735"/>
  <unicode hex="00DF"/>
  <outline>
    <contour>
      <point x="165" y="-210" type="curve" smooth="yes"/>
      <point x="207" y="-210"/>
      <point x="249" y="-193"/>
      <point x="288" y="-161" type="curve"/>
      <point x="268" y="-144"/>
      <point x="257" y="-112"/>
      <point x="257" y="-70" type="curve" smooth="yes"/>
      <point x="257" y="-11"/>
      <point x="272" y="88"/>
      <point x="337" y="442" type="curve" smooth="yes"/>
      <point x="355" y="553"/>
      <point x="396" y="608"/>
      <point x="461" y="608" type="curve" smooth="yes"/>
      <point x="507" y="608"/>
      <point x="535" y="571"/>
      <point x="535" y="512" type="curve" smooth="yes"/>
      <point x="535" y="445"/>
      <point x="495" y="371"/>
      <point x="441" y="340" type="curve"/>
      <point x="499" y="309"/>
      <point x="539" y="246"/>
      <point x="539" y="188" type="curve" smooth="yes"/>
      <point x="539" y="121"/>
      <point x="503" y="78"/>
      <point x="447" y="78" type="curve" smooth="yes"/>
      <point x="408" y="78"/>
      <point x="377" y="106"/>
      <point x="361" y="156" type="curve"/>
      <point x="325" y="136"/>
      <point x="305" y="104"/>
      <point x="305" y="67" type="curve" smooth="yes"/>
      <point x="305" y="10"/>
      <point x="365" y="-25"/>
      <point x="463" y="-25" type="curve" smooth="yes"/>
      <point x="627" y="-25"/>
      <point x="725" y="50"/>
      <point x="725" y="176" type="curve" smooth="yes"/>
      <point x="725" y="261"/>
      <point x="656" y="336"/>
      <point x="559" y="357" type="curve"/>
      <point x="648" y="400"/>
      <point x="701" y="472"/>
      <point x="701" y="550" type="curve" smooth="yes"/>
      <point x="701" y="658"/>
      <point x="610" y="725"/>
      <point x="463" y="725" type="curve" smooth="yes"/>
      <point x="279" y="725"/>
      <point x="168" y="625"/>
      <point x="131" y="423" type="curve" smooth="yes"/>
      <point x="78" y="114"/>
      <point x="50" y="-67"/>
      <point x="50" y="-102" type="curve" smooth="yes"/>
      <point x="50" y="-171"/>
      <point x="91" y="-210"/>
    </contour>
    <contour>
      <point x="125" y="300" type="curve" smooth="yes"/>
      <point x="167" y="300"/>
      <point x="215" y="306"/>
      <point x="251" y="315" type="curve"/>
      <point x="232" y="437" type="line"/>
      <point x="200" y="429"/>
      <point x="181" y="427"/>
      <point x="143" y="427" type="curve" smooth="yes"/>
      <point x="106" y="427"/>
      <point x="66" y="433"/>
      <point x="35" y="443" type="curve"/>
      <point x="21" y="418"/>
      <point x="14" y="390"/>
      <point x="14" y="363" type="curve" smooth="yes"/>
      <point x="14" y="314"/>
      <point x="38" y="300"/>
    </contour>
  </outline>
</glyph>
<glyph name="ae" format="2">
  <advance width="1048"/>
  <unicode hex="00E6"/>
  <anchor x="469" y="0" name="bottom"/>
  <anchor x="561" y="575" name="top"/>
  <anchor x="840" y="0" name="ogonek"/>
  <outline>
    <contour>
      <point x="226" y="-25" type="curve" smooth="yes"/>
      <point x="317" y="-25"/>
      <point x="395" y="32"/>
      <point x="435" y="128" type="curve"/>
      <point x="445" y="128" type="line"/>
      <point x="453" y="262" type="line"/>
      <point x="420" y="191"/>
      <point x="367" y="147"/>
      <point x="315" y="147" type="curve" smooth="yes"/>
      <point x="266" y="147"/>
      <point x="237" y="184"/>
      <point x="237" y="249" type="curve" smooth="yes"/>
      <point x="237" y="379"/>
      <point x="369" y="484"/>
      <point x="529" y="484" type="curve"/>
      <point x="529" y="515"/>
      <point x="525" y="545"/>
      <point x="517" y="567" type="curve"/>
      <point x="494" y="572"/>
      <point x="465" y="575"/>
      <point x="438" y="575" type="curve" smooth="yes"/>
      <point x="201" y="575"/>
      <point x="39" y="427"/>
      <point x="39" y="210" type="curve" smooth="yes"/>
      <point x="39" y="68"/>
      <point x="113" y="-25"/>
    </contour>
    <component base="e" xOffset="387"/>
  </outline>
</glyph>
<glyph name="eth" format="2">
  <advance width="718"/>
  <unicode hex="00F0"/>
  <outline>
    <contour>
      <point x="333" y="-25" type="curve" smooth="yes"/>
      <point x="539" y="-25"/>
      <point x="680" y="122"/>
      <point x="680" y="337" type="curve" smooth="yes"/>
      <point x="680" y="587"/>
      <point x="490" y="827"/>
      <point x="291" y="827" type="curve" smooth="yes"/>
      <point x="212" y="827"/>
      <point x="163" y="781"/>
      <point x="163" y="706" type="curve"/>
      <point x="360" y="706"/>
      <point x="517" y="510"/>
      <point x="517" y="291" type="curve" smooth="yes"/>
      <point x="517" y="167"/>
      <point x="450" y="78"/>
      <point x="357" y="78" type="curve" smooth="yes"/>
      <point x="283" y="78"/>
      <point x="244" y="132"/>
      <point x="244" y="236" type="curve" smooth="yes"/>
      <point x="244" y="395"/>
      <point x="354" y="509"/>
      <point x="506" y="509" type="curve"/>
      <point x="507" y="544"/>
      <point x="504" y="573"/>
      <point x="497" y="592" type="curve"/>
      <point x="475" y="598"/>
      <point x="455" y="600"/>
      <point x="426" y="600" type="curve" smooth="yes"/>
      <point x="204" y="600"/>
      <point x="46" y="452"/>
      <point x="46" y="245" type="curve" smooth="yes"/>
      <point x="46" y="80"/>
      <point x="158" y="-25"/>
    </contour>
    <component base="strokeshortcomb.Rhalf" xScale="0.94" xyScale="0.342" yxScale="-0.342" yScale="0.94" xOffset="583" yOffset="327"/>
  </outline>
</glyph>
<glyph name="thorn" format="2">
  <advance width="765"/>
  <unicode hex="00FE"/>
  <outline>
    <contour>
      <point x="327" y="0" type="curve" smooth="yes"/>
      <point x="564" y="0"/>
      <point x="726" y="148"/>
      <point x="726" y="365" type="curve" smooth="yes"/>
      <point x="726" y="507"/>
      <point x="652" y="600"/>
      <point x="539" y="600" type="curve" smooth="yes"/>
      <point x="452" y="600"/>
      <point x="378" y="543"/>
      <point x="340" y="447" type="curve"/>
      <point x="258" y="478" type="line"/>
      <point x="260" y="114" type="line"/>
      <point x="295" y="296"/>
      <point x="375" y="428"/>
      <point x="450" y="428" type="curve" smooth="yes"/>
      <point x="499" y="428"/>
      <point x="528" y="391"/>
      <point x="528" y="326" type="curve" smooth="yes"/>
      <point x="528" y="192"/>
      <point x="403" y="91"/>
      <point x="236" y="91" type="curve"/>
      <point x="236" y="58"/>
      <point x="240" y="28"/>
      <point x="248" y="8" type="curve"/>
      <point x="271" y="3"/>
      <point x="300" y="0"/>
    </contour>
    <contour>
      <point x="155" y="-200" type="curve" smooth="yes"/>
      <point x="193" y="-200"/>
      <point x="242" y="-184"/>
      <point x="279" y="-151" type="curve"/>
      <point x="261" y="-129"/>
      <point x="248" y="-110"/>
      <point x="248" y="-43" type="curve" smooth="yes"/>
      <point x="248" y="251"/>
      <point x="365" y="493"/>
      <point x="365" y="704" type="curve" smooth="yes"/>
      <point x="365" y="754"/>
      <point x="343" y="775"/>
      <point x="280" y="775" type="curve" smooth="yes"/>
      <point x="219" y="775"/>
      <point x="149" y="743"/>
      <point x="93" y="702" type="curve"/>
      <point x="149" y="622" type="line"/>
      <point x="114" y="420"/>
      <point x="42" y="20"/>
      <point x="42" y="-56" type="curve" smooth="yes"/>
      <point x="42" y="-153"/>
      <point x="74" y="-200"/>
    </contour>
  </outline>
</glyph>
<glyph name="idotless" format="2">
  <advance width="388"/>
  <unicode hex="0131"/>
  <anchor x="143" y="0" name="bottom"/>
  <anchor x="302" y="24" name="ogonek"/>
  <anchor x="245" y="575" name="top"/>
  <outline>
    <contour>
      <point x="183" y="-25" type="curve" smooth="yes"/>
      <point x="223" y="-25"/>
      <point x="264" y="-9"/>
      <point x="302" y="24" type="curve"/>
      <point x="281" y="42"/>
      <point x="271" y="75"/>
      <point x="271" y="115" type="curve" smooth="yes"/>
      <point x="271" y="243"/>
      <point x="345" y="476"/>
      <point x="345" y="526" type="curve" smooth="yes"/>
      <point x="345" y="577"/>
      <point x="326" y="600"/>
      <point x="270" y="600" type="curve" smooth="yes"/>
      <point x="206" y="600"/>
      <point x="133" y="567"/>
      <point x="73" y="525" type="curve"/>
      <point x="129" y="441" type="line"/>
      <point x="102" y="324"/>
      <point x="65" y="158"/>
      <point x="65" y="99" type="curve" smooth="yes"/>
      <point x="65" y="19"/>
      <point x="98" y="-25"/>
    </contour>
  </outline>
</glyph>
<glyph name="kgreenlandic" format="2">
  <advance width="739"/>
  <unicode hex="0138"/>
  <anchor x="342" y="0" name="bottom"/>
  <anchor x="415" y="575" name="top"/>
  <outline>
    <contour>
      <point x="238" y="144" type="line"/>
      <point x="494" y="277" type="line" smooth="yes"/>
      <point x="650" y="358"/>
      <point x="715" y="425"/>
      <point x="715" y="504" type="curve" smooth="yes"/>
      <point x="715" y="562"/>
      <point x="674" y="600"/>
      <point x="613" y="600" type="curve" smooth="yes"/>
      <point x="574" y="600"/>
      <point x="533" y="589"/>
      <point x="488" y="567" type="curve"/>
      <point x="495" y="550"/>
      <point x="498" y="534"/>
      <point x="498" y="519" type="curve" smooth="yes"/>
      <point x="498" y="446"/>
      <point x="427" y="389"/>
      <point x="325" y="307" type="curve" smooth="yes"/>
      <point x="244" y="241" type="line"/>
    </contour>
    <contour>
      <point x="192" y="-25" type="curve" smooth="yes"/>
      <point x="229" y="-25"/>
      <point x="266" y="-9"/>
      <point x="302" y="24" type="curve"/>
      <point x="289" y="42"/>
      <point x="281" y="75"/>
      <point x="281" y="115" type="curve" smooth="yes"/>
      <point x="281" y="243"/>
      <point x="345" y="476"/>
      <point x="345" y="526" type="curve" smooth="yes"/>
      <point x="345" y="577"/>
      <point x="326" y="600"/>
      <point x="270" y="600" type="curve" smooth="yes"/>
      <point x="206" y="600"/>
      <point x="133" y="567"/>
      <point x="73" y="525" type="curve"/>
      <point x="129" y="441" type="line"/>
      <point x="106" y="324"/>
      <point x="75" y="158"/>
      <point x="75" y="99" type="curve" smooth="yes"/>
      <point x="75" y="19"/>
      <point x="108" y="-25"/>
    </contour>
    <contour>
      <point x="585" y="-25" type="curve" smooth="yes"/>
      <point x="649" y="-25"/>
      <point x="699" y="6"/>
      <point x="738" y="69" type="curve"/>
      <point x="663" y="99"/>
      <point x="623" y="154"/>
      <point x="597" y="210" type="curve" smooth="yes"/>
      <point x="515" y="361" type="line"/>
      <point x="342" y="257" type="line"/>
      <point x="417" y="118" type="line" smooth="yes"/>
      <point x="471" y="19"/>
      <point x="513" y="-25"/>
    </contour>
  </outline>
</glyph>
<glyph name="Eng" format="2">
  <advance width="846"/>
  <unicode hex="014A"/>
  <outline>
    <contour>
      <point x="375" y="-240" type="curve" smooth="yes"/>
      <point x="591" y="-240"/>
      <point x="705" y="-109"/>
      <point x="772" y="268" type="curve" smooth="yes"/>
      <point x="796" y="402"/>
      <point x="834" y="585"/>
      <point x="834" y="633" type="curve" smooth="yes"/>
      <point x="834" y="696"/>
      <point x="808" y="727"/>
      <point x="757" y="727" type="curve" smooth="yes"/>
      <point x="699" y="727"/>
      <point x="631" y="702"/>
      <point x="561" y="654" type="curve"/>
      <point x="604" y="547" type="line"/>
      <point x="537" y="150" type="line" smooth="yes"/>
      <point x="510" y="-16"/>
      <point x="434" y="-114"/>
      <point x="221" y="-114" type="curve"/>
      <point x="221" y="-207"/>
      <point x="313" y="-240"/>
    </contour>
    <contour>
      <point x="182" y="-26" type="curve" smooth="yes"/>
      <point x="227" y="-26"/>
      <point x="267" y="-12"/>
      <point x="306" y="19" type="curve"/>
      <point x="284" y="50"/>
      <point x="276" y="83"/>
      <point x="276" y="144" type="curve" smooth="yes"/>
      <point x="276" y="221"/>
      <point x="353" y="564"/>
      <point x="353" y="632" type="curve" smooth="yes"/>
      <point x="353" y="695"/>
      <point x="327" y="726"/>
      <point x="276" y="726" type="curve" smooth="yes"/>
      <point x="215" y="726"/>
      <point x="144" y="701"/>
      <point x="70" y="653" type="curve"/>
      <point x="123" y="546" type="line"/>
      <point x="72" y="253"/>
      <point x="60" y="167"/>
      <point x="60" y="109" type="curve" smooth="yes"/>
      <point x="60" y="14"/>
      <point x="96" y="-26"/>
    </contour>
    <contour>
      <point x="663" y="-25" type="curve"/>
      <point x="654" y="243" type="line"/>
      <point x="544" y="243" type="line"/>
      <point x="477" y="653"/>
      <point x="436" y="726"/>
      <point x="276" y="726" type="curve"/>
      <point x="289" y="546" type="line"/>
      <point x="353" y="546" type="line"/>
      <point x="430" y="77"/>
      <point x="486" y="-26"/>
    </contour>
  </outline>
</glyph>
<glyph name="eng" format="2">
  <advance width="774"/>
  <unicode hex="014B"/>
  <outline>
    <contour>
      <point x="345" y="-240" type="curve" smooth="yes"/>
      <point x="577" y="-240"/>
      <point x="713" y="95"/>
      <point x="713" y="409" type="curve" smooth="yes"/>
      <point x="713" y="539"/>
      <point x="670" y="600"/>
      <point x="582" y="600" type="curve" smooth="yes"/>
      <point x="488" y="600"/>
      <point x="395" y="551"/>
      <point x="320" y="417" type="curve"/>
      <point x="310" y="422" type="line"/>
      <point x="322" y="449"/>
      <point x="333" y="489"/>
      <point x="333" y="524" type="curve" smooth="yes"/>
      <point x="333" y="571"/>
      <point x="307" y="600"/>
      <point x="251" y="600" type="curve" smooth="yes"/>
      <point x="185" y="600"/>
      <point x="121" y="575"/>
      <point x="66" y="544" type="curve"/>
      <point x="118" y="464" type="line"/>
      <point x="92" y="351"/>
      <point x="55" y="156"/>
      <point x="55" y="99" type="curve" smooth="yes"/>
      <point x="55" y="19"/>
      <point x="88" y="-25"/>
      <point x="172" y="-25" type="curve" smooth="yes"/>
      <point x="209" y="-25"/>
      <point x="246" y="-9"/>
      <point x="282" y="24" type="curve"/>
      <point x="269" y="42"/>
      <point x="261" y="75"/>
      <point x="261" y="115" type="curve" smooth="yes"/>
      <point x="261" y="309"/>
      <point x="382" y="443"/>
      <point x="459" y="443" type="curve" smooth="yes"/>
      <point x="495" y="443"/>
      <point x="508" y="409"/>
      <point x="508" y="351" type="curve" smooth="yes"/>
      <point x="508" y="151"/>
      <point x="410" y="-114"/>
      <point x="221" y="-114" type="curve"/>
      <point x="221" y="-207"/>
      <point x="295" y="-240"/>
    </contour>
  </outline>
</glyph>
<glyph name="OE" format="2">
  <advance width="1161"/>
  <unicode hex="0152"/>
  <anchor x="525" y="0" name="bottom"/>
  <anchor x="638" y="710" name="top"/>
  <outline>
    <contour>
      <point x="937" y="493" type="curve" smooth="yes"/>
      <point x="1056" y="493"/>
      <point x="1128" y="555"/>
      <point x="1128" y="656" type="curve" smooth="yes"/>
      <point x="1128" y="676"/>
      <point x="1125" y="698"/>
      <point x="1120" y="721" type="curve"/>
      <point x="1047" y="696"/>
      <point x="960" y="678"/>
      <point x="853" y="678" type="curve" smooth="yes"/>
      <point x="677" y="678"/>
      <point x="629" y="726"/>
      <point x="434" y="726" type="curve"/>
      <point x="349" y="548" type="line"/>
      <point x="576" y="710"/>
      <point x="696" y="493"/>
    </contour>
    <contour>
      <point x="858" y="-25" type="curve" smooth="yes"/>
      <point x="1002" y="-25"/>
      <point x="1076" y="24"/>
      <point x="1076" y="111" type="curve" smooth="yes"/>
      <point x="1076" y="137"/>
      <point x="1073" y="156"/>
      <point x="1065" y="175" type="curve"/>
      <point x="1017" y="156"/>
      <point x="966" y="143"/>
      <point x="917" y="136" type="curve"/>
      <point x="580" y="136" type="line"/>
      <point x="539" y="51" type="line"/>
      <point x="646" y="-8"/>
      <point x="764" y="-25"/>
    </contour>
    <contour>
      <point x="846" y="249" type="curve" smooth="yes"/>
      <point x="914" y="249"/>
      <point x="955" y="284"/>
      <point x="955" y="341" type="curve" smooth="yes"/>
      <point x="955" y="360"/>
      <point x="953" y="377"/>
      <point x="950" y="389" type="curve"/>
      <point x="860" y="366" type="line"/>
      <point x="818" y="366"/>
      <point x="782" y="369"/>
      <point x="741" y="376" type="curve"/>
      <point x="721" y="262" type="line"/>
      <point x="780" y="252"/>
      <point x="812" y="249"/>
    </contour>
    <component base="O.alt"/>
  </outline>
</glyph>
<glyph name="oe" format="2">
  <advance width="1137"/>
  <unicode hex="0153"/>
  <anchor x="513" y="0" name="bottom"/>
  <anchor x="605" y="575" name="top"/>
  <anchor x="929" y="0" name="ogonek"/>
  <outline>
    <contour>
      <point x="323" y="-25" type="curve" smooth="yes"/>
      <point x="523" y="-25"/>
      <point x="680" y="135"/>
      <point x="680" y="337" type="curve" smooth="yes"/>
      <point x="680" y="442"/>
      <point x="631" y="514"/>
      <point x="559" y="514" type="curve" smooth="yes"/>
      <point x="515" y="514"/>
      <point x="475" y="493"/>
      <point x="451" y="458" type="curve"/>
      <point x="498" y="410"/>
      <point x="517" y="359"/>
      <point x="517" y="281" type="curve" smooth="yes"/>
      <point x="517" y="163"/>
      <point x="450" y="78"/>
      <point x="357" y="78" type="curve" smooth="yes"/>
      <point x="283" y="78"/>
      <point x="244" y="132"/>
      <point x="244" y="236" type="curve" smooth="yes"/>
      <point x="244" y="395"/>
      <point x="354" y="509"/>
      <point x="506" y="509" type="curve"/>
      <point x="507" y="542"/>
      <point x="504" y="572"/>
      <point x="497" y="592" type="curve"/>
      <point x="473" y="598"/>
      <point x="452" y="600"/>
      <point x="426" y="600" type="curve" smooth="yes"/>
      <point x="204" y="600"/>
      <point x="46" y="452"/>
      <point x="46" y="245" type="curve" smooth="yes"/>
      <point x="46" y="80"/>
      <point x="154" y="-25"/>
    </contour>
    <component base="e" xOffset="476"/>
  </outline>
</glyph>
<glyph name="florin" format="2">
  <advance width="543"/>
  <unicode hex="0192"/>
  <outline>
    <contour>
      <point x="125" y="-210" type="curve" smooth="yes"/>
      <point x="279" y="-210"/>
      <point x="334" y="-96"/>
      <point x="347" y="36" type="curve" smooth="yes"/>
      <point x="374" y="310" type="line"/>
      <point x="257" y="528" type="line"/>
      <point x="353" y="528"/>
      <point x="455" y="503"/>
      <point x="512" y="477" type="curve"/>
      <point x="531" y="519"/>
      <point x="537" y="548"/>
      <point x="537" y="573" type="curve" smooth="yes"/>
      <point x="537" y="654"/>
      <point x="475" y="700"/>
      <point x="349" y="700" type="curve" smooth="yes"/>
      <point x="144" y="700"/>
      <point x="112" y="459"/>
      <point x="112" y="289" type="curve" smooth="yes"/>
      <point x="112" y="26"/>
      <point x="61" y="-93"/>
      <point x="6" y="-172" type="curve"/>
      <point x="34" y="-197"/>
      <point x="75" y="-210"/>
    </contour>
    <component base="strokeshortcomb" xScale="0.897" xyScale="0.078" yxScale="-0.07" yScale="0.797" xOffset="-61" yOffset="-35"/>
  </outline>
</glyph>
<glyph name="gravecomb" format="2">
  <unicode hex="0300"/>
  <anchor x="188" y="575" name="_top"/>
  <anchor x="188" y="886" name="top"/>
  <outline>
    <contour>
      <point x="300" y="653" type="curve" smooth="yes"/>
      <point x="332" y="653"/>
      <point x="353" y="681"/>
      <point x="356" y="729" type="curve"/>
      <point x="251" y="758"/>
      <point x="171" y="876"/>
      <point x="86" y="876" type="curve" smooth="yes"/>
      <point x="43" y="876"/>
      <point x="20" y="846"/>
      <point x="20" y="791" type="curve" smooth="yes"/>
      <point x="20" y="768"/>
      <point x="24" y="742"/>
      <point x="30" y="718" type="curve"/>
      <point x="166" y="718"/>
      <point x="231" y="653"/>
    </contour>
  </outline>
</glyph>
<glyph name="acutecomb" format="2">
  <unicode hex="0301"/>
  <anchor x="204" y="575" name="_top"/>
  <anchor x="259" y="886" name="top"/>
  <outline>
    <contour>
      <point x="126" y="653" type="curve" smooth="yes"/>
      <point x="195" y="653"/>
      <point x="260" y="718"/>
      <point x="396" y="718" type="curve"/>
      <point x="402" y="742"/>
      <point x="406" y="768"/>
      <point x="406" y="791" type="curve" smooth="yes"/>
      <point x="406" y="846"/>
      <point x="383" y="876"/>
      <point x="340" y="876" type="curve" smooth="yes"/>
      <point x="255" y="876"/>
      <point x="175" y="758"/>
      <point x="70" y="729" type="curve"/>
      <point x="73" y="681"/>
      <point x="94" y="653"/>
    </contour>
  </outline>
</glyph>
<glyph name="circumflexcomb" format="2">
  <unicode hex="0302"/>
  <anchor x="269" y="575" name="_top"/>
  <anchor x="321" y="868" name="top"/>
  <outline>
    <contour>
      <point x="153" y="664" type="curve" smooth="yes"/>
      <point x="191" y="664"/>
      <point x="223" y="672"/>
      <point x="249" y="682" type="curve"/>
      <point x="249" y="737"/>
      <point x="262" y="787"/>
      <point x="298" y="826" type="curve"/>
      <point x="318" y="826" type="line"/>
      <point x="313" y="795"/>
      <point x="307" y="762"/>
      <point x="307" y="739" type="curve" smooth="yes"/>
      <point x="307" y="682"/>
      <point x="340" y="664"/>
      <point x="388" y="664" type="curve" smooth="yes"/>
      <point x="421" y="664"/>
      <point x="457" y="673"/>
      <point x="482" y="683" type="curve"/>
      <point x="465" y="695"/>
      <point x="451" y="714"/>
      <point x="451" y="748" type="curve" smooth="yes"/>
      <point x="451" y="811" type="line" smooth="yes"/>
      <point x="451" y="866"/>
      <point x="397" y="888"/>
      <point x="331" y="888" type="curve" smooth="yes"/>
      <point x="276" y="888"/>
      <point x="217" y="873"/>
      <point x="184" y="851" type="curve"/>
      <point x="144" y="815"/>
      <point x="86" y="746"/>
      <point x="86" y="703" type="curve" smooth="yes"/>
      <point x="86" y="680"/>
      <point x="103" y="664"/>
    </contour>
  </outline>
</glyph>
